<mxfile host="drawio-plugin" modified="2023-05-13T22:36:20.928Z" agent="5.0 (Windows NT 6.2; Win64; x64) AppleWebKit/537.36 (KHTML, like Gecko) Chrome/98.0.4758.102 Safari/537.36" etag="QN4o-viV7BTZW8-ZLt8f" version="20.5.3" type="embed" pages="8"><diagram name="subjects" id="1WHWGsIflHGPKC1w1pxA"><mxGraphModel dx="659" dy="852" grid="1" gridSize="10" guides="1" tooltips="1" connect="1" arrows="1" fold="1" page="1" pageScale="1" pageWidth="827" pageHeight="1169" math="0" shadow="0"><root><mxCell id="0"/><mxCell id="1" parent="0"/><mxCell id="oWFgTW33HOXr38VG8T3a-1" value="" style="rounded=0;whiteSpace=wrap;html=1;" parent="1" vertex="1"><mxGeometry x="1460" y="360" width="790" height="680" as="geometry"/></mxCell><mxCell id="oWFgTW33HOXr38VG8T3a-2" value="Questions" style="rounded=0;whiteSpace=wrap;html=1;" parent="1" vertex="1"><mxGeometry x="1490" y="500" width="210" height="440" as="geometry"/></mxCell><mxCell id="oWFgTW33HOXr38VG8T3a-3" value="subject" style="rounded=0;whiteSpace=wrap;html=1;" parent="1" vertex="1"><mxGeometry x="1490" y="420" width="210" height="30" as="geometry"/></mxCell><mxCell id="oWFgTW33HOXr38VG8T3a-4" value="" style="rounded=0;whiteSpace=wrap;html=1;" parent="1" vertex="1"><mxGeometry x="1730" y="500" width="490" height="440" as="geometry"/></mxCell><mxCell id="oWFgTW33HOXr38VG8T3a-5" value="Photo" style="ellipse;whiteSpace=wrap;html=1;aspect=fixed;" parent="1" vertex="1"><mxGeometry x="3260" y="780" width="60" height="60" as="geometry"/></mxCell><mxCell id="oWFgTW33HOXr38VG8T3a-6" value="Profile" style="rounded=0;whiteSpace=wrap;html=1;" parent="1" vertex="1"><mxGeometry x="1910" y="380" width="210" height="50" as="geometry"/></mxCell><mxCell id="oWFgTW33HOXr38VG8T3a-7" value="criteria" style="rounded=0;whiteSpace=wrap;html=1;" parent="1" vertex="1"><mxGeometry x="1960" y="710" width="220" height="90" as="geometry"/></mxCell><mxCell id="oWFgTW33HOXr38VG8T3a-8" value="question text" style="rounded=0;whiteSpace=wrap;html=1;" parent="1" vertex="1"><mxGeometry x="1760" y="530" width="420" height="155" as="geometry"/></mxCell><mxCell id="oWFgTW33HOXr38VG8T3a-9" value="points" style="rounded=0;whiteSpace=wrap;html=1;" parent="1" vertex="1"><mxGeometry x="1760" y="820" width="180" height="50" as="geometry"/></mxCell><mxCell id="oWFgTW33HOXr38VG8T3a-10" value="add" style="rounded=0;whiteSpace=wrap;html=1;" parent="1" vertex="1"><mxGeometry x="1960" y="820" width="110" height="50" as="geometry"/></mxCell><mxCell id="oWFgTW33HOXr38VG8T3a-11" value="criteria" style="rounded=0;whiteSpace=wrap;html=1;" parent="1" vertex="1"><mxGeometry x="1760" y="710" width="180" height="90" as="geometry"/></mxCell><mxCell id="oWFgTW33HOXr38VG8T3a-12" value="remove" style="rounded=0;whiteSpace=wrap;html=1;" parent="1" vertex="1"><mxGeometry x="2078" y="820" width="102" height="50" as="geometry"/></mxCell><mxCell id="oWFgTW33HOXr38VG8T3a-13" value="add" style="rounded=0;whiteSpace=wrap;html=1;" parent="1" vertex="1"><mxGeometry x="1970" y="960" width="70" height="40" as="geometry"/></mxCell><mxCell id="oWFgTW33HOXr38VG8T3a-14" value="remove" style="rounded=0;whiteSpace=wrap;html=1;" parent="1" vertex="1"><mxGeometry x="2060" y="960" width="70" height="40" as="geometry"/></mxCell><mxCell id="oWFgTW33HOXr38VG8T3a-15" value="save" style="rounded=0;whiteSpace=wrap;html=1;" parent="1" vertex="1"><mxGeometry x="2150" y="960" width="70" height="40" as="geometry"/></mxCell><mxCell id="oWFgTW33HOXr38VG8T3a-16" value="search subject" style="rounded=0;whiteSpace=wrap;html=1;" parent="1" vertex="1"><mxGeometry x="1490" y="380" width="210" height="30" as="geometry"/></mxCell><mxCell id="oWFgTW33HOXr38VG8T3a-17" value="search question" style="rounded=0;whiteSpace=wrap;html=1;" parent="1" vertex="1"><mxGeometry x="1490" y="460" width="210" height="30" as="geometry"/></mxCell><mxCell id="fNxaRODxbjbj0JDJt8V0-1" value="Subject" style="rounded=0;whiteSpace=wrap;html=1;" parent="1" vertex="1"><mxGeometry x="2380" y="780" width="210" height="30" as="geometry"/></mxCell><mxCell id="fNxaRODxbjbj0JDJt8V0-2" value="add" style="rounded=0;whiteSpace=wrap;html=1;" parent="1" vertex="1"><mxGeometry x="2600" y="820" width="60" height="30" as="geometry"/></mxCell><mxCell id="fNxaRODxbjbj0JDJt8V0-3" value="remove" style="rounded=0;whiteSpace=wrap;html=1;" parent="1" vertex="1"><mxGeometry x="2670" y="820" width="60" height="30" as="geometry"/></mxCell><mxCell id="nvQL1UwgPIaU9dY_N4ge-4" value="" style="group" parent="1" vertex="1" connectable="0"><mxGeometry x="2380" y="820" width="210" height="30" as="geometry"/></mxCell><mxCell id="nvQL1UwgPIaU9dY_N4ge-2" value="Topics" style="rounded=0;whiteSpace=wrap;html=1;" parent="nvQL1UwgPIaU9dY_N4ge-4" vertex="1"><mxGeometry width="210" height="30" as="geometry"/></mxCell><mxCell id="nvQL1UwgPIaU9dY_N4ge-3" value="" style="triangle;whiteSpace=wrap;html=1;rotation=90;" parent="nvQL1UwgPIaU9dY_N4ge-4" vertex="1"><mxGeometry x="180.5" y="5.5" width="16" height="23" as="geometry"/></mxCell><mxCell id="nvQL1UwgPIaU9dY_N4ge-5" style="edgeStyle=orthogonalEdgeStyle;rounded=0;orthogonalLoop=1;jettySize=auto;html=1;exitX=0.5;exitY=1;exitDx=0;exitDy=0;" parent="nvQL1UwgPIaU9dY_N4ge-4" source="nvQL1UwgPIaU9dY_N4ge-2" target="nvQL1UwgPIaU9dY_N4ge-2" edge="1"><mxGeometry relative="1" as="geometry"/></mxCell><mxCell id="nvQL1UwgPIaU9dY_N4ge-8" value="Questions" style="shape=table;startSize=20;container=1;collapsible=0;childLayout=tableLayout;" parent="1" vertex="1"><mxGeometry x="2380" y="870" width="350" height="200" as="geometry"/></mxCell><mxCell id="nvQL1UwgPIaU9dY_N4ge-9" value="" style="shape=tableRow;horizontal=0;startSize=0;swimlaneHead=0;swimlaneBody=0;strokeColor=inherit;top=0;left=0;bottom=0;right=0;collapsible=0;dropTarget=0;fillColor=none;points=[[0,0.5],[1,0.5]];portConstraint=eastwest;" parent="nvQL1UwgPIaU9dY_N4ge-8" vertex="1"><mxGeometry y="20" width="350" height="30" as="geometry"/></mxCell><mxCell id="nvQL1UwgPIaU9dY_N4ge-10" value="Question" style="shape=partialRectangle;html=1;whiteSpace=wrap;connectable=0;strokeColor=inherit;overflow=hidden;fillColor=none;top=0;left=0;bottom=0;right=0;pointerEvents=1;" parent="nvQL1UwgPIaU9dY_N4ge-9" vertex="1"><mxGeometry width="175" height="30" as="geometry"><mxRectangle width="175" height="30" as="alternateBounds"/></mxGeometry></mxCell><mxCell id="nvQL1UwgPIaU9dY_N4ge-12" value="points" style="shape=partialRectangle;html=1;whiteSpace=wrap;connectable=0;strokeColor=inherit;overflow=hidden;fillColor=none;top=0;left=0;bottom=0;right=0;pointerEvents=1;" parent="nvQL1UwgPIaU9dY_N4ge-9" vertex="1"><mxGeometry x="175" width="175" height="30" as="geometry"><mxRectangle width="175" height="30" as="alternateBounds"/></mxGeometry></mxCell><mxCell id="nvQL1UwgPIaU9dY_N4ge-14" style="shape=tableRow;horizontal=0;startSize=0;swimlaneHead=0;swimlaneBody=0;strokeColor=inherit;top=0;left=0;bottom=0;right=0;collapsible=0;dropTarget=0;fillColor=none;points=[[0,0.5],[1,0.5]];portConstraint=eastwest;" parent="nvQL1UwgPIaU9dY_N4ge-8" vertex="1"><mxGeometry y="50" width="350" height="30" as="geometry"/></mxCell><mxCell id="nvQL1UwgPIaU9dY_N4ge-15" value="Addition" style="shape=partialRectangle;html=1;whiteSpace=wrap;connectable=0;strokeColor=#82b366;overflow=hidden;fillColor=#d5e8d4;top=0;left=0;bottom=0;right=0;pointerEvents=1;" parent="nvQL1UwgPIaU9dY_N4ge-14" vertex="1"><mxGeometry width="175" height="30" as="geometry"><mxRectangle width="175" height="30" as="alternateBounds"/></mxGeometry></mxCell><mxCell id="nvQL1UwgPIaU9dY_N4ge-17" value="10" style="shape=partialRectangle;html=1;whiteSpace=wrap;connectable=0;strokeColor=#82b366;overflow=hidden;fillColor=#d5e8d4;top=0;left=0;bottom=0;right=0;pointerEvents=1;" parent="nvQL1UwgPIaU9dY_N4ge-14" vertex="1"><mxGeometry x="175" width="175" height="30" as="geometry"><mxRectangle width="175" height="30" as="alternateBounds"/></mxGeometry></mxCell><mxCell id="nvQL1UwgPIaU9dY_N4ge-29" style="shape=tableRow;horizontal=0;startSize=0;swimlaneHead=0;swimlaneBody=0;strokeColor=inherit;top=0;left=0;bottom=0;right=0;collapsible=0;dropTarget=0;fillColor=none;points=[[0,0.5],[1,0.5]];portConstraint=eastwest;" parent="nvQL1UwgPIaU9dY_N4ge-8" vertex="1"><mxGeometry y="80" width="350" height="30" as="geometry"/></mxCell><mxCell id="nvQL1UwgPIaU9dY_N4ge-30" value="Substraction" style="shape=partialRectangle;html=1;whiteSpace=wrap;connectable=0;strokeColor=inherit;overflow=hidden;fillColor=none;top=0;left=0;bottom=0;right=0;pointerEvents=1;" parent="nvQL1UwgPIaU9dY_N4ge-29" vertex="1"><mxGeometry width="175" height="30" as="geometry"><mxRectangle width="175" height="30" as="alternateBounds"/></mxGeometry></mxCell><mxCell id="nvQL1UwgPIaU9dY_N4ge-32" value="20" style="shape=partialRectangle;html=1;whiteSpace=wrap;connectable=0;strokeColor=inherit;overflow=hidden;fillColor=none;top=0;left=0;bottom=0;right=0;pointerEvents=1;" parent="nvQL1UwgPIaU9dY_N4ge-29" vertex="1"><mxGeometry x="175" width="175" height="30" as="geometry"><mxRectangle width="175" height="30" as="alternateBounds"/></mxGeometry></mxCell><mxCell id="nvQL1UwgPIaU9dY_N4ge-33" style="shape=tableRow;horizontal=0;startSize=0;swimlaneHead=0;swimlaneBody=0;strokeColor=inherit;top=0;left=0;bottom=0;right=0;collapsible=0;dropTarget=0;fillColor=none;points=[[0,0.5],[1,0.5]];portConstraint=eastwest;" parent="nvQL1UwgPIaU9dY_N4ge-8" vertex="1"><mxGeometry y="110" width="350" height="30" as="geometry"/></mxCell><mxCell id="nvQL1UwgPIaU9dY_N4ge-34" value="Area of a Triangle" style="shape=partialRectangle;html=1;whiteSpace=wrap;connectable=0;strokeColor=inherit;overflow=hidden;fillColor=none;top=0;left=0;bottom=0;right=0;pointerEvents=1;" parent="nvQL1UwgPIaU9dY_N4ge-33" vertex="1"><mxGeometry width="175" height="30" as="geometry"><mxRectangle width="175" height="30" as="alternateBounds"/></mxGeometry></mxCell><mxCell id="nvQL1UwgPIaU9dY_N4ge-36" value="error" style="shape=partialRectangle;html=1;whiteSpace=wrap;connectable=0;strokeColor=#b85450;overflow=hidden;fillColor=#f8cecc;top=0;left=0;bottom=0;right=0;pointerEvents=1;" parent="nvQL1UwgPIaU9dY_N4ge-33" vertex="1"><mxGeometry x="175" width="175" height="30" as="geometry"><mxRectangle width="175" height="30" as="alternateBounds"/></mxGeometry></mxCell><mxCell id="nvQL1UwgPIaU9dY_N4ge-37" style="shape=tableRow;horizontal=0;startSize=0;swimlaneHead=0;swimlaneBody=0;strokeColor=inherit;top=0;left=0;bottom=0;right=0;collapsible=0;dropTarget=0;fillColor=none;points=[[0,0.5],[1,0.5]];portConstraint=eastwest;" parent="nvQL1UwgPIaU9dY_N4ge-8" vertex="1"><mxGeometry y="140" width="350" height="30" as="geometry"/></mxCell><mxCell id="nvQL1UwgPIaU9dY_N4ge-38" style="shape=partialRectangle;html=1;whiteSpace=wrap;connectable=0;strokeColor=inherit;overflow=hidden;fillColor=none;top=0;left=0;bottom=0;right=0;pointerEvents=1;" parent="nvQL1UwgPIaU9dY_N4ge-37" vertex="1"><mxGeometry width="175" height="30" as="geometry"><mxRectangle width="175" height="30" as="alternateBounds"/></mxGeometry></mxCell><mxCell id="nvQL1UwgPIaU9dY_N4ge-40" style="shape=partialRectangle;html=1;whiteSpace=wrap;connectable=0;strokeColor=inherit;overflow=hidden;fillColor=none;top=0;left=0;bottom=0;right=0;pointerEvents=1;" parent="nvQL1UwgPIaU9dY_N4ge-37" vertex="1"><mxGeometry x="175" width="175" height="30" as="geometry"><mxRectangle width="175" height="30" as="alternateBounds"/></mxGeometry></mxCell><mxCell id="nvQL1UwgPIaU9dY_N4ge-41" style="shape=tableRow;horizontal=0;startSize=0;swimlaneHead=0;swimlaneBody=0;strokeColor=inherit;top=0;left=0;bottom=0;right=0;collapsible=0;dropTarget=0;fillColor=none;points=[[0,0.5],[1,0.5]];portConstraint=eastwest;" parent="nvQL1UwgPIaU9dY_N4ge-8" vertex="1"><mxGeometry y="170" width="350" height="30" as="geometry"/></mxCell><mxCell id="nvQL1UwgPIaU9dY_N4ge-42" style="shape=partialRectangle;html=1;whiteSpace=wrap;connectable=0;strokeColor=inherit;overflow=hidden;fillColor=none;top=0;left=0;bottom=0;right=0;pointerEvents=1;" parent="nvQL1UwgPIaU9dY_N4ge-41" vertex="1"><mxGeometry width="175" height="30" as="geometry"><mxRectangle width="175" height="30" as="alternateBounds"/></mxGeometry></mxCell><mxCell id="nvQL1UwgPIaU9dY_N4ge-44" style="shape=partialRectangle;html=1;whiteSpace=wrap;connectable=0;strokeColor=inherit;overflow=hidden;fillColor=none;top=0;left=0;bottom=0;right=0;pointerEvents=1;" parent="nvQL1UwgPIaU9dY_N4ge-41" vertex="1"><mxGeometry x="175" width="175" height="30" as="geometry"><mxRectangle width="175" height="30" as="alternateBounds"/></mxGeometry></mxCell><mxCell id="nvQL1UwgPIaU9dY_N4ge-20" value="Criterias" style="shape=table;startSize=20;container=1;collapsible=0;childLayout=tableLayout;" parent="1" vertex="1"><mxGeometry x="3150" y="870" width="468" height="200" as="geometry"/></mxCell><mxCell id="nvQL1UwgPIaU9dY_N4ge-21" value="" style="shape=tableRow;horizontal=0;startSize=0;swimlaneHead=0;swimlaneBody=0;strokeColor=inherit;top=0;left=0;bottom=0;right=0;collapsible=0;dropTarget=0;fillColor=none;points=[[0,0.5],[1,0.5]];portConstraint=eastwest;" parent="nvQL1UwgPIaU9dY_N4ge-20" vertex="1"><mxGeometry y="20" width="468" height="44" as="geometry"/></mxCell><mxCell id="nvQL1UwgPIaU9dY_N4ge-22" value="Criteria" style="shape=partialRectangle;html=1;whiteSpace=wrap;connectable=0;strokeColor=inherit;overflow=hidden;fillColor=none;top=0;left=0;bottom=0;right=0;pointerEvents=1;" parent="nvQL1UwgPIaU9dY_N4ge-21" vertex="1"><mxGeometry width="118" height="44" as="geometry"><mxRectangle width="118" height="44" as="alternateBounds"/></mxGeometry></mxCell><mxCell id="nvQL1UwgPIaU9dY_N4ge-23" value="Description" style="shape=partialRectangle;html=1;whiteSpace=wrap;connectable=0;strokeColor=inherit;overflow=hidden;fillColor=none;top=0;left=0;bottom=0;right=0;pointerEvents=1;" parent="nvQL1UwgPIaU9dY_N4ge-21" vertex="1"><mxGeometry x="118" width="114" height="44" as="geometry"><mxRectangle width="114" height="44" as="alternateBounds"/></mxGeometry></mxCell><mxCell id="nvQL1UwgPIaU9dY_N4ge-24" value="Weight/Priority" style="shape=partialRectangle;html=1;whiteSpace=wrap;connectable=0;strokeColor=inherit;overflow=hidden;fillColor=none;top=0;left=0;bottom=0;right=0;pointerEvents=1;" parent="nvQL1UwgPIaU9dY_N4ge-21" vertex="1"><mxGeometry x="232" width="118" height="44" as="geometry"><mxRectangle width="118" height="44" as="alternateBounds"/></mxGeometry></mxCell><mxCell id="nvQL1UwgPIaU9dY_N4ge-56" value="Points" style="shape=partialRectangle;html=1;whiteSpace=wrap;connectable=0;strokeColor=inherit;overflow=hidden;fillColor=none;top=0;left=0;bottom=0;right=0;pointerEvents=1;" parent="nvQL1UwgPIaU9dY_N4ge-21" vertex="1"><mxGeometry x="350" width="118" height="44" as="geometry"><mxRectangle width="118" height="44" as="alternateBounds"/></mxGeometry></mxCell><mxCell id="nvQL1UwgPIaU9dY_N4ge-25" value="" style="shape=tableRow;horizontal=0;startSize=0;swimlaneHead=0;swimlaneBody=0;strokeColor=inherit;top=0;left=0;bottom=0;right=0;collapsible=0;dropTarget=0;fillColor=none;points=[[0,0.5],[1,0.5]];portConstraint=eastwest;" parent="nvQL1UwgPIaU9dY_N4ge-20" vertex="1"><mxGeometry y="64" width="468" height="47" as="geometry"/></mxCell><mxCell id="nvQL1UwgPIaU9dY_N4ge-26" value="Time" style="shape=partialRectangle;html=1;whiteSpace=wrap;connectable=0;strokeColor=inherit;overflow=hidden;fillColor=none;top=0;left=0;bottom=0;right=0;pointerEvents=1;" parent="nvQL1UwgPIaU9dY_N4ge-25" vertex="1"><mxGeometry width="118" height="47" as="geometry"><mxRectangle width="118" height="47" as="alternateBounds"/></mxGeometry></mxCell><mxCell id="nvQL1UwgPIaU9dY_N4ge-27" value="How long the student took to answer" style="shape=partialRectangle;html=1;whiteSpace=wrap;connectable=0;strokeColor=inherit;overflow=hidden;fillColor=none;top=0;left=0;bottom=0;right=0;pointerEvents=1;" parent="nvQL1UwgPIaU9dY_N4ge-25" vertex="1"><mxGeometry x="118" width="114" height="47" as="geometry"><mxRectangle width="114" height="47" as="alternateBounds"/></mxGeometry></mxCell><mxCell id="nvQL1UwgPIaU9dY_N4ge-28" value="0,5" style="shape=partialRectangle;html=1;whiteSpace=wrap;connectable=0;strokeColor=inherit;overflow=hidden;fillColor=none;top=0;left=0;bottom=0;right=0;pointerEvents=1;" parent="nvQL1UwgPIaU9dY_N4ge-25" vertex="1"><mxGeometry x="232" width="118" height="47" as="geometry"><mxRectangle width="118" height="47" as="alternateBounds"/></mxGeometry></mxCell><mxCell id="nvQL1UwgPIaU9dY_N4ge-57" value="5" style="shape=partialRectangle;html=1;whiteSpace=wrap;connectable=0;strokeColor=inherit;overflow=hidden;fillColor=none;top=0;left=0;bottom=0;right=0;pointerEvents=1;" parent="nvQL1UwgPIaU9dY_N4ge-25" vertex="1"><mxGeometry x="350" width="118" height="47" as="geometry"><mxRectangle width="118" height="47" as="alternateBounds"/></mxGeometry></mxCell><mxCell id="nvQL1UwgPIaU9dY_N4ge-45" style="shape=tableRow;horizontal=0;startSize=0;swimlaneHead=0;swimlaneBody=0;strokeColor=inherit;top=0;left=0;bottom=0;right=0;collapsible=0;dropTarget=0;fillColor=none;points=[[0,0.5],[1,0.5]];portConstraint=eastwest;" parent="nvQL1UwgPIaU9dY_N4ge-20" vertex="1"><mxGeometry y="111" width="468" height="45" as="geometry"/></mxCell><mxCell id="nvQL1UwgPIaU9dY_N4ge-46" value="Correctness" style="shape=partialRectangle;html=1;whiteSpace=wrap;connectable=0;strokeColor=inherit;overflow=hidden;fillColor=none;top=0;left=0;bottom=0;right=0;pointerEvents=1;" parent="nvQL1UwgPIaU9dY_N4ge-45" vertex="1"><mxGeometry width="118" height="45" as="geometry"><mxRectangle width="118" height="45" as="alternateBounds"/></mxGeometry></mxCell><mxCell id="nvQL1UwgPIaU9dY_N4ge-47" value="Was it correct" style="shape=partialRectangle;html=1;whiteSpace=wrap;connectable=0;strokeColor=inherit;overflow=hidden;fillColor=none;top=0;left=0;bottom=0;right=0;pointerEvents=1;" parent="nvQL1UwgPIaU9dY_N4ge-45" vertex="1"><mxGeometry x="118" width="114" height="45" as="geometry"><mxRectangle width="114" height="45" as="alternateBounds"/></mxGeometry></mxCell><mxCell id="nvQL1UwgPIaU9dY_N4ge-48" value="0.25" style="shape=partialRectangle;html=1;whiteSpace=wrap;connectable=0;strokeColor=inherit;overflow=hidden;fillColor=none;top=0;left=0;bottom=0;right=0;pointerEvents=1;" parent="nvQL1UwgPIaU9dY_N4ge-45" vertex="1"><mxGeometry x="232" width="118" height="45" as="geometry"><mxRectangle width="118" height="45" as="alternateBounds"/></mxGeometry></mxCell><mxCell id="nvQL1UwgPIaU9dY_N4ge-58" value="2.5" style="shape=partialRectangle;html=1;whiteSpace=wrap;connectable=0;strokeColor=inherit;overflow=hidden;fillColor=none;top=0;left=0;bottom=0;right=0;pointerEvents=1;" parent="nvQL1UwgPIaU9dY_N4ge-45" vertex="1"><mxGeometry x="350" width="118" height="45" as="geometry"><mxRectangle width="118" height="45" as="alternateBounds"/></mxGeometry></mxCell><mxCell id="nvQL1UwgPIaU9dY_N4ge-49" style="shape=tableRow;horizontal=0;startSize=0;swimlaneHead=0;swimlaneBody=0;strokeColor=inherit;top=0;left=0;bottom=0;right=0;collapsible=0;dropTarget=0;fillColor=none;points=[[0,0.5],[1,0.5]];portConstraint=eastwest;" parent="nvQL1UwgPIaU9dY_N4ge-20" vertex="1"><mxGeometry y="156" width="468" height="44" as="geometry"/></mxCell><mxCell id="nvQL1UwgPIaU9dY_N4ge-50" value="Whatever else" style="shape=partialRectangle;html=1;whiteSpace=wrap;connectable=0;strokeColor=inherit;overflow=hidden;fillColor=none;top=0;left=0;bottom=0;right=0;pointerEvents=1;" parent="nvQL1UwgPIaU9dY_N4ge-49" vertex="1"><mxGeometry width="118" height="44" as="geometry"><mxRectangle width="118" height="44" as="alternateBounds"/></mxGeometry></mxCell><mxCell id="nvQL1UwgPIaU9dY_N4ge-51" value="Am I in a good mood" style="shape=partialRectangle;html=1;whiteSpace=wrap;connectable=0;strokeColor=inherit;overflow=hidden;fillColor=none;top=0;left=0;bottom=0;right=0;pointerEvents=1;" parent="nvQL1UwgPIaU9dY_N4ge-49" vertex="1"><mxGeometry x="118" width="114" height="44" as="geometry"><mxRectangle width="114" height="44" as="alternateBounds"/></mxGeometry></mxCell><mxCell id="nvQL1UwgPIaU9dY_N4ge-52" value="0.3" style="shape=partialRectangle;html=1;whiteSpace=wrap;connectable=0;strokeColor=#b85450;overflow=hidden;fillColor=#f8cecc;top=0;left=0;bottom=0;right=0;pointerEvents=1;" parent="nvQL1UwgPIaU9dY_N4ge-49" vertex="1"><mxGeometry x="232" width="118" height="44" as="geometry"><mxRectangle width="118" height="44" as="alternateBounds"/></mxGeometry></mxCell><mxCell id="nvQL1UwgPIaU9dY_N4ge-59" value="Error" style="shape=partialRectangle;html=1;whiteSpace=wrap;connectable=0;strokeColor=#b85450;overflow=hidden;fillColor=#f8cecc;top=0;left=0;bottom=0;right=0;pointerEvents=1;" parent="nvQL1UwgPIaU9dY_N4ge-49" vertex="1"><mxGeometry x="350" width="118" height="44" as="geometry"><mxRectangle width="118" height="44" as="alternateBounds"/></mxGeometry></mxCell><mxCell id="nvQL1UwgPIaU9dY_N4ge-53" value="Question Text" style="shape=table;startSize=20;container=1;collapsible=0;childLayout=tableLayout;" parent="1" vertex="1"><mxGeometry x="2750" y="870" width="380" height="200" as="geometry"/></mxCell><mxCell id="nvQL1UwgPIaU9dY_N4ge-54" value="" style="shape=tableRow;horizontal=0;startSize=0;swimlaneHead=0;swimlaneBody=0;strokeColor=inherit;top=0;left=0;bottom=0;right=0;collapsible=0;dropTarget=0;fillColor=none;points=[[0,0.5],[1,0.5]];portConstraint=eastwest;" parent="nvQL1UwgPIaU9dY_N4ge-53" vertex="1"><mxGeometry y="20" width="380" height="180" as="geometry"/></mxCell><mxCell id="nvQL1UwgPIaU9dY_N4ge-55" value="What is 1+1?" style="shape=partialRectangle;html=1;whiteSpace=wrap;connectable=0;strokeColor=inherit;overflow=hidden;fillColor=none;top=0;left=0;bottom=0;right=0;pointerEvents=1;" parent="nvQL1UwgPIaU9dY_N4ge-54" vertex="1"><mxGeometry width="380" height="180" as="geometry"><mxRectangle width="380" height="180" as="alternateBounds"/></mxGeometry></mxCell><mxCell id="nvQL1UwgPIaU9dY_N4ge-60" value="add" style="rounded=0;whiteSpace=wrap;html=1;" parent="1" vertex="1"><mxGeometry x="2600" y="780" width="60" height="30" as="geometry"/></mxCell><mxCell id="nvQL1UwgPIaU9dY_N4ge-61" value="remove" style="rounded=0;whiteSpace=wrap;html=1;" parent="1" vertex="1"><mxGeometry x="2670" y="780" width="60" height="30" as="geometry"/></mxCell><mxCell id="nvQL1UwgPIaU9dY_N4ge-62" value="" style="triangle;whiteSpace=wrap;html=1;rotation=90;" parent="1" vertex="1"><mxGeometry x="2560.5" y="784" width="16" height="23" as="geometry"/></mxCell><mxCell id="nvQL1UwgPIaU9dY_N4ge-64" value="Professor" style="rounded=0;whiteSpace=wrap;html=1;" parent="1" vertex="1"><mxGeometry x="3330" y="779.25" width="210" height="61.5" as="geometry"/></mxCell><mxCell id="nvQL1UwgPIaU9dY_N4ge-65" value="logout" style="rounded=0;whiteSpace=wrap;html=1;" parent="1" vertex="1"><mxGeometry x="3550" y="778.5" width="70" height="61.5" as="geometry"/></mxCell><mxCell id="nvQL1UwgPIaU9dY_N4ge-66" value="" style="rounded=0;whiteSpace=wrap;html=1;fillColor=#d5e8d4;strokeColor=#82b366;" parent="1" vertex="1"><mxGeometry x="3316" y="530" width="120" height="30" as="geometry"/></mxCell><mxCell id="nvQL1UwgPIaU9dY_N4ge-67" value="" style="rounded=0;whiteSpace=wrap;html=1;fillColor=#f8cecc;strokeColor=#b85450;" parent="1" vertex="1"><mxGeometry x="3316" y="570" width="120" height="30" as="geometry"/></mxCell><mxCell id="nvQL1UwgPIaU9dY_N4ge-68" value="Selected from Table (clicked)" style="text;html=1;strokeColor=none;fillColor=none;align=center;verticalAlign=middle;whiteSpace=wrap;rounded=0;" parent="1" vertex="1"><mxGeometry x="3446" y="530" width="172" height="30" as="geometry"/></mxCell><mxCell id="nvQL1UwgPIaU9dY_N4ge-69" value="Should notify error and disable saving" style="text;html=1;strokeColor=none;fillColor=none;align=center;verticalAlign=middle;whiteSpace=wrap;rounded=0;" parent="1" vertex="1"><mxGeometry x="3446" y="570" width="172" height="30" as="geometry"/></mxCell><mxCell id="rcLctUyFHN6urtT2d6Bm-1" value="Maybe a separate UI to handle Subjects and Topics" style="shape=callout;whiteSpace=wrap;html=1;perimeter=calloutPerimeter;position2=0.33;" parent="1" vertex="1"><mxGeometry x="2650" y="590" width="210" height="175" as="geometry"/></mxCell><mxCell id="rcLctUyFHN6urtT2d6Bm-2" value="Questions" style="shape=table;startSize=20;container=1;collapsible=0;childLayout=tableLayout;" parent="1" vertex="1"><mxGeometry x="2380" y="1160" width="340" height="200" as="geometry"/></mxCell><mxCell id="rcLctUyFHN6urtT2d6Bm-3" value="" style="shape=tableRow;horizontal=0;startSize=0;swimlaneHead=0;swimlaneBody=0;strokeColor=inherit;top=0;left=0;bottom=0;right=0;collapsible=0;dropTarget=0;fillColor=none;points=[[0,0.5],[1,0.5]];portConstraint=eastwest;" parent="rcLctUyFHN6urtT2d6Bm-2" vertex="1"><mxGeometry y="20" width="340" height="30" as="geometry"/></mxCell><mxCell id="rcLctUyFHN6urtT2d6Bm-4" value="Question" style="shape=partialRectangle;html=1;whiteSpace=wrap;connectable=0;strokeColor=inherit;overflow=hidden;fillColor=none;top=0;left=0;bottom=0;right=0;pointerEvents=1;" parent="rcLctUyFHN6urtT2d6Bm-3" vertex="1"><mxGeometry width="114" height="30" as="geometry"><mxRectangle width="114" height="30" as="alternateBounds"/></mxGeometry></mxCell><mxCell id="rcLctUyFHN6urtT2d6Bm-5" value="points" style="shape=partialRectangle;html=1;whiteSpace=wrap;connectable=0;strokeColor=inherit;overflow=hidden;fillColor=none;top=0;left=0;bottom=0;right=0;pointerEvents=1;" parent="rcLctUyFHN6urtT2d6Bm-3" vertex="1"><mxGeometry x="114" width="112" height="30" as="geometry"><mxRectangle width="112" height="30" as="alternateBounds"/></mxGeometry></mxCell><mxCell id="rcLctUyFHN6urtT2d6Bm-45" value="achieved" style="shape=partialRectangle;html=1;whiteSpace=wrap;connectable=0;strokeColor=inherit;overflow=hidden;fillColor=none;top=0;left=0;bottom=0;right=0;pointerEvents=1;" parent="rcLctUyFHN6urtT2d6Bm-3" vertex="1"><mxGeometry x="226" width="114" height="30" as="geometry"><mxRectangle width="114" height="30" as="alternateBounds"/></mxGeometry></mxCell><mxCell id="rcLctUyFHN6urtT2d6Bm-6" style="shape=tableRow;horizontal=0;startSize=0;swimlaneHead=0;swimlaneBody=0;strokeColor=inherit;top=0;left=0;bottom=0;right=0;collapsible=0;dropTarget=0;fillColor=none;points=[[0,0.5],[1,0.5]];portConstraint=eastwest;" parent="rcLctUyFHN6urtT2d6Bm-2" vertex="1"><mxGeometry y="50" width="340" height="30" as="geometry"/></mxCell><mxCell id="rcLctUyFHN6urtT2d6Bm-7" value="Addition" style="shape=partialRectangle;html=1;whiteSpace=wrap;connectable=0;strokeColor=#82b366;overflow=hidden;fillColor=#d5e8d4;top=0;left=0;bottom=0;right=0;pointerEvents=1;" parent="rcLctUyFHN6urtT2d6Bm-6" vertex="1"><mxGeometry width="114" height="30" as="geometry"><mxRectangle width="114" height="30" as="alternateBounds"/></mxGeometry></mxCell><mxCell id="rcLctUyFHN6urtT2d6Bm-8" value="10" style="shape=partialRectangle;html=1;whiteSpace=wrap;connectable=0;strokeColor=#82b366;overflow=hidden;fillColor=#d5e8d4;top=0;left=0;bottom=0;right=0;pointerEvents=1;" parent="rcLctUyFHN6urtT2d6Bm-6" vertex="1"><mxGeometry x="114" width="112" height="30" as="geometry"><mxRectangle width="112" height="30" as="alternateBounds"/></mxGeometry></mxCell><mxCell id="rcLctUyFHN6urtT2d6Bm-46" value="7.5" style="shape=partialRectangle;html=1;whiteSpace=wrap;connectable=0;strokeColor=#82b366;overflow=hidden;fillColor=#d5e8d4;top=0;left=0;bottom=0;right=0;pointerEvents=1;" parent="rcLctUyFHN6urtT2d6Bm-6" vertex="1"><mxGeometry x="226" width="114" height="30" as="geometry"><mxRectangle width="114" height="30" as="alternateBounds"/></mxGeometry></mxCell><mxCell id="rcLctUyFHN6urtT2d6Bm-9" style="shape=tableRow;horizontal=0;startSize=0;swimlaneHead=0;swimlaneBody=0;strokeColor=inherit;top=0;left=0;bottom=0;right=0;collapsible=0;dropTarget=0;fillColor=none;points=[[0,0.5],[1,0.5]];portConstraint=eastwest;" parent="rcLctUyFHN6urtT2d6Bm-2" vertex="1"><mxGeometry y="80" width="340" height="30" as="geometry"/></mxCell><mxCell id="rcLctUyFHN6urtT2d6Bm-10" value="" style="shape=partialRectangle;html=1;whiteSpace=wrap;connectable=0;strokeColor=inherit;overflow=hidden;fillColor=none;top=0;left=0;bottom=0;right=0;pointerEvents=1;" parent="rcLctUyFHN6urtT2d6Bm-9" vertex="1"><mxGeometry width="114" height="30" as="geometry"><mxRectangle width="114" height="30" as="alternateBounds"/></mxGeometry></mxCell><mxCell id="rcLctUyFHN6urtT2d6Bm-11" value="" style="shape=partialRectangle;html=1;whiteSpace=wrap;connectable=0;strokeColor=inherit;overflow=hidden;fillColor=none;top=0;left=0;bottom=0;right=0;pointerEvents=1;" parent="rcLctUyFHN6urtT2d6Bm-9" vertex="1"><mxGeometry x="114" width="112" height="30" as="geometry"><mxRectangle width="112" height="30" as="alternateBounds"/></mxGeometry></mxCell><mxCell id="rcLctUyFHN6urtT2d6Bm-47" style="shape=partialRectangle;html=1;whiteSpace=wrap;connectable=0;strokeColor=inherit;overflow=hidden;fillColor=none;top=0;left=0;bottom=0;right=0;pointerEvents=1;" parent="rcLctUyFHN6urtT2d6Bm-9" vertex="1"><mxGeometry x="226" width="114" height="30" as="geometry"><mxRectangle width="114" height="30" as="alternateBounds"/></mxGeometry></mxCell><mxCell id="rcLctUyFHN6urtT2d6Bm-12" style="shape=tableRow;horizontal=0;startSize=0;swimlaneHead=0;swimlaneBody=0;strokeColor=inherit;top=0;left=0;bottom=0;right=0;collapsible=0;dropTarget=0;fillColor=none;points=[[0,0.5],[1,0.5]];portConstraint=eastwest;" parent="rcLctUyFHN6urtT2d6Bm-2" vertex="1"><mxGeometry y="110" width="340" height="30" as="geometry"/></mxCell><mxCell id="rcLctUyFHN6urtT2d6Bm-13" value="" style="shape=partialRectangle;html=1;whiteSpace=wrap;connectable=0;strokeColor=inherit;overflow=hidden;fillColor=none;top=0;left=0;bottom=0;right=0;pointerEvents=1;" parent="rcLctUyFHN6urtT2d6Bm-12" vertex="1"><mxGeometry width="114" height="30" as="geometry"><mxRectangle width="114" height="30" as="alternateBounds"/></mxGeometry></mxCell><mxCell id="rcLctUyFHN6urtT2d6Bm-14" value="" style="shape=partialRectangle;html=1;whiteSpace=wrap;connectable=0;overflow=hidden;top=0;left=0;bottom=0;right=0;pointerEvents=1;" parent="rcLctUyFHN6urtT2d6Bm-12" vertex="1"><mxGeometry x="114" width="112" height="30" as="geometry"><mxRectangle width="112" height="30" as="alternateBounds"/></mxGeometry></mxCell><mxCell id="rcLctUyFHN6urtT2d6Bm-48" style="shape=partialRectangle;html=1;whiteSpace=wrap;connectable=0;overflow=hidden;top=0;left=0;bottom=0;right=0;pointerEvents=1;" parent="rcLctUyFHN6urtT2d6Bm-12" vertex="1"><mxGeometry x="226" width="114" height="30" as="geometry"><mxRectangle width="114" height="30" as="alternateBounds"/></mxGeometry></mxCell><mxCell id="rcLctUyFHN6urtT2d6Bm-15" style="shape=tableRow;horizontal=0;startSize=0;swimlaneHead=0;swimlaneBody=0;strokeColor=inherit;top=0;left=0;bottom=0;right=0;collapsible=0;dropTarget=0;fillColor=none;points=[[0,0.5],[1,0.5]];portConstraint=eastwest;" parent="rcLctUyFHN6urtT2d6Bm-2" vertex="1"><mxGeometry y="140" width="340" height="30" as="geometry"/></mxCell><mxCell id="rcLctUyFHN6urtT2d6Bm-16" style="shape=partialRectangle;html=1;whiteSpace=wrap;connectable=0;strokeColor=inherit;overflow=hidden;fillColor=none;top=0;left=0;bottom=0;right=0;pointerEvents=1;" parent="rcLctUyFHN6urtT2d6Bm-15" vertex="1"><mxGeometry width="114" height="30" as="geometry"><mxRectangle width="114" height="30" as="alternateBounds"/></mxGeometry></mxCell><mxCell id="rcLctUyFHN6urtT2d6Bm-17" style="shape=partialRectangle;html=1;whiteSpace=wrap;connectable=0;strokeColor=inherit;overflow=hidden;fillColor=none;top=0;left=0;bottom=0;right=0;pointerEvents=1;" parent="rcLctUyFHN6urtT2d6Bm-15" vertex="1"><mxGeometry x="114" width="112" height="30" as="geometry"><mxRectangle width="112" height="30" as="alternateBounds"/></mxGeometry></mxCell><mxCell id="rcLctUyFHN6urtT2d6Bm-49" style="shape=partialRectangle;html=1;whiteSpace=wrap;connectable=0;strokeColor=inherit;overflow=hidden;fillColor=none;top=0;left=0;bottom=0;right=0;pointerEvents=1;" parent="rcLctUyFHN6urtT2d6Bm-15" vertex="1"><mxGeometry x="226" width="114" height="30" as="geometry"><mxRectangle width="114" height="30" as="alternateBounds"/></mxGeometry></mxCell><mxCell id="rcLctUyFHN6urtT2d6Bm-18" style="shape=tableRow;horizontal=0;startSize=0;swimlaneHead=0;swimlaneBody=0;strokeColor=inherit;top=0;left=0;bottom=0;right=0;collapsible=0;dropTarget=0;fillColor=none;points=[[0,0.5],[1,0.5]];portConstraint=eastwest;" parent="rcLctUyFHN6urtT2d6Bm-2" vertex="1"><mxGeometry y="170" width="340" height="30" as="geometry"/></mxCell><mxCell id="rcLctUyFHN6urtT2d6Bm-19" style="shape=partialRectangle;html=1;whiteSpace=wrap;connectable=0;strokeColor=inherit;overflow=hidden;fillColor=none;top=0;left=0;bottom=0;right=0;pointerEvents=1;" parent="rcLctUyFHN6urtT2d6Bm-18" vertex="1"><mxGeometry width="114" height="30" as="geometry"><mxRectangle width="114" height="30" as="alternateBounds"/></mxGeometry></mxCell><mxCell id="rcLctUyFHN6urtT2d6Bm-20" style="shape=partialRectangle;html=1;whiteSpace=wrap;connectable=0;strokeColor=inherit;overflow=hidden;fillColor=none;top=0;left=0;bottom=0;right=0;pointerEvents=1;" parent="rcLctUyFHN6urtT2d6Bm-18" vertex="1"><mxGeometry x="114" width="112" height="30" as="geometry"><mxRectangle width="112" height="30" as="alternateBounds"/></mxGeometry></mxCell><mxCell id="rcLctUyFHN6urtT2d6Bm-50" style="shape=partialRectangle;html=1;whiteSpace=wrap;connectable=0;strokeColor=inherit;overflow=hidden;fillColor=none;top=0;left=0;bottom=0;right=0;pointerEvents=1;" parent="rcLctUyFHN6urtT2d6Bm-18" vertex="1"><mxGeometry x="226" width="114" height="30" as="geometry"><mxRectangle width="114" height="30" as="alternateBounds"/></mxGeometry></mxCell><mxCell id="rcLctUyFHN6urtT2d6Bm-21" value="Criterias" style="shape=table;startSize=20;container=1;collapsible=0;childLayout=tableLayout;" parent="1" vertex="1"><mxGeometry x="3150" y="1160" width="490" height="250" as="geometry"/></mxCell><mxCell id="rcLctUyFHN6urtT2d6Bm-22" value="" style="shape=tableRow;horizontal=0;startSize=0;swimlaneHead=0;swimlaneBody=0;strokeColor=inherit;top=0;left=0;bottom=0;right=0;collapsible=0;dropTarget=0;fillColor=none;points=[[0,0.5],[1,0.5]];portConstraint=eastwest;" parent="rcLctUyFHN6urtT2d6Bm-21" vertex="1"><mxGeometry y="20" width="490" height="56" as="geometry"/></mxCell><mxCell id="rcLctUyFHN6urtT2d6Bm-51" value="Achieved" style="shape=partialRectangle;html=1;whiteSpace=wrap;connectable=0;strokeColor=inherit;overflow=hidden;fillColor=none;top=0;left=0;bottom=0;right=0;pointerEvents=1;" parent="rcLctUyFHN6urtT2d6Bm-22" vertex="1"><mxGeometry width="99" height="56" as="geometry"><mxRectangle width="99" height="56" as="alternateBounds"/></mxGeometry></mxCell><mxCell id="rcLctUyFHN6urtT2d6Bm-23" value="Criteria" style="shape=partialRectangle;html=1;whiteSpace=wrap;connectable=0;strokeColor=inherit;overflow=hidden;fillColor=none;top=0;left=0;bottom=0;right=0;pointerEvents=1;" parent="rcLctUyFHN6urtT2d6Bm-22" vertex="1"><mxGeometry x="99" width="98" height="56" as="geometry"><mxRectangle width="98" height="56" as="alternateBounds"/></mxGeometry></mxCell><mxCell id="rcLctUyFHN6urtT2d6Bm-24" value="Description" style="shape=partialRectangle;html=1;whiteSpace=wrap;connectable=0;strokeColor=inherit;overflow=hidden;fillColor=none;top=0;left=0;bottom=0;right=0;pointerEvents=1;" parent="rcLctUyFHN6urtT2d6Bm-22" vertex="1"><mxGeometry x="197" width="96" height="56" as="geometry"><mxRectangle width="96" height="56" as="alternateBounds"/></mxGeometry></mxCell><mxCell id="rcLctUyFHN6urtT2d6Bm-25" value="Weight/Priority" style="shape=partialRectangle;html=1;whiteSpace=wrap;connectable=0;strokeColor=inherit;overflow=hidden;fillColor=none;top=0;left=0;bottom=0;right=0;pointerEvents=1;" parent="rcLctUyFHN6urtT2d6Bm-22" vertex="1"><mxGeometry x="293" width="98" height="56" as="geometry"><mxRectangle width="98" height="56" as="alternateBounds"/></mxGeometry></mxCell><mxCell id="rcLctUyFHN6urtT2d6Bm-26" value="Points" style="shape=partialRectangle;html=1;whiteSpace=wrap;connectable=0;strokeColor=inherit;overflow=hidden;fillColor=none;top=0;left=0;bottom=0;right=0;pointerEvents=1;" parent="rcLctUyFHN6urtT2d6Bm-22" vertex="1"><mxGeometry x="391" width="99" height="56" as="geometry"><mxRectangle width="99" height="56" as="alternateBounds"/></mxGeometry></mxCell><mxCell id="rcLctUyFHN6urtT2d6Bm-27" value="" style="shape=tableRow;horizontal=0;startSize=0;swimlaneHead=0;swimlaneBody=0;strokeColor=inherit;top=0;left=0;bottom=0;right=0;collapsible=0;dropTarget=0;fillColor=none;points=[[0,0.5],[1,0.5]];portConstraint=eastwest;" parent="rcLctUyFHN6urtT2d6Bm-21" vertex="1"><mxGeometry y="76" width="490" height="60" as="geometry"/></mxCell><mxCell id="rcLctUyFHN6urtT2d6Bm-52" style="shape=partialRectangle;html=1;whiteSpace=wrap;connectable=0;strokeColor=inherit;overflow=hidden;fillColor=none;top=0;left=0;bottom=0;right=0;pointerEvents=1;" parent="rcLctUyFHN6urtT2d6Bm-27" vertex="1"><mxGeometry width="99" height="60" as="geometry"><mxRectangle width="99" height="60" as="alternateBounds"/></mxGeometry></mxCell><mxCell id="rcLctUyFHN6urtT2d6Bm-28" value="Time" style="shape=partialRectangle;html=1;whiteSpace=wrap;connectable=0;strokeColor=inherit;overflow=hidden;fillColor=none;top=0;left=0;bottom=0;right=0;pointerEvents=1;" parent="rcLctUyFHN6urtT2d6Bm-27" vertex="1"><mxGeometry x="99" width="98" height="60" as="geometry"><mxRectangle width="98" height="60" as="alternateBounds"/></mxGeometry></mxCell><mxCell id="rcLctUyFHN6urtT2d6Bm-29" value="How long the student took to answer" style="shape=partialRectangle;html=1;whiteSpace=wrap;connectable=0;strokeColor=inherit;overflow=hidden;fillColor=none;top=0;left=0;bottom=0;right=0;pointerEvents=1;" parent="rcLctUyFHN6urtT2d6Bm-27" vertex="1"><mxGeometry x="197" width="96" height="60" as="geometry"><mxRectangle width="96" height="60" as="alternateBounds"/></mxGeometry></mxCell><mxCell id="rcLctUyFHN6urtT2d6Bm-30" value="0,5" style="shape=partialRectangle;html=1;whiteSpace=wrap;connectable=0;strokeColor=inherit;overflow=hidden;fillColor=none;top=0;left=0;bottom=0;right=0;pointerEvents=1;" parent="rcLctUyFHN6urtT2d6Bm-27" vertex="1"><mxGeometry x="293" width="98" height="60" as="geometry"><mxRectangle width="98" height="60" as="alternateBounds"/></mxGeometry></mxCell><mxCell id="rcLctUyFHN6urtT2d6Bm-31" value="5" style="shape=partialRectangle;html=1;whiteSpace=wrap;connectable=0;strokeColor=inherit;overflow=hidden;fillColor=none;top=0;left=0;bottom=0;right=0;pointerEvents=1;" parent="rcLctUyFHN6urtT2d6Bm-27" vertex="1"><mxGeometry x="391" width="99" height="60" as="geometry"><mxRectangle width="99" height="60" as="alternateBounds"/></mxGeometry></mxCell><mxCell id="rcLctUyFHN6urtT2d6Bm-32" style="shape=tableRow;horizontal=0;startSize=0;swimlaneHead=0;swimlaneBody=0;strokeColor=inherit;top=0;left=0;bottom=0;right=0;collapsible=0;dropTarget=0;fillColor=none;points=[[0,0.5],[1,0.5]];portConstraint=eastwest;" parent="rcLctUyFHN6urtT2d6Bm-21" vertex="1"><mxGeometry y="136" width="490" height="58" as="geometry"/></mxCell><mxCell id="rcLctUyFHN6urtT2d6Bm-53" style="shape=partialRectangle;html=1;whiteSpace=wrap;connectable=0;strokeColor=inherit;overflow=hidden;fillColor=none;top=0;left=0;bottom=0;right=0;pointerEvents=1;" parent="rcLctUyFHN6urtT2d6Bm-32" vertex="1"><mxGeometry width="99" height="58" as="geometry"><mxRectangle width="99" height="58" as="alternateBounds"/></mxGeometry></mxCell><mxCell id="rcLctUyFHN6urtT2d6Bm-33" value="Correctness" style="shape=partialRectangle;html=1;whiteSpace=wrap;connectable=0;strokeColor=inherit;overflow=hidden;fillColor=none;top=0;left=0;bottom=0;right=0;pointerEvents=1;" parent="rcLctUyFHN6urtT2d6Bm-32" vertex="1"><mxGeometry x="99" width="98" height="58" as="geometry"><mxRectangle width="98" height="58" as="alternateBounds"/></mxGeometry></mxCell><mxCell id="rcLctUyFHN6urtT2d6Bm-34" value="Was it correct" style="shape=partialRectangle;html=1;whiteSpace=wrap;connectable=0;strokeColor=inherit;overflow=hidden;fillColor=none;top=0;left=0;bottom=0;right=0;pointerEvents=1;" parent="rcLctUyFHN6urtT2d6Bm-32" vertex="1"><mxGeometry x="197" width="96" height="58" as="geometry"><mxRectangle width="96" height="58" as="alternateBounds"/></mxGeometry></mxCell><mxCell id="rcLctUyFHN6urtT2d6Bm-35" value="0.25" style="shape=partialRectangle;html=1;whiteSpace=wrap;connectable=0;strokeColor=inherit;overflow=hidden;fillColor=none;top=0;left=0;bottom=0;right=0;pointerEvents=1;" parent="rcLctUyFHN6urtT2d6Bm-32" vertex="1"><mxGeometry x="293" width="98" height="58" as="geometry"><mxRectangle width="98" height="58" as="alternateBounds"/></mxGeometry></mxCell><mxCell id="rcLctUyFHN6urtT2d6Bm-36" value="2.5" style="shape=partialRectangle;html=1;whiteSpace=wrap;connectable=0;strokeColor=inherit;overflow=hidden;fillColor=none;top=0;left=0;bottom=0;right=0;pointerEvents=1;" parent="rcLctUyFHN6urtT2d6Bm-32" vertex="1"><mxGeometry x="391" width="99" height="58" as="geometry"><mxRectangle width="99" height="58" as="alternateBounds"/></mxGeometry></mxCell><mxCell id="rcLctUyFHN6urtT2d6Bm-37" style="shape=tableRow;horizontal=0;startSize=0;swimlaneHead=0;swimlaneBody=0;strokeColor=inherit;top=0;left=0;bottom=0;right=0;collapsible=0;dropTarget=0;fillColor=none;points=[[0,0.5],[1,0.5]];portConstraint=eastwest;" parent="rcLctUyFHN6urtT2d6Bm-21" vertex="1"><mxGeometry y="194" width="490" height="56" as="geometry"/></mxCell><mxCell id="rcLctUyFHN6urtT2d6Bm-54" style="shape=partialRectangle;html=1;whiteSpace=wrap;connectable=0;strokeColor=inherit;overflow=hidden;fillColor=none;top=0;left=0;bottom=0;right=0;pointerEvents=1;" parent="rcLctUyFHN6urtT2d6Bm-37" vertex="1"><mxGeometry width="99" height="56" as="geometry"><mxRectangle width="99" height="56" as="alternateBounds"/></mxGeometry></mxCell><mxCell id="rcLctUyFHN6urtT2d6Bm-38" value="Whatever else" style="shape=partialRectangle;html=1;whiteSpace=wrap;connectable=0;strokeColor=inherit;overflow=hidden;fillColor=none;top=0;left=0;bottom=0;right=0;pointerEvents=1;" parent="rcLctUyFHN6urtT2d6Bm-37" vertex="1"><mxGeometry x="99" width="98" height="56" as="geometry"><mxRectangle width="98" height="56" as="alternateBounds"/></mxGeometry></mxCell><mxCell id="rcLctUyFHN6urtT2d6Bm-39" value="Am I in a good mood" style="shape=partialRectangle;html=1;whiteSpace=wrap;connectable=0;strokeColor=inherit;overflow=hidden;fillColor=none;top=0;left=0;bottom=0;right=0;pointerEvents=1;" parent="rcLctUyFHN6urtT2d6Bm-37" vertex="1"><mxGeometry x="197" width="96" height="56" as="geometry"><mxRectangle width="96" height="56" as="alternateBounds"/></mxGeometry></mxCell><mxCell id="rcLctUyFHN6urtT2d6Bm-40" value="0.25" style="shape=partialRectangle;html=1;whiteSpace=wrap;connectable=0;overflow=hidden;top=0;left=0;bottom=0;right=0;pointerEvents=1;" parent="rcLctUyFHN6urtT2d6Bm-37" vertex="1"><mxGeometry x="293" width="98" height="56" as="geometry"><mxRectangle width="98" height="56" as="alternateBounds"/></mxGeometry></mxCell><mxCell id="rcLctUyFHN6urtT2d6Bm-41" value="2.5" style="shape=partialRectangle;html=1;whiteSpace=wrap;connectable=0;overflow=hidden;top=0;left=0;bottom=0;right=0;pointerEvents=1;" parent="rcLctUyFHN6urtT2d6Bm-37" vertex="1"><mxGeometry x="391" width="99" height="56" as="geometry"><mxRectangle width="99" height="56" as="alternateBounds"/></mxGeometry></mxCell><mxCell id="rcLctUyFHN6urtT2d6Bm-55" value="" style="dashed=0;labelPosition=right;align=left;shape=mxgraph.gmdl.checkbox;strokeColor=none;fillColor=#B0B0B0;strokeWidth=2;aspect=fixed;sketch=0;html=1;" parent="1" vertex="1"><mxGeometry x="3192" y="1252" width="16" height="16" as="geometry"/></mxCell><mxCell id="rcLctUyFHN6urtT2d6Bm-56" value="" style="dashed=0;labelPosition=right;align=left;shape=mxgraph.gmdl.checkbox;strokeColor=none;fillColor=#B0B0B0;strokeWidth=2;aspect=fixed;sketch=0;html=1;" parent="1" vertex="1"><mxGeometry x="3192" y="1314" width="16" height="16" as="geometry"/></mxCell><mxCell id="rcLctUyFHN6urtT2d6Bm-57" value="" style="dashed=0;labelPosition=right;align=left;shape=mxgraph.gmdl.checkbox;strokeColor=#666666;fillColor=none;strokeWidth=2;aspect=fixed;sketch=0;html=1;" parent="1" vertex="1"><mxGeometry x="3192" y="1370" width="16" height="16" as="geometry"/></mxCell><mxCell id="rcLctUyFHN6urtT2d6Bm-58" value="total points 10/70" style="rounded=0;whiteSpace=wrap;html=1;" parent="1" vertex="1"><mxGeometry x="2380" y="1380" width="100" height="30" as="geometry"/></mxCell><mxCell id="rcLctUyFHN6urtT2d6Bm-59" value="achieved 7.5/10" style="rounded=0;whiteSpace=wrap;html=1;" parent="1" vertex="1"><mxGeometry x="2497" y="1380" width="103" height="30" as="geometry"/></mxCell><mxCell id="rcLctUyFHN6urtT2d6Bm-60" value="grade xxx" style="rounded=0;whiteSpace=wrap;html=1;" parent="1" vertex="1"><mxGeometry x="2617" y="1380" width="103" height="30" as="geometry"/></mxCell><mxCell id="rcLctUyFHN6urtT2d6Bm-61" value="Professor Notes" style="shape=table;startSize=20;container=1;collapsible=0;childLayout=tableLayout;" parent="1" vertex="1"><mxGeometry x="2750" y="1160" width="380" height="250" as="geometry"/></mxCell><mxCell id="rcLctUyFHN6urtT2d6Bm-62" value="" style="shape=tableRow;horizontal=0;startSize=0;swimlaneHead=0;swimlaneBody=0;strokeColor=inherit;top=0;left=0;bottom=0;right=0;collapsible=0;dropTarget=0;fillColor=none;points=[[0,0.5],[1,0.5]];portConstraint=eastwest;" parent="rcLctUyFHN6urtT2d6Bm-61" vertex="1"><mxGeometry y="20" width="380" height="230" as="geometry"/></mxCell><mxCell id="rcLctUyFHN6urtT2d6Bm-63" value="What is 1+1?" style="shape=partialRectangle;html=1;whiteSpace=wrap;connectable=0;strokeColor=inherit;overflow=hidden;fillColor=none;top=0;left=0;bottom=0;right=0;pointerEvents=1;" parent="rcLctUyFHN6urtT2d6Bm-62" vertex="1"><mxGeometry width="380" height="230" as="geometry"><mxRectangle width="380" height="230" as="alternateBounds"/></mxGeometry></mxCell></root></mxGraphModel></diagram><diagram id="4V-HAIvKcDVImqInF1R1" name="exam_edit">&#xa;    <mxGraphModel dx="1247" dy="1116" grid="1" gridSize="10" guides="1" tooltips="1" connect="1" arrows="1" fold="1" page="1" pageScale="1" pageWidth="827" pageHeight="1169" math="0" shadow="0">&#xa;      <root>&#xa;        <mxCell id="0"/>&#xa;        <mxCell id="1" parent="0"/>&#xa;        <mxCell id="xBQX4rp4_EdVy9FYvm94-1" value="" style="rounded=0;whiteSpace=wrap;html=1;" vertex="1" parent="1">&#xa;          <mxGeometry x="1460" y="360" width="1560" height="680" as="geometry"/>&#xa;        </mxCell>&#xa;        <mxCell id="xBQX4rp4_EdVy9FYvm94-18" value="exams" style="rounded=0;whiteSpace=wrap;html=1;" vertex="1" parent="1">&#xa;          <mxGeometry x="1490" y="530" width="310" height="360" as="geometry"/>&#xa;        </mxCell>&#xa;        <mxCell id="d_Ja8LalmZ-7DyKt-wUn-1" value="exam" style="rounded=0;whiteSpace=wrap;html=1;" vertex="1" parent="1">&#xa;          <mxGeometry x="1490" y="490" width="310" height="30" as="geometry"/>&#xa;        </mxCell>&#xa;        <mxCell id="d_Ja8LalmZ-7DyKt-wUn-5" value="" style="group" vertex="1" connectable="0" parent="1">&#xa;          <mxGeometry x="1490" y="900" width="310" height="30" as="geometry"/>&#xa;        </mxCell>&#xa;        <mxCell id="d_Ja8LalmZ-7DyKt-wUn-2" value="add" style="rounded=0;whiteSpace=wrap;html=1;" vertex="1" parent="d_Ja8LalmZ-7DyKt-wUn-5">&#xa;          <mxGeometry width="93" height="30" as="geometry"/>&#xa;        </mxCell>&#xa;        <mxCell id="d_Ja8LalmZ-7DyKt-wUn-3" value="remove" style="rounded=0;whiteSpace=wrap;html=1;" vertex="1" parent="d_Ja8LalmZ-7DyKt-wUn-5">&#xa;          <mxGeometry x="108.5" width="93" height="30" as="geometry"/>&#xa;        </mxCell>&#xa;        <mxCell id="d_Ja8LalmZ-7DyKt-wUn-4" value="save" style="rounded=0;whiteSpace=wrap;html=1;" vertex="1" parent="d_Ja8LalmZ-7DyKt-wUn-5">&#xa;          <mxGeometry x="217" width="93" height="30" as="geometry"/>&#xa;        </mxCell>&#xa;        <mxCell id="r6LE6l2XGcS6ND3lysHv-1" value="subject" style="rounded=0;whiteSpace=wrap;html=1;" vertex="1" parent="1">&#xa;          <mxGeometry x="1830" y="530" width="660" height="60" as="geometry"/>&#xa;        </mxCell>&#xa;        <mxCell id="TZwZvR4L_zkRn_aE2FUo-1" value="" style="rounded=0;whiteSpace=wrap;html=1;" vertex="1" parent="1">&#xa;          <mxGeometry x="1830" y="620" width="660" height="280" as="geometry"/>&#xa;        </mxCell>&#xa;        <mxCell id="TZwZvR4L_zkRn_aE2FUo-4" value="" style="shape=table;startSize=0;container=1;collapsible=0;childLayout=tableLayout;" vertex="1" parent="1">&#xa;          <mxGeometry x="1860" y="660" width="170" height="200" as="geometry"/>&#xa;        </mxCell>&#xa;        <mxCell id="TZwZvR4L_zkRn_aE2FUo-5" value="" style="shape=tableRow;horizontal=0;startSize=0;swimlaneHead=0;swimlaneBody=0;strokeColor=inherit;top=0;left=0;bottom=0;right=0;collapsible=0;dropTarget=0;fillColor=none;points=[[0,0.5],[1,0.5]];portConstraint=eastwest;" vertex="1" parent="TZwZvR4L_zkRn_aE2FUo-4">&#xa;          <mxGeometry width="170" height="100" as="geometry"/>&#xa;        </mxCell>&#xa;        <mxCell id="TZwZvR4L_zkRn_aE2FUo-6" value="question" style="shape=partialRectangle;html=1;whiteSpace=wrap;connectable=0;strokeColor=inherit;overflow=hidden;fillColor=none;top=0;left=0;bottom=0;right=0;pointerEvents=1;" vertex="1" parent="TZwZvR4L_zkRn_aE2FUo-5">&#xa;          <mxGeometry width="57" height="100" as="geometry">&#xa;            <mxRectangle width="57" height="100" as="alternateBounds"/>&#xa;          </mxGeometry>&#xa;        </mxCell>&#xa;        <mxCell id="TZwZvR4L_zkRn_aE2FUo-7" value="points" style="shape=partialRectangle;html=1;whiteSpace=wrap;connectable=0;strokeColor=inherit;overflow=hidden;fillColor=none;top=0;left=0;bottom=0;right=0;pointerEvents=1;" vertex="1" parent="TZwZvR4L_zkRn_aE2FUo-5">&#xa;          <mxGeometry x="57" width="56" height="100" as="geometry">&#xa;            <mxRectangle width="56" height="100" as="alternateBounds"/>&#xa;          </mxGeometry>&#xa;        </mxCell>&#xa;        <mxCell id="TZwZvR4L_zkRn_aE2FUo-8" value="select" style="shape=partialRectangle;html=1;whiteSpace=wrap;connectable=0;strokeColor=inherit;overflow=hidden;fillColor=none;top=0;left=0;bottom=0;right=0;pointerEvents=1;" vertex="1" parent="TZwZvR4L_zkRn_aE2FUo-5">&#xa;          <mxGeometry x="113" width="57" height="100" as="geometry">&#xa;            <mxRectangle width="57" height="100" as="alternateBounds"/>&#xa;          </mxGeometry>&#xa;        </mxCell>&#xa;        <mxCell id="TZwZvR4L_zkRn_aE2FUo-9" value="" style="shape=tableRow;horizontal=0;startSize=0;swimlaneHead=0;swimlaneBody=0;strokeColor=inherit;top=0;left=0;bottom=0;right=0;collapsible=0;dropTarget=0;fillColor=none;points=[[0,0.5],[1,0.5]];portConstraint=eastwest;" vertex="1" parent="TZwZvR4L_zkRn_aE2FUo-4">&#xa;          <mxGeometry y="100" width="170" height="100" as="geometry"/>&#xa;        </mxCell>&#xa;        <mxCell id="TZwZvR4L_zkRn_aE2FUo-10" value="" style="shape=partialRectangle;html=1;whiteSpace=wrap;connectable=0;strokeColor=inherit;overflow=hidden;fillColor=none;top=0;left=0;bottom=0;right=0;pointerEvents=1;" vertex="1" parent="TZwZvR4L_zkRn_aE2FUo-9">&#xa;          <mxGeometry width="57" height="100" as="geometry">&#xa;            <mxRectangle width="57" height="100" as="alternateBounds"/>&#xa;          </mxGeometry>&#xa;        </mxCell>&#xa;        <mxCell id="TZwZvR4L_zkRn_aE2FUo-11" value="" style="shape=partialRectangle;html=1;whiteSpace=wrap;connectable=0;strokeColor=inherit;overflow=hidden;fillColor=none;top=0;left=0;bottom=0;right=0;pointerEvents=1;" vertex="1" parent="TZwZvR4L_zkRn_aE2FUo-9">&#xa;          <mxGeometry x="57" width="56" height="100" as="geometry">&#xa;            <mxRectangle width="56" height="100" as="alternateBounds"/>&#xa;          </mxGeometry>&#xa;        </mxCell>&#xa;        <mxCell id="TZwZvR4L_zkRn_aE2FUo-12" value="" style="shape=partialRectangle;html=1;whiteSpace=wrap;connectable=0;strokeColor=inherit;overflow=hidden;fillColor=none;top=0;left=0;bottom=0;right=0;pointerEvents=1;" vertex="1" parent="TZwZvR4L_zkRn_aE2FUo-9">&#xa;          <mxGeometry x="113" width="57" height="100" as="geometry">&#xa;            <mxRectangle width="57" height="100" as="alternateBounds"/>&#xa;          </mxGeometry>&#xa;        </mxCell>&#xa;        <mxCell id="TZwZvR4L_zkRn_aE2FUo-13" value="question text expanded" style="rounded=0;whiteSpace=wrap;html=1;" vertex="1" parent="1">&#xa;          <mxGeometry x="2040" y="660" width="400" height="200" as="geometry"/>&#xa;        </mxCell>&#xa;        <mxCell id="9qOKDsZSV194BnK6Rhs--1" value="selected questions table" style="rounded=0;whiteSpace=wrap;html=1;" vertex="1" parent="1">&#xa;          <mxGeometry x="2520" y="530" width="430" height="370" as="geometry"/>&#xa;        </mxCell>&#xa;      </root>&#xa;    </mxGraphModel>&#xa;  </diagram><diagram id="ojVVZmzdkX2uCbmlvV62" name="exam_start">&#xa;    <mxGraphModel dx="1247" dy="-53" grid="1" gridSize="10" guides="1" tooltips="1" connect="1" arrows="1" fold="1" page="1" pageScale="1" pageWidth="827" pageHeight="1169" math="0" shadow="0">&#xa;      <root>&#xa;        <mxCell id="0"/>&#xa;        <mxCell id="1" parent="0"/>&#xa;        <mxCell id="ctnR3alQgDTb88v6BrMV-1" value="" style="rounded=0;whiteSpace=wrap;html=1;" vertex="1" parent="1">&#xa;          <mxGeometry x="1420" y="1600" width="860" height="560" as="geometry"/>&#xa;        </mxCell>&#xa;        <mxCell id="ctnR3alQgDTb88v6BrMV-2" value="exam list" style="rounded=0;whiteSpace=wrap;html=1;" vertex="1" parent="1">&#xa;          <mxGeometry x="1450" y="1750" width="290" height="360" as="geometry"/>&#xa;        </mxCell>&#xa;        <mxCell id="ctnR3alQgDTb88v6BrMV-3" value="filter" style="rounded=0;whiteSpace=wrap;html=1;" vertex="1" parent="1">&#xa;          <mxGeometry x="1450" y="1640" width="290" height="90" as="geometry"/>&#xa;        </mxCell>&#xa;        <mxCell id="ctnR3alQgDTb88v6BrMV-4" value="we could use this to filter exams by subjects/semesters or sth similar" style="shape=callout;whiteSpace=wrap;html=1;perimeter=calloutPerimeter;position2=1;" vertex="1" parent="1">&#xa;          <mxGeometry x="1210" y="1520" width="200" height="130" as="geometry"/>&#xa;        </mxCell>&#xa;        <mxCell id="ctnR3alQgDTb88v6BrMV-8" value="date" style="rounded=0;whiteSpace=wrap;html=1;" vertex="1" parent="1">&#xa;          <mxGeometry x="1790" y="1754" width="120" height="60" as="geometry"/>&#xa;        </mxCell>&#xa;        <mxCell id="ctnR3alQgDTb88v6BrMV-9" value="matnr" style="rounded=0;whiteSpace=wrap;html=1;" vertex="1" parent="1">&#xa;          <mxGeometry x="1790" y="1830" width="120" height="60" as="geometry"/>&#xa;        </mxCell>&#xa;        <mxCell id="ctnR3alQgDTb88v6BrMV-10" value="start" style="rounded=0;whiteSpace=wrap;html=1;" vertex="1" parent="1">&#xa;          <mxGeometry x="1790" y="1910" width="120" height="60" as="geometry"/>&#xa;        </mxCell>&#xa;      </root>&#xa;    </mxGraphModel>&#xa;  </diagram><diagram id="TsGewRi0jFpPgbC0j-TK" name="runningexam">&#xa;    <mxGraphModel dx="1247" dy="-53" grid="1" gridSize="10" guides="1" tooltips="1" connect="1" arrows="1" fold="1" page="1" pageScale="1" pageWidth="827" pageHeight="1169" math="0" shadow="0">&#xa;      <root>&#xa;        <mxCell id="0"/>&#xa;        <mxCell id="1" parent="0"/>&#xa;        <mxCell id="l3pt4u1lnW5tPCwEf5Jy-1" value="" style="rounded=0;whiteSpace=wrap;html=1;" vertex="1" parent="1">&#xa;          <mxGeometry x="1560" y="1520" width="1560" height="680" as="geometry"/>&#xa;        </mxCell>&#xa;        <mxCell id="N2uEGhiz23mRwF9rgWo8-1" value="" style="rounded=0;whiteSpace=wrap;html=1;" vertex="1" parent="1">&#xa;          <mxGeometry x="1600" y="1700" width="210" height="440" as="geometry"/>&#xa;        </mxCell>&#xa;        <mxCell id="N2uEGhiz23mRwF9rgWo8-2" value="search question" style="rounded=0;whiteSpace=wrap;html=1;" vertex="1" parent="1">&#xa;          <mxGeometry x="1600" y="1660" width="210" height="30" as="geometry"/>&#xa;        </mxCell>&#xa;        <mxCell id="N2uEGhiz23mRwF9rgWo8-3" value="critera" style="rounded=0;whiteSpace=wrap;html=1;" vertex="1" parent="1">&#xa;          <mxGeometry x="1860" y="1990" width="350" height="60" as="geometry"/>&#xa;        </mxCell>&#xa;        <mxCell id="N2uEGhiz23mRwF9rgWo8-4" value="total points" style="rounded=0;whiteSpace=wrap;html=1;" vertex="1" parent="1">&#xa;          <mxGeometry x="1860" y="2080" width="160" height="60" as="geometry"/>&#xa;        </mxCell>&#xa;        <mxCell id="N2uEGhiz23mRwF9rgWo8-5" value="achieved points" style="rounded=0;whiteSpace=wrap;html=1;" vertex="1" parent="1">&#xa;          <mxGeometry x="2050" y="2080" width="160" height="60" as="geometry"/>&#xa;        </mxCell>&#xa;        <mxCell id="N2uEGhiz23mRwF9rgWo8-6" value="" style="group" vertex="1" connectable="0" parent="1">&#xa;          <mxGeometry x="1600" y="1610" width="210" height="40" as="geometry"/>&#xa;        </mxCell>&#xa;        <mxCell id="l3pt4u1lnW5tPCwEf5Jy-2" value="topic" style="rounded=0;whiteSpace=wrap;html=1;" vertex="1" parent="N2uEGhiz23mRwF9rgWo8-6">&#xa;          <mxGeometry x="30.731707317073173" width="148.53658536585368" height="40" as="geometry"/>&#xa;        </mxCell>&#xa;        <mxCell id="l3pt4u1lnW5tPCwEf5Jy-3" value="next" style="rounded=0;whiteSpace=wrap;html=1;" vertex="1" parent="N2uEGhiz23mRwF9rgWo8-6">&#xa;          <mxGeometry x="184.39024390243904" width="25.60975609756098" height="40" as="geometry"/>&#xa;        </mxCell>&#xa;        <mxCell id="l3pt4u1lnW5tPCwEf5Jy-4" value="prev" style="rounded=0;whiteSpace=wrap;html=1;" vertex="1" parent="N2uEGhiz23mRwF9rgWo8-6">&#xa;          <mxGeometry width="25.60975609756098" height="40" as="geometry"/>&#xa;        </mxCell>&#xa;        <mxCell id="N2uEGhiz23mRwF9rgWo8-8" value="professor notes" style="rounded=0;whiteSpace=wrap;html=1;" vertex="1" parent="1">&#xa;          <mxGeometry x="1860" y="1840" width="350" height="130" as="geometry"/>&#xa;        </mxCell>&#xa;        <mxCell id="N2uEGhiz23mRwF9rgWo8-9" value="" style="shape=internalStorage;whiteSpace=wrap;html=1;backgroundOutline=1;dx=40;dy=30;" vertex="1" parent="1">&#xa;          <mxGeometry x="1620" y="1740" width="160" height="350" as="geometry"/>&#xa;        </mxCell>&#xa;        <mxCell id="N2uEGhiz23mRwF9rgWo8-10" value="asked" style="text;html=1;strokeColor=none;fillColor=none;align=center;verticalAlign=middle;whiteSpace=wrap;rounded=0;" vertex="1" parent="1">&#xa;          <mxGeometry x="1610" y="1739" width="60" height="30" as="geometry"/>&#xa;        </mxCell>&#xa;        <mxCell id="N2uEGhiz23mRwF9rgWo8-11" value="question text" style="text;html=1;strokeColor=none;fillColor=none;align=center;verticalAlign=middle;whiteSpace=wrap;rounded=0;" vertex="1" parent="1">&#xa;          <mxGeometry x="1690" y="1739" width="60" height="30" as="geometry"/>&#xa;        </mxCell>&#xa;        <mxCell id="N2uEGhiz23mRwF9rgWo8-12" value="ideally questions would hve a short description which can bse used to identify them" style="shape=callout;whiteSpace=wrap;html=1;perimeter=calloutPerimeter;position2=1;" vertex="1" parent="1">&#xa;          <mxGeometry x="1330" y="1669" width="240" height="100" as="geometry"/>&#xa;        </mxCell>&#xa;        <mxCell id="N2uEGhiz23mRwF9rgWo8-14" value="question text full" style="rounded=0;whiteSpace=wrap;html=1;" vertex="1" parent="1">&#xa;          <mxGeometry x="1850" y="1639" width="360" height="171" as="geometry"/>&#xa;        </mxCell>&#xa;        <mxCell id="HaFlmJwg5k8W12FHYq5k-1" value="" style="shape=table;startSize=0;container=1;collapsible=0;childLayout=tableLayout;" vertex="1" parent="1">&#xa;          <mxGeometry x="2280" y="1639" width="730" height="140" as="geometry"/>&#xa;        </mxCell>&#xa;        <mxCell id="HaFlmJwg5k8W12FHYq5k-2" value="" style="shape=tableRow;horizontal=0;startSize=0;swimlaneHead=0;swimlaneBody=0;strokeColor=inherit;top=0;left=0;bottom=0;right=0;collapsible=0;dropTarget=0;fillColor=none;points=[[0,0.5],[1,0.5]];portConstraint=eastwest;" vertex="1" parent="HaFlmJwg5k8W12FHYq5k-1">&#xa;          <mxGeometry width="730" height="70" as="geometry"/>&#xa;        </mxCell>&#xa;        <mxCell id="HaFlmJwg5k8W12FHYq5k-3" value="question" style="shape=partialRectangle;html=1;whiteSpace=wrap;connectable=0;strokeColor=inherit;overflow=hidden;fillColor=none;top=0;left=0;bottom=0;right=0;pointerEvents=1;" vertex="1" parent="HaFlmJwg5k8W12FHYq5k-2">&#xa;          <mxGeometry width="146" height="70" as="geometry">&#xa;            <mxRectangle width="146" height="70" as="alternateBounds"/>&#xa;          </mxGeometry>&#xa;        </mxCell>&#xa;        <mxCell id="HaFlmJwg5k8W12FHYq5k-4" value="topic" style="shape=partialRectangle;html=1;whiteSpace=wrap;connectable=0;strokeColor=inherit;overflow=hidden;fillColor=none;top=0;left=0;bottom=0;right=0;pointerEvents=1;" vertex="1" parent="HaFlmJwg5k8W12FHYq5k-2">&#xa;          <mxGeometry x="146" width="146" height="70" as="geometry">&#xa;            <mxRectangle width="146" height="70" as="alternateBounds"/>&#xa;          </mxGeometry>&#xa;        </mxCell>&#xa;        <mxCell id="HaFlmJwg5k8W12FHYq5k-5" value="professor notes" style="shape=partialRectangle;html=1;whiteSpace=wrap;connectable=0;strokeColor=inherit;overflow=hidden;fillColor=none;top=0;left=0;bottom=0;right=0;pointerEvents=1;" vertex="1" parent="HaFlmJwg5k8W12FHYq5k-2">&#xa;          <mxGeometry x="292" width="146" height="70" as="geometry">&#xa;            <mxRectangle width="146" height="70" as="alternateBounds"/>&#xa;          </mxGeometry>&#xa;        </mxCell>&#xa;        <mxCell id="HaFlmJwg5k8W12FHYq5k-6" value="points" style="shape=partialRectangle;html=1;whiteSpace=wrap;connectable=0;strokeColor=inherit;overflow=hidden;fillColor=none;top=0;left=0;bottom=0;right=0;pointerEvents=1;" vertex="1" parent="HaFlmJwg5k8W12FHYq5k-2">&#xa;          <mxGeometry x="438" width="146" height="70" as="geometry">&#xa;            <mxRectangle width="146" height="70" as="alternateBounds"/>&#xa;          </mxGeometry>&#xa;        </mxCell>&#xa;        <mxCell id="HaFlmJwg5k8W12FHYq5k-7" value="achieved" style="shape=partialRectangle;html=1;whiteSpace=wrap;connectable=0;strokeColor=inherit;overflow=hidden;fillColor=none;top=0;left=0;bottom=0;right=0;pointerEvents=1;" vertex="1" parent="HaFlmJwg5k8W12FHYq5k-2">&#xa;          <mxGeometry x="584" width="146" height="70" as="geometry">&#xa;            <mxRectangle width="146" height="70" as="alternateBounds"/>&#xa;          </mxGeometry>&#xa;        </mxCell>&#xa;        <mxCell id="HaFlmJwg5k8W12FHYq5k-8" value="" style="shape=tableRow;horizontal=0;startSize=0;swimlaneHead=0;swimlaneBody=0;strokeColor=inherit;top=0;left=0;bottom=0;right=0;collapsible=0;dropTarget=0;fillColor=none;points=[[0,0.5],[1,0.5]];portConstraint=eastwest;" vertex="1" parent="HaFlmJwg5k8W12FHYq5k-1">&#xa;          <mxGeometry y="70" width="730" height="70" as="geometry"/>&#xa;        </mxCell>&#xa;        <mxCell id="HaFlmJwg5k8W12FHYq5k-9" value="" style="shape=partialRectangle;html=1;whiteSpace=wrap;connectable=0;strokeColor=inherit;overflow=hidden;fillColor=none;top=0;left=0;bottom=0;right=0;pointerEvents=1;" vertex="1" parent="HaFlmJwg5k8W12FHYq5k-8">&#xa;          <mxGeometry width="146" height="70" as="geometry">&#xa;            <mxRectangle width="146" height="70" as="alternateBounds"/>&#xa;          </mxGeometry>&#xa;        </mxCell>&#xa;        <mxCell id="HaFlmJwg5k8W12FHYq5k-10" value="" style="shape=partialRectangle;html=1;whiteSpace=wrap;connectable=0;strokeColor=inherit;overflow=hidden;fillColor=none;top=0;left=0;bottom=0;right=0;pointerEvents=1;" vertex="1" parent="HaFlmJwg5k8W12FHYq5k-8">&#xa;          <mxGeometry x="146" width="146" height="70" as="geometry">&#xa;            <mxRectangle width="146" height="70" as="alternateBounds"/>&#xa;          </mxGeometry>&#xa;        </mxCell>&#xa;        <mxCell id="HaFlmJwg5k8W12FHYq5k-11" value="" style="shape=partialRectangle;html=1;whiteSpace=wrap;connectable=0;strokeColor=inherit;overflow=hidden;fillColor=none;top=0;left=0;bottom=0;right=0;pointerEvents=1;" vertex="1" parent="HaFlmJwg5k8W12FHYq5k-8">&#xa;          <mxGeometry x="292" width="146" height="70" as="geometry">&#xa;            <mxRectangle width="146" height="70" as="alternateBounds"/>&#xa;          </mxGeometry>&#xa;        </mxCell>&#xa;        <mxCell id="HaFlmJwg5k8W12FHYq5k-12" value="" style="shape=partialRectangle;html=1;whiteSpace=wrap;connectable=0;strokeColor=inherit;overflow=hidden;fillColor=none;top=0;left=0;bottom=0;right=0;pointerEvents=1;" vertex="1" parent="HaFlmJwg5k8W12FHYq5k-8">&#xa;          <mxGeometry x="438" width="146" height="70" as="geometry">&#xa;            <mxRectangle width="146" height="70" as="alternateBounds"/>&#xa;          </mxGeometry>&#xa;        </mxCell>&#xa;        <mxCell id="HaFlmJwg5k8W12FHYq5k-13" value="" style="shape=partialRectangle;html=1;whiteSpace=wrap;connectable=0;strokeColor=inherit;overflow=hidden;fillColor=none;top=0;left=0;bottom=0;right=0;pointerEvents=1;" vertex="1" parent="HaFlmJwg5k8W12FHYq5k-8">&#xa;          <mxGeometry x="584" width="146" height="70" as="geometry">&#xa;            <mxRectangle width="146" height="70" as="alternateBounds"/>&#xa;          </mxGeometry>&#xa;        </mxCell>&#xa;        <mxCell id="HaFlmJwg5k8W12FHYq5k-14" value="total points" style="rounded=0;whiteSpace=wrap;html=1;" vertex="1" parent="1">&#xa;          <mxGeometry x="2650" y="2070" width="160" height="60" as="geometry"/>&#xa;        </mxCell>&#xa;        <mxCell id="HaFlmJwg5k8W12FHYq5k-15" value="achieved points" style="rounded=0;whiteSpace=wrap;html=1;" vertex="1" parent="1">&#xa;          <mxGeometry x="2840" y="2070" width="160" height="60" as="geometry"/>&#xa;        </mxCell>&#xa;      </root>&#xa;    </mxGraphModel>&#xa;  </diagram><diagram id="R9Y7_rMPGFxJl2RfYHUl" name="resultpage">&#xa;    <mxGraphModel dx="420" dy="-53" grid="1" gridSize="10" guides="1" tooltips="1" connect="1" arrows="1" fold="1" page="1" pageScale="1" pageWidth="827" pageHeight="1169" math="0" shadow="0">&#xa;      <root>&#xa;        <mxCell id="0"/>&#xa;        <mxCell id="1" parent="0"/>&#xa;        <mxCell id="18_WdV9KgUGQgrbNHoLZ-1" value="" style="rounded=0;whiteSpace=wrap;html=1;" vertex="1" parent="1">&#xa;          <mxGeometry x="2470" y="1580" width="900" height="640" as="geometry"/>&#xa;        </mxCell>&#xa;        <mxCell id="18_WdV9KgUGQgrbNHoLZ-2" value="" style="shape=table;startSize=0;container=1;collapsible=0;childLayout=tableLayout;" vertex="1" parent="1">&#xa;          <mxGeometry x="2540" y="1650" width="730" height="140" as="geometry"/>&#xa;        </mxCell>&#xa;        <mxCell id="18_WdV9KgUGQgrbNHoLZ-3" value="" style="shape=tableRow;horizontal=0;startSize=0;swimlaneHead=0;swimlaneBody=0;strokeColor=inherit;top=0;left=0;bottom=0;right=0;collapsible=0;dropTarget=0;fillColor=none;points=[[0,0.5],[1,0.5]];portConstraint=eastwest;" vertex="1" parent="18_WdV9KgUGQgrbNHoLZ-2">&#xa;          <mxGeometry width="730" height="70" as="geometry"/>&#xa;        </mxCell>&#xa;        <mxCell id="18_WdV9KgUGQgrbNHoLZ-4" value="question" style="shape=partialRectangle;html=1;whiteSpace=wrap;connectable=0;strokeColor=inherit;overflow=hidden;fillColor=none;top=0;left=0;bottom=0;right=0;pointerEvents=1;" vertex="1" parent="18_WdV9KgUGQgrbNHoLZ-3">&#xa;          <mxGeometry width="146" height="70" as="geometry">&#xa;            <mxRectangle width="146" height="70" as="alternateBounds"/>&#xa;          </mxGeometry>&#xa;        </mxCell>&#xa;        <mxCell id="18_WdV9KgUGQgrbNHoLZ-5" value="topic" style="shape=partialRectangle;html=1;whiteSpace=wrap;connectable=0;strokeColor=inherit;overflow=hidden;fillColor=none;top=0;left=0;bottom=0;right=0;pointerEvents=1;" vertex="1" parent="18_WdV9KgUGQgrbNHoLZ-3">&#xa;          <mxGeometry x="146" width="146" height="70" as="geometry">&#xa;            <mxRectangle width="146" height="70" as="alternateBounds"/>&#xa;          </mxGeometry>&#xa;        </mxCell>&#xa;        <mxCell id="18_WdV9KgUGQgrbNHoLZ-6" value="professor notes" style="shape=partialRectangle;html=1;whiteSpace=wrap;connectable=0;strokeColor=inherit;overflow=hidden;fillColor=none;top=0;left=0;bottom=0;right=0;pointerEvents=1;" vertex="1" parent="18_WdV9KgUGQgrbNHoLZ-3">&#xa;          <mxGeometry x="292" width="146" height="70" as="geometry">&#xa;            <mxRectangle width="146" height="70" as="alternateBounds"/>&#xa;          </mxGeometry>&#xa;        </mxCell>&#xa;        <mxCell id="18_WdV9KgUGQgrbNHoLZ-7" value="points" style="shape=partialRectangle;html=1;whiteSpace=wrap;connectable=0;strokeColor=inherit;overflow=hidden;fillColor=none;top=0;left=0;bottom=0;right=0;pointerEvents=1;" vertex="1" parent="18_WdV9KgUGQgrbNHoLZ-3">&#xa;          <mxGeometry x="438" width="146" height="70" as="geometry">&#xa;            <mxRectangle width="146" height="70" as="alternateBounds"/>&#xa;          </mxGeometry>&#xa;        </mxCell>&#xa;        <mxCell id="18_WdV9KgUGQgrbNHoLZ-8" value="achieved" style="shape=partialRectangle;html=1;whiteSpace=wrap;connectable=0;strokeColor=inherit;overflow=hidden;fillColor=none;top=0;left=0;bottom=0;right=0;pointerEvents=1;" vertex="1" parent="18_WdV9KgUGQgrbNHoLZ-3">&#xa;          <mxGeometry x="584" width="146" height="70" as="geometry">&#xa;            <mxRectangle width="146" height="70" as="alternateBounds"/>&#xa;          </mxGeometry>&#xa;        </mxCell>&#xa;        <mxCell id="18_WdV9KgUGQgrbNHoLZ-9" value="" style="shape=tableRow;horizontal=0;startSize=0;swimlaneHead=0;swimlaneBody=0;strokeColor=inherit;top=0;left=0;bottom=0;right=0;collapsible=0;dropTarget=0;fillColor=none;points=[[0,0.5],[1,0.5]];portConstraint=eastwest;" vertex="1" parent="18_WdV9KgUGQgrbNHoLZ-2">&#xa;          <mxGeometry y="70" width="730" height="70" as="geometry"/>&#xa;        </mxCell>&#xa;        <mxCell id="18_WdV9KgUGQgrbNHoLZ-10" value="" style="shape=partialRectangle;html=1;whiteSpace=wrap;connectable=0;strokeColor=inherit;overflow=hidden;fillColor=none;top=0;left=0;bottom=0;right=0;pointerEvents=1;" vertex="1" parent="18_WdV9KgUGQgrbNHoLZ-9">&#xa;          <mxGeometry width="146" height="70" as="geometry">&#xa;            <mxRectangle width="146" height="70" as="alternateBounds"/>&#xa;          </mxGeometry>&#xa;        </mxCell>&#xa;        <mxCell id="18_WdV9KgUGQgrbNHoLZ-11" value="" style="shape=partialRectangle;html=1;whiteSpace=wrap;connectable=0;strokeColor=inherit;overflow=hidden;fillColor=none;top=0;left=0;bottom=0;right=0;pointerEvents=1;" vertex="1" parent="18_WdV9KgUGQgrbNHoLZ-9">&#xa;          <mxGeometry x="146" width="146" height="70" as="geometry">&#xa;            <mxRectangle width="146" height="70" as="alternateBounds"/>&#xa;          </mxGeometry>&#xa;        </mxCell>&#xa;        <mxCell id="18_WdV9KgUGQgrbNHoLZ-12" value="" style="shape=partialRectangle;html=1;whiteSpace=wrap;connectable=0;strokeColor=inherit;overflow=hidden;fillColor=none;top=0;left=0;bottom=0;right=0;pointerEvents=1;" vertex="1" parent="18_WdV9KgUGQgrbNHoLZ-9">&#xa;          <mxGeometry x="292" width="146" height="70" as="geometry">&#xa;            <mxRectangle width="146" height="70" as="alternateBounds"/>&#xa;          </mxGeometry>&#xa;        </mxCell>&#xa;        <mxCell id="18_WdV9KgUGQgrbNHoLZ-13" value="" style="shape=partialRectangle;html=1;whiteSpace=wrap;connectable=0;strokeColor=inherit;overflow=hidden;fillColor=none;top=0;left=0;bottom=0;right=0;pointerEvents=1;" vertex="1" parent="18_WdV9KgUGQgrbNHoLZ-9">&#xa;          <mxGeometry x="438" width="146" height="70" as="geometry">&#xa;            <mxRectangle width="146" height="70" as="alternateBounds"/>&#xa;          </mxGeometry>&#xa;        </mxCell>&#xa;        <mxCell id="18_WdV9KgUGQgrbNHoLZ-14" value="" style="shape=partialRectangle;html=1;whiteSpace=wrap;connectable=0;strokeColor=inherit;overflow=hidden;fillColor=none;top=0;left=0;bottom=0;right=0;pointerEvents=1;" vertex="1" parent="18_WdV9KgUGQgrbNHoLZ-9">&#xa;          <mxGeometry x="584" width="146" height="70" as="geometry">&#xa;            <mxRectangle width="146" height="70" as="alternateBounds"/>&#xa;          </mxGeometry>&#xa;        </mxCell>&#xa;        <mxCell id="18_WdV9KgUGQgrbNHoLZ-15" value="student" style="rounded=0;whiteSpace=wrap;html=1;" vertex="1" parent="1">&#xa;          <mxGeometry x="2560" y="2020" width="120" height="60" as="geometry"/>&#xa;        </mxCell>&#xa;        <mxCell id="18_WdV9KgUGQgrbNHoLZ-16" value="professor" style="rounded=0;whiteSpace=wrap;html=1;" vertex="1" parent="1">&#xa;          <mxGeometry x="2710" y="2020" width="120" height="60" as="geometry"/>&#xa;        </mxCell>&#xa;        <mxCell id="18_WdV9KgUGQgrbNHoLZ-17" value="total achieved" style="rounded=0;whiteSpace=wrap;html=1;" vertex="1" parent="1">&#xa;          <mxGeometry x="2860" y="2020" width="120" height="60" as="geometry"/>&#xa;        </mxCell>&#xa;        <mxCell id="18_WdV9KgUGQgrbNHoLZ-18" value="total points" style="rounded=0;whiteSpace=wrap;html=1;" vertex="1" parent="1">&#xa;          <mxGeometry x="3010" y="2020" width="120" height="60" as="geometry"/>&#xa;        </mxCell>&#xa;        <mxCell id="18_WdV9KgUGQgrbNHoLZ-19" value="grade" style="rounded=0;whiteSpace=wrap;html=1;" vertex="1" parent="1">&#xa;          <mxGeometry x="3160" y="2020" width="120" height="60" as="geometry"/>&#xa;        </mxCell>&#xa;      </root>&#xa;    </mxGraphModel>&#xa;  </diagram><diagram id="eWpUhl2u2gXd-auFFcGW" name="datamodel">&#xa;    <mxGraphModel dx="1247" dy="-53" grid="1" gridSize="10" guides="1" tooltips="1" connect="1" arrows="1" fold="1" page="1" pageScale="1" pageWidth="827" pageHeight="1169" math="0" shadow="0">&#xa;      <root>&#xa;        <mxCell id="0"/>&#xa;        <mxCell id="1" parent="0"/>&#xa;        <mxCell id="bjBKnwyrLii7CTmsoGLH-10" style="edgeStyle=orthogonalEdgeStyle;rounded=0;orthogonalLoop=1;jettySize=auto;html=1;entryX=0;entryY=0.383;entryDx=0;entryDy=0;entryPerimeter=0;" edge="1" parent="1" source="bjBKnwyrLii7CTmsoGLH-1" target="bjBKnwyrLii7CTmsoGLH-3">&#xa;          <mxGeometry relative="1" as="geometry"/>&#xa;        </mxCell>&#xa;        <mxCell id="bjBKnwyrLii7CTmsoGLH-12" style="edgeStyle=orthogonalEdgeStyle;rounded=0;orthogonalLoop=1;jettySize=auto;html=1;entryX=0;entryY=0.5;entryDx=0;entryDy=0;" edge="1" parent="1" source="bjBKnwyrLii7CTmsoGLH-1" target="bjBKnwyrLii7CTmsoGLH-4">&#xa;          <mxGeometry relative="1" as="geometry"/>&#xa;        </mxCell>&#xa;        <mxCell id="bjBKnwyrLii7CTmsoGLH-1" value="s1" style="rounded=0;whiteSpace=wrap;html=1;" vertex="1" parent="1">&#xa;          <mxGeometry x="1620" y="1710" width="120" height="60" as="geometry"/>&#xa;        </mxCell>&#xa;        <mxCell id="bjBKnwyrLii7CTmsoGLH-9" style="edgeStyle=orthogonalEdgeStyle;rounded=0;orthogonalLoop=1;jettySize=auto;html=1;" edge="1" parent="1" source="bjBKnwyrLii7CTmsoGLH-2" target="bjBKnwyrLii7CTmsoGLH-1">&#xa;          <mxGeometry relative="1" as="geometry"/>&#xa;        </mxCell>&#xa;        <mxCell id="bjBKnwyrLii7CTmsoGLH-2" value="e1" style="rounded=0;whiteSpace=wrap;html=1;" vertex="1" parent="1">&#xa;          <mxGeometry x="1460" y="1710" width="120" height="60" as="geometry"/>&#xa;        </mxCell>&#xa;        <mxCell id="bjBKnwyrLii7CTmsoGLH-13" style="edgeStyle=orthogonalEdgeStyle;rounded=0;orthogonalLoop=1;jettySize=auto;html=1;entryX=0;entryY=0.5;entryDx=0;entryDy=0;" edge="1" parent="1" source="bjBKnwyrLii7CTmsoGLH-3" target="bjBKnwyrLii7CTmsoGLH-5">&#xa;          <mxGeometry relative="1" as="geometry"/>&#xa;        </mxCell>&#xa;        <mxCell id="bjBKnwyrLii7CTmsoGLH-14" style="edgeStyle=orthogonalEdgeStyle;rounded=0;orthogonalLoop=1;jettySize=auto;html=1;" edge="1" parent="1" source="bjBKnwyrLii7CTmsoGLH-3" target="bjBKnwyrLii7CTmsoGLH-6">&#xa;          <mxGeometry relative="1" as="geometry">&#xa;            <Array as="points">&#xa;              <mxPoint x="1960" y="1520"/>&#xa;              <mxPoint x="1960" y="1590"/>&#xa;            </Array>&#xa;          </mxGeometry>&#xa;        </mxCell>&#xa;        <mxCell id="bjBKnwyrLii7CTmsoGLH-3" value="t1" style="rounded=0;whiteSpace=wrap;html=1;" vertex="1" parent="1">&#xa;          <mxGeometry x="1810" y="1490" width="120" height="60" as="geometry"/>&#xa;        </mxCell>&#xa;        <mxCell id="bjBKnwyrLii7CTmsoGLH-15" style="edgeStyle=orthogonalEdgeStyle;rounded=0;orthogonalLoop=1;jettySize=auto;html=1;" edge="1" parent="1" source="bjBKnwyrLii7CTmsoGLH-4" target="bjBKnwyrLii7CTmsoGLH-7">&#xa;          <mxGeometry relative="1" as="geometry">&#xa;            <Array as="points">&#xa;              <mxPoint x="1960" y="1864"/>&#xa;              <mxPoint x="1960" y="1770"/>&#xa;            </Array>&#xa;          </mxGeometry>&#xa;        </mxCell>&#xa;        <mxCell id="bjBKnwyrLii7CTmsoGLH-16" style="edgeStyle=orthogonalEdgeStyle;rounded=0;orthogonalLoop=1;jettySize=auto;html=1;entryX=0;entryY=0.5;entryDx=0;entryDy=0;" edge="1" parent="1" source="bjBKnwyrLii7CTmsoGLH-4" target="bjBKnwyrLii7CTmsoGLH-8">&#xa;          <mxGeometry relative="1" as="geometry"/>&#xa;        </mxCell>&#xa;        <mxCell id="bjBKnwyrLii7CTmsoGLH-4" value="t2" style="rounded=0;whiteSpace=wrap;html=1;" vertex="1" parent="1">&#xa;          <mxGeometry x="1810" y="1834" width="120" height="60" as="geometry"/>&#xa;        </mxCell>&#xa;        <mxCell id="38bE9gfhQK1mZnkUHXtt-9" style="edgeStyle=orthogonalEdgeStyle;rounded=0;orthogonalLoop=1;jettySize=auto;html=1;entryX=0;entryY=0.5;entryDx=0;entryDy=0;" edge="1" parent="1" source="bjBKnwyrLii7CTmsoGLH-5" target="38bE9gfhQK1mZnkUHXtt-1">&#xa;          <mxGeometry relative="1" as="geometry"/>&#xa;        </mxCell>&#xa;        <mxCell id="38bE9gfhQK1mZnkUHXtt-10" style="edgeStyle=orthogonalEdgeStyle;rounded=0;orthogonalLoop=1;jettySize=auto;html=1;" edge="1" parent="1" source="bjBKnwyrLii7CTmsoGLH-5" target="38bE9gfhQK1mZnkUHXtt-2">&#xa;          <mxGeometry relative="1" as="geometry"/>&#xa;        </mxCell>&#xa;        <mxCell id="bjBKnwyrLii7CTmsoGLH-5" value="q1" style="rounded=0;whiteSpace=wrap;html=1;" vertex="1" parent="1">&#xa;          <mxGeometry x="1990" y="1360" width="120" height="60" as="geometry"/>&#xa;        </mxCell>&#xa;        <mxCell id="38bE9gfhQK1mZnkUHXtt-11" style="edgeStyle=orthogonalEdgeStyle;rounded=0;orthogonalLoop=1;jettySize=auto;html=1;" edge="1" parent="1" source="bjBKnwyrLii7CTmsoGLH-6" target="38bE9gfhQK1mZnkUHXtt-3">&#xa;          <mxGeometry relative="1" as="geometry"/>&#xa;        </mxCell>&#xa;        <mxCell id="38bE9gfhQK1mZnkUHXtt-12" style="edgeStyle=orthogonalEdgeStyle;rounded=0;orthogonalLoop=1;jettySize=auto;html=1;entryX=0;entryY=0.5;entryDx=0;entryDy=0;" edge="1" parent="1" source="bjBKnwyrLii7CTmsoGLH-6" target="38bE9gfhQK1mZnkUHXtt-4">&#xa;          <mxGeometry relative="1" as="geometry"/>&#xa;        </mxCell>&#xa;        <mxCell id="bjBKnwyrLii7CTmsoGLH-6" value="q2" style="rounded=0;whiteSpace=wrap;html=1;" vertex="1" parent="1">&#xa;          <mxGeometry x="1990" y="1560" width="120" height="60" as="geometry"/>&#xa;        </mxCell>&#xa;        <mxCell id="38bE9gfhQK1mZnkUHXtt-13" style="edgeStyle=orthogonalEdgeStyle;rounded=0;orthogonalLoop=1;jettySize=auto;html=1;entryX=0;entryY=0.5;entryDx=0;entryDy=0;" edge="1" parent="1" source="bjBKnwyrLii7CTmsoGLH-7" target="38bE9gfhQK1mZnkUHXtt-5">&#xa;          <mxGeometry relative="1" as="geometry"/>&#xa;        </mxCell>&#xa;        <mxCell id="38bE9gfhQK1mZnkUHXtt-14" style="edgeStyle=orthogonalEdgeStyle;rounded=0;orthogonalLoop=1;jettySize=auto;html=1;entryX=0;entryY=0.5;entryDx=0;entryDy=0;" edge="1" parent="1" source="bjBKnwyrLii7CTmsoGLH-7" target="38bE9gfhQK1mZnkUHXtt-6">&#xa;          <mxGeometry relative="1" as="geometry"/>&#xa;        </mxCell>&#xa;        <mxCell id="bjBKnwyrLii7CTmsoGLH-7" value="q3" style="rounded=0;whiteSpace=wrap;html=1;" vertex="1" parent="1">&#xa;          <mxGeometry x="1990" y="1740" width="120" height="60" as="geometry"/>&#xa;        </mxCell>&#xa;        <mxCell id="38bE9gfhQK1mZnkUHXtt-15" style="edgeStyle=orthogonalEdgeStyle;rounded=0;orthogonalLoop=1;jettySize=auto;html=1;" edge="1" parent="1" source="bjBKnwyrLii7CTmsoGLH-8" target="38bE9gfhQK1mZnkUHXtt-7">&#xa;          <mxGeometry relative="1" as="geometry"/>&#xa;        </mxCell>&#xa;        <mxCell id="38bE9gfhQK1mZnkUHXtt-16" style="edgeStyle=orthogonalEdgeStyle;rounded=0;orthogonalLoop=1;jettySize=auto;html=1;entryX=0;entryY=0.5;entryDx=0;entryDy=0;" edge="1" parent="1" source="bjBKnwyrLii7CTmsoGLH-8" target="38bE9gfhQK1mZnkUHXtt-8">&#xa;          <mxGeometry relative="1" as="geometry"/>&#xa;        </mxCell>&#xa;        <mxCell id="bjBKnwyrLii7CTmsoGLH-8" value="q4" style="rounded=0;whiteSpace=wrap;html=1;" vertex="1" parent="1">&#xa;          <mxGeometry x="1990" y="1940" width="120" height="60" as="geometry"/>&#xa;        </mxCell>&#xa;        <mxCell id="38bE9gfhQK1mZnkUHXtt-1" value="c1" style="rounded=0;whiteSpace=wrap;html=1;" vertex="1" parent="1">&#xa;          <mxGeometry x="2210" y="1320" width="120" height="60" as="geometry"/>&#xa;        </mxCell>&#xa;        <mxCell id="38bE9gfhQK1mZnkUHXtt-2" value="c2" style="rounded=0;whiteSpace=wrap;html=1;" vertex="1" parent="1">&#xa;          <mxGeometry x="2210" y="1420" width="120" height="60" as="geometry"/>&#xa;        </mxCell>&#xa;        <mxCell id="38bE9gfhQK1mZnkUHXtt-3" value="c3" style="rounded=0;whiteSpace=wrap;html=1;" vertex="1" parent="1">&#xa;          <mxGeometry x="2210" y="1510" width="120" height="60" as="geometry"/>&#xa;        </mxCell>&#xa;        <mxCell id="38bE9gfhQK1mZnkUHXtt-4" value="c4" style="rounded=0;whiteSpace=wrap;html=1;" vertex="1" parent="1">&#xa;          <mxGeometry x="2210" y="1610" width="120" height="60" as="geometry"/>&#xa;        </mxCell>&#xa;        <mxCell id="38bE9gfhQK1mZnkUHXtt-5" value="c5" style="rounded=0;whiteSpace=wrap;html=1;" vertex="1" parent="1">&#xa;          <mxGeometry x="2210" y="1700" width="120" height="60" as="geometry"/>&#xa;        </mxCell>&#xa;        <mxCell id="38bE9gfhQK1mZnkUHXtt-6" value="c6" style="rounded=0;whiteSpace=wrap;html=1;" vertex="1" parent="1">&#xa;          <mxGeometry x="2210" y="1800" width="120" height="60" as="geometry"/>&#xa;        </mxCell>&#xa;        <mxCell id="38bE9gfhQK1mZnkUHXtt-7" value="c7" style="rounded=0;whiteSpace=wrap;html=1;" vertex="1" parent="1">&#xa;          <mxGeometry x="2210" y="1900" width="120" height="60" as="geometry"/>&#xa;        </mxCell>&#xa;        <mxCell id="38bE9gfhQK1mZnkUHXtt-8" value="c8" style="rounded=0;whiteSpace=wrap;html=1;" vertex="1" parent="1">&#xa;          <mxGeometry x="2210" y="2000" width="120" height="60" as="geometry"/>&#xa;        </mxCell>&#xa;      </root>&#xa;    </mxGraphModel>&#xa;  </diagram><diagram id="dKqcCQmLow3N5MSfY6sw" name="pretty1"><mxGraphModel dx="-168" dy="852" grid="1" gridSize="10" guides="1" tooltips="1" connect="1" arrows="1" fold="1" page="1" pageScale="1" pageWidth="827" pageHeight="1169" math="0" shadow="0"><root><mxCell id="0"/><mxCell id="1" parent="0"/><mxCell id="BLHZM9JiFqPwn2z5KHV6-1" value="Photo" style="ellipse;whiteSpace=wrap;html=1;aspect=fixed;" parent="1" vertex="1"><mxGeometry x="3260" y="780" width="60" height="60" as="geometry"/></mxCell><mxCell id="BLHZM9JiFqPwn2z5KHV6-2" value="Subject" style="rounded=0;whiteSpace=wrap;html=1;" parent="1" vertex="1"><mxGeometry x="2380" y="780" width="210" height="30" as="geometry"/></mxCell><mxCell id="BLHZM9JiFqPwn2z5KHV6-3" value="add" style="rounded=0;whiteSpace=wrap;html=1;fillColor=#e1d5e7;strokeColor=#9673a6;" parent="1" vertex="1"><mxGeometry x="2600" y="820" width="60" height="30" as="geometry"/></mxCell><mxCell id="BLHZM9JiFqPwn2z5KHV6-4" value="remove" style="rounded=0;whiteSpace=wrap;html=1;fillColor=#e1d5e7;strokeColor=#9673a6;" parent="1" vertex="1"><mxGeometry x="2670" y="820" width="60" height="30" as="geometry"/></mxCell><mxCell id="BLHZM9JiFqPwn2z5KHV6-5" value="" style="group;fillColor=#e1d5e7;strokeColor=#9673a6;" parent="1" vertex="1" connectable="0"><mxGeometry x="2380" y="820" width="210" height="30" as="geometry"/></mxCell><mxCell id="BLHZM9JiFqPwn2z5KHV6-6" value="Topics" style="rounded=0;whiteSpace=wrap;html=1;fillColor=#e1d5e7;strokeColor=#9673a6;" parent="BLHZM9JiFqPwn2z5KHV6-5" vertex="1"><mxGeometry width="210" height="30" as="geometry"/></mxCell><mxCell id="BLHZM9JiFqPwn2z5KHV6-7" value="" style="triangle;whiteSpace=wrap;html=1;rotation=90;fillColor=#e1d5e7;strokeColor=#9673a6;" parent="BLHZM9JiFqPwn2z5KHV6-5" vertex="1"><mxGeometry x="180.5" y="5.5" width="16" height="23" as="geometry"/></mxCell><mxCell id="BLHZM9JiFqPwn2z5KHV6-8" style="edgeStyle=orthogonalEdgeStyle;rounded=0;orthogonalLoop=1;jettySize=auto;html=1;exitX=0.5;exitY=1;exitDx=0;exitDy=0;" parent="BLHZM9JiFqPwn2z5KHV6-5" source="BLHZM9JiFqPwn2z5KHV6-6" target="BLHZM9JiFqPwn2z5KHV6-6" edge="1"><mxGeometry relative="1" as="geometry"/></mxCell><mxCell id="BLHZM9JiFqPwn2z5KHV6-9" value="Questions" style="shape=table;startSize=20;container=1;collapsible=0;childLayout=tableLayout;" parent="1" vertex="1"><mxGeometry x="2380" y="870" width="350" height="200" as="geometry"/></mxCell><mxCell id="BLHZM9JiFqPwn2z5KHV6-10" value="" style="shape=tableRow;horizontal=0;startSize=0;swimlaneHead=0;swimlaneBody=0;strokeColor=inherit;top=0;left=0;bottom=0;right=0;collapsible=0;dropTarget=0;fillColor=none;points=[[0,0.5],[1,0.5]];portConstraint=eastwest;" parent="BLHZM9JiFqPwn2z5KHV6-9" vertex="1"><mxGeometry y="20" width="350" height="30" as="geometry"/></mxCell><mxCell id="BLHZM9JiFqPwn2z5KHV6-11" value="Question" style="shape=partialRectangle;html=1;whiteSpace=wrap;connectable=0;strokeColor=inherit;overflow=hidden;fillColor=none;top=0;left=0;bottom=0;right=0;pointerEvents=1;" parent="BLHZM9JiFqPwn2z5KHV6-10" vertex="1"><mxGeometry width="117" height="30" as="geometry"><mxRectangle width="117" height="30" as="alternateBounds"/></mxGeometry></mxCell><mxCell id="BLHZM9JiFqPwn2z5KHV6-12" value="points" style="shape=partialRectangle;html=1;whiteSpace=wrap;connectable=0;strokeColor=inherit;overflow=hidden;fillColor=none;top=0;left=0;bottom=0;right=0;pointerEvents=1;" parent="BLHZM9JiFqPwn2z5KHV6-10" vertex="1"><mxGeometry x="117" width="116" height="30" as="geometry"><mxRectangle width="116" height="30" as="alternateBounds"/></mxGeometry></mxCell><mxCell id="VlXipdVHENBWRYJrT8tq-10" value="topic" style="shape=partialRectangle;html=1;whiteSpace=wrap;connectable=0;strokeColor=#9673a6;overflow=hidden;fillColor=#e1d5e7;top=0;left=0;bottom=0;right=0;pointerEvents=1;" parent="BLHZM9JiFqPwn2z5KHV6-10" vertex="1"><mxGeometry x="233" width="117" height="30" as="geometry"><mxRectangle width="117" height="30" as="alternateBounds"/></mxGeometry></mxCell><mxCell id="BLHZM9JiFqPwn2z5KHV6-13" style="shape=tableRow;horizontal=0;startSize=0;swimlaneHead=0;swimlaneBody=0;strokeColor=inherit;top=0;left=0;bottom=0;right=0;collapsible=0;dropTarget=0;fillColor=none;points=[[0,0.5],[1,0.5]];portConstraint=eastwest;" parent="BLHZM9JiFqPwn2z5KHV6-9" vertex="1"><mxGeometry y="50" width="350" height="30" as="geometry"/></mxCell><mxCell id="BLHZM9JiFqPwn2z5KHV6-14" value="Addition" style="shape=partialRectangle;html=1;whiteSpace=wrap;connectable=0;strokeColor=#82b366;overflow=hidden;fillColor=#d5e8d4;top=0;left=0;bottom=0;right=0;pointerEvents=1;" parent="BLHZM9JiFqPwn2z5KHV6-13" vertex="1"><mxGeometry width="117" height="30" as="geometry"><mxRectangle width="117" height="30" as="alternateBounds"/></mxGeometry></mxCell><mxCell id="BLHZM9JiFqPwn2z5KHV6-15" value="10" style="shape=partialRectangle;html=1;whiteSpace=wrap;connectable=0;strokeColor=#82b366;overflow=hidden;fillColor=#d5e8d4;top=0;left=0;bottom=0;right=0;pointerEvents=1;" parent="BLHZM9JiFqPwn2z5KHV6-13" vertex="1"><mxGeometry x="117" width="116" height="30" as="geometry"><mxRectangle width="116" height="30" as="alternateBounds"/></mxGeometry></mxCell><mxCell id="VlXipdVHENBWRYJrT8tq-11" value="calculus" style="shape=partialRectangle;html=1;whiteSpace=wrap;connectable=0;strokeColor=#9673a6;overflow=hidden;fillColor=#e1d5e7;top=0;left=0;bottom=0;right=0;pointerEvents=1;" parent="BLHZM9JiFqPwn2z5KHV6-13" vertex="1"><mxGeometry x="233" width="117" height="30" as="geometry"><mxRectangle width="117" height="30" as="alternateBounds"/></mxGeometry></mxCell><mxCell id="BLHZM9JiFqPwn2z5KHV6-16" style="shape=tableRow;horizontal=0;startSize=0;swimlaneHead=0;swimlaneBody=0;strokeColor=inherit;top=0;left=0;bottom=0;right=0;collapsible=0;dropTarget=0;fillColor=none;points=[[0,0.5],[1,0.5]];portConstraint=eastwest;" parent="BLHZM9JiFqPwn2z5KHV6-9" vertex="1"><mxGeometry y="80" width="350" height="30" as="geometry"/></mxCell><mxCell id="BLHZM9JiFqPwn2z5KHV6-17" value="Substraction" style="shape=partialRectangle;html=1;whiteSpace=wrap;connectable=0;strokeColor=inherit;overflow=hidden;fillColor=none;top=0;left=0;bottom=0;right=0;pointerEvents=1;" parent="BLHZM9JiFqPwn2z5KHV6-16" vertex="1"><mxGeometry width="117" height="30" as="geometry"><mxRectangle width="117" height="30" as="alternateBounds"/></mxGeometry></mxCell><mxCell id="BLHZM9JiFqPwn2z5KHV6-18" value="20" style="shape=partialRectangle;html=1;whiteSpace=wrap;connectable=0;strokeColor=inherit;overflow=hidden;fillColor=none;top=0;left=0;bottom=0;right=0;pointerEvents=1;" parent="BLHZM9JiFqPwn2z5KHV6-16" vertex="1"><mxGeometry x="117" width="116" height="30" as="geometry"><mxRectangle width="116" height="30" as="alternateBounds"/></mxGeometry></mxCell><mxCell id="VlXipdVHENBWRYJrT8tq-12" value="calculus" style="shape=partialRectangle;html=1;whiteSpace=wrap;connectable=0;strokeColor=#9673a6;overflow=hidden;fillColor=#e1d5e7;top=0;left=0;bottom=0;right=0;pointerEvents=1;" parent="BLHZM9JiFqPwn2z5KHV6-16" vertex="1"><mxGeometry x="233" width="117" height="30" as="geometry"><mxRectangle width="117" height="30" as="alternateBounds"/></mxGeometry></mxCell><mxCell id="BLHZM9JiFqPwn2z5KHV6-19" style="shape=tableRow;horizontal=0;startSize=0;swimlaneHead=0;swimlaneBody=0;strokeColor=inherit;top=0;left=0;bottom=0;right=0;collapsible=0;dropTarget=0;fillColor=none;points=[[0,0.5],[1,0.5]];portConstraint=eastwest;" parent="BLHZM9JiFqPwn2z5KHV6-9" vertex="1"><mxGeometry y="110" width="350" height="30" as="geometry"/></mxCell><mxCell id="BLHZM9JiFqPwn2z5KHV6-20" value="Area of a Triangle" style="shape=partialRectangle;html=1;whiteSpace=wrap;connectable=0;strokeColor=inherit;overflow=hidden;fillColor=none;top=0;left=0;bottom=0;right=0;pointerEvents=1;" parent="BLHZM9JiFqPwn2z5KHV6-19" vertex="1"><mxGeometry width="117" height="30" as="geometry"><mxRectangle width="117" height="30" as="alternateBounds"/></mxGeometry></mxCell><mxCell id="BLHZM9JiFqPwn2z5KHV6-21" value="error" style="shape=partialRectangle;html=1;whiteSpace=wrap;connectable=0;strokeColor=#b85450;overflow=hidden;fillColor=#f8cecc;top=0;left=0;bottom=0;right=0;pointerEvents=1;" parent="BLHZM9JiFqPwn2z5KHV6-19" vertex="1"><mxGeometry x="117" width="116" height="30" as="geometry"><mxRectangle width="116" height="30" as="alternateBounds"/></mxGeometry></mxCell><mxCell id="VlXipdVHENBWRYJrT8tq-13" value="geometry" style="shape=partialRectangle;html=1;whiteSpace=wrap;connectable=0;strokeColor=#9673a6;overflow=hidden;fillColor=#e1d5e7;top=0;left=0;bottom=0;right=0;pointerEvents=1;" parent="BLHZM9JiFqPwn2z5KHV6-19" vertex="1"><mxGeometry x="233" width="117" height="30" as="geometry"><mxRectangle width="117" height="30" as="alternateBounds"/></mxGeometry></mxCell><mxCell id="BLHZM9JiFqPwn2z5KHV6-22" style="shape=tableRow;horizontal=0;startSize=0;swimlaneHead=0;swimlaneBody=0;strokeColor=inherit;top=0;left=0;bottom=0;right=0;collapsible=0;dropTarget=0;fillColor=none;points=[[0,0.5],[1,0.5]];portConstraint=eastwest;" parent="BLHZM9JiFqPwn2z5KHV6-9" vertex="1"><mxGeometry y="140" width="350" height="30" as="geometry"/></mxCell><mxCell id="BLHZM9JiFqPwn2z5KHV6-23" style="shape=partialRectangle;html=1;whiteSpace=wrap;connectable=0;strokeColor=inherit;overflow=hidden;fillColor=none;top=0;left=0;bottom=0;right=0;pointerEvents=1;" parent="BLHZM9JiFqPwn2z5KHV6-22" vertex="1"><mxGeometry width="117" height="30" as="geometry"><mxRectangle width="117" height="30" as="alternateBounds"/></mxGeometry></mxCell><mxCell id="BLHZM9JiFqPwn2z5KHV6-24" style="shape=partialRectangle;html=1;whiteSpace=wrap;connectable=0;strokeColor=inherit;overflow=hidden;fillColor=none;top=0;left=0;bottom=0;right=0;pointerEvents=1;" parent="BLHZM9JiFqPwn2z5KHV6-22" vertex="1"><mxGeometry x="117" width="116" height="30" as="geometry"><mxRectangle width="116" height="30" as="alternateBounds"/></mxGeometry></mxCell><mxCell id="VlXipdVHENBWRYJrT8tq-14" style="shape=partialRectangle;html=1;whiteSpace=wrap;connectable=0;strokeColor=#9673a6;overflow=hidden;fillColor=#e1d5e7;top=0;left=0;bottom=0;right=0;pointerEvents=1;" parent="BLHZM9JiFqPwn2z5KHV6-22" vertex="1"><mxGeometry x="233" width="117" height="30" as="geometry"><mxRectangle width="117" height="30" as="alternateBounds"/></mxGeometry></mxCell><mxCell id="BLHZM9JiFqPwn2z5KHV6-25" style="shape=tableRow;horizontal=0;startSize=0;swimlaneHead=0;swimlaneBody=0;strokeColor=inherit;top=0;left=0;bottom=0;right=0;collapsible=0;dropTarget=0;fillColor=none;points=[[0,0.5],[1,0.5]];portConstraint=eastwest;" parent="BLHZM9JiFqPwn2z5KHV6-9" vertex="1"><mxGeometry y="170" width="350" height="30" as="geometry"/></mxCell><mxCell id="BLHZM9JiFqPwn2z5KHV6-26" style="shape=partialRectangle;html=1;whiteSpace=wrap;connectable=0;strokeColor=inherit;overflow=hidden;fillColor=none;top=0;left=0;bottom=0;right=0;pointerEvents=1;" parent="BLHZM9JiFqPwn2z5KHV6-25" vertex="1"><mxGeometry width="117" height="30" as="geometry"><mxRectangle width="117" height="30" as="alternateBounds"/></mxGeometry></mxCell><mxCell id="BLHZM9JiFqPwn2z5KHV6-27" style="shape=partialRectangle;html=1;whiteSpace=wrap;connectable=0;strokeColor=inherit;overflow=hidden;fillColor=none;top=0;left=0;bottom=0;right=0;pointerEvents=1;" parent="BLHZM9JiFqPwn2z5KHV6-25" vertex="1"><mxGeometry x="117" width="116" height="30" as="geometry"><mxRectangle width="116" height="30" as="alternateBounds"/></mxGeometry></mxCell><mxCell id="VlXipdVHENBWRYJrT8tq-15" style="shape=partialRectangle;html=1;whiteSpace=wrap;connectable=0;strokeColor=#9673a6;overflow=hidden;fillColor=#e1d5e7;top=0;left=0;bottom=0;right=0;pointerEvents=1;" parent="BLHZM9JiFqPwn2z5KHV6-25" vertex="1"><mxGeometry x="233" width="117" height="30" as="geometry"><mxRectangle width="117" height="30" as="alternateBounds"/></mxGeometry></mxCell><mxCell id="BLHZM9JiFqPwn2z5KHV6-28" value="Criterias" style="shape=table;startSize=20;container=1;collapsible=0;childLayout=tableLayout;" parent="1" vertex="1"><mxGeometry x="3150" y="870" width="468" height="200" as="geometry"/></mxCell><mxCell id="BLHZM9JiFqPwn2z5KHV6-29" value="" style="shape=tableRow;horizontal=0;startSize=0;swimlaneHead=0;swimlaneBody=0;strokeColor=inherit;top=0;left=0;bottom=0;right=0;collapsible=0;dropTarget=0;fillColor=none;points=[[0,0.5],[1,0.5]];portConstraint=eastwest;" parent="BLHZM9JiFqPwn2z5KHV6-28" vertex="1"><mxGeometry y="20" width="468" height="44" as="geometry"/></mxCell><mxCell id="BLHZM9JiFqPwn2z5KHV6-30" value="Criteria" style="shape=partialRectangle;html=1;whiteSpace=wrap;connectable=0;strokeColor=inherit;overflow=hidden;fillColor=none;top=0;left=0;bottom=0;right=0;pointerEvents=1;" parent="BLHZM9JiFqPwn2z5KHV6-29" vertex="1"><mxGeometry width="118" height="44" as="geometry"><mxRectangle width="118" height="44" as="alternateBounds"/></mxGeometry></mxCell><mxCell id="BLHZM9JiFqPwn2z5KHV6-31" value="Description" style="shape=partialRectangle;html=1;whiteSpace=wrap;connectable=0;strokeColor=inherit;overflow=hidden;fillColor=none;top=0;left=0;bottom=0;right=0;pointerEvents=1;" parent="BLHZM9JiFqPwn2z5KHV6-29" vertex="1"><mxGeometry x="118" width="114" height="44" as="geometry"><mxRectangle width="114" height="44" as="alternateBounds"/></mxGeometry></mxCell><mxCell id="BLHZM9JiFqPwn2z5KHV6-32" value="Weight/Priority" style="shape=partialRectangle;html=1;whiteSpace=wrap;connectable=0;strokeColor=inherit;overflow=hidden;fillColor=none;top=0;left=0;bottom=0;right=0;pointerEvents=1;" parent="BLHZM9JiFqPwn2z5KHV6-29" vertex="1"><mxGeometry x="232" width="118" height="44" as="geometry"><mxRectangle width="118" height="44" as="alternateBounds"/></mxGeometry></mxCell><mxCell id="BLHZM9JiFqPwn2z5KHV6-33" value="Points" style="shape=partialRectangle;html=1;whiteSpace=wrap;connectable=0;strokeColor=inherit;overflow=hidden;fillColor=none;top=0;left=0;bottom=0;right=0;pointerEvents=1;" parent="BLHZM9JiFqPwn2z5KHV6-29" vertex="1"><mxGeometry x="350" width="118" height="44" as="geometry"><mxRectangle width="118" height="44" as="alternateBounds"/></mxGeometry></mxCell><mxCell id="BLHZM9JiFqPwn2z5KHV6-34" value="" style="shape=tableRow;horizontal=0;startSize=0;swimlaneHead=0;swimlaneBody=0;strokeColor=inherit;top=0;left=0;bottom=0;right=0;collapsible=0;dropTarget=0;fillColor=none;points=[[0,0.5],[1,0.5]];portConstraint=eastwest;" parent="BLHZM9JiFqPwn2z5KHV6-28" vertex="1"><mxGeometry y="64" width="468" height="47" as="geometry"/></mxCell><mxCell id="BLHZM9JiFqPwn2z5KHV6-35" value="Time" style="shape=partialRectangle;html=1;whiteSpace=wrap;connectable=0;strokeColor=inherit;overflow=hidden;fillColor=none;top=0;left=0;bottom=0;right=0;pointerEvents=1;" parent="BLHZM9JiFqPwn2z5KHV6-34" vertex="1"><mxGeometry width="118" height="47" as="geometry"><mxRectangle width="118" height="47" as="alternateBounds"/></mxGeometry></mxCell><mxCell id="BLHZM9JiFqPwn2z5KHV6-36" value="How long the student took to answer" style="shape=partialRectangle;html=1;whiteSpace=wrap;connectable=0;strokeColor=inherit;overflow=hidden;fillColor=none;top=0;left=0;bottom=0;right=0;pointerEvents=1;" parent="BLHZM9JiFqPwn2z5KHV6-34" vertex="1"><mxGeometry x="118" width="114" height="47" as="geometry"><mxRectangle width="114" height="47" as="alternateBounds"/></mxGeometry></mxCell><mxCell id="BLHZM9JiFqPwn2z5KHV6-37" value="0,5" style="shape=partialRectangle;html=1;whiteSpace=wrap;connectable=0;strokeColor=inherit;overflow=hidden;fillColor=none;top=0;left=0;bottom=0;right=0;pointerEvents=1;" parent="BLHZM9JiFqPwn2z5KHV6-34" vertex="1"><mxGeometry x="232" width="118" height="47" as="geometry"><mxRectangle width="118" height="47" as="alternateBounds"/></mxGeometry></mxCell><mxCell id="BLHZM9JiFqPwn2z5KHV6-38" value="5" style="shape=partialRectangle;html=1;whiteSpace=wrap;connectable=0;strokeColor=inherit;overflow=hidden;fillColor=none;top=0;left=0;bottom=0;right=0;pointerEvents=1;" parent="BLHZM9JiFqPwn2z5KHV6-34" vertex="1"><mxGeometry x="350" width="118" height="47" as="geometry"><mxRectangle width="118" height="47" as="alternateBounds"/></mxGeometry></mxCell><mxCell id="BLHZM9JiFqPwn2z5KHV6-39" style="shape=tableRow;horizontal=0;startSize=0;swimlaneHead=0;swimlaneBody=0;strokeColor=inherit;top=0;left=0;bottom=0;right=0;collapsible=0;dropTarget=0;fillColor=none;points=[[0,0.5],[1,0.5]];portConstraint=eastwest;" parent="BLHZM9JiFqPwn2z5KHV6-28" vertex="1"><mxGeometry y="111" width="468" height="45" as="geometry"/></mxCell><mxCell id="BLHZM9JiFqPwn2z5KHV6-40" value="Correctness" style="shape=partialRectangle;html=1;whiteSpace=wrap;connectable=0;strokeColor=inherit;overflow=hidden;fillColor=none;top=0;left=0;bottom=0;right=0;pointerEvents=1;" parent="BLHZM9JiFqPwn2z5KHV6-39" vertex="1"><mxGeometry width="118" height="45" as="geometry"><mxRectangle width="118" height="45" as="alternateBounds"/></mxGeometry></mxCell><mxCell id="BLHZM9JiFqPwn2z5KHV6-41" value="Was it correct" style="shape=partialRectangle;html=1;whiteSpace=wrap;connectable=0;strokeColor=inherit;overflow=hidden;fillColor=none;top=0;left=0;bottom=0;right=0;pointerEvents=1;" parent="BLHZM9JiFqPwn2z5KHV6-39" vertex="1"><mxGeometry x="118" width="114" height="45" as="geometry"><mxRectangle width="114" height="45" as="alternateBounds"/></mxGeometry></mxCell><mxCell id="BLHZM9JiFqPwn2z5KHV6-42" value="0.25" style="shape=partialRectangle;html=1;whiteSpace=wrap;connectable=0;strokeColor=inherit;overflow=hidden;fillColor=none;top=0;left=0;bottom=0;right=0;pointerEvents=1;" parent="BLHZM9JiFqPwn2z5KHV6-39" vertex="1"><mxGeometry x="232" width="118" height="45" as="geometry"><mxRectangle width="118" height="45" as="alternateBounds"/></mxGeometry></mxCell><mxCell id="BLHZM9JiFqPwn2z5KHV6-43" value="2.5" style="shape=partialRectangle;html=1;whiteSpace=wrap;connectable=0;strokeColor=inherit;overflow=hidden;fillColor=none;top=0;left=0;bottom=0;right=0;pointerEvents=1;" parent="BLHZM9JiFqPwn2z5KHV6-39" vertex="1"><mxGeometry x="350" width="118" height="45" as="geometry"><mxRectangle width="118" height="45" as="alternateBounds"/></mxGeometry></mxCell><mxCell id="BLHZM9JiFqPwn2z5KHV6-44" style="shape=tableRow;horizontal=0;startSize=0;swimlaneHead=0;swimlaneBody=0;strokeColor=inherit;top=0;left=0;bottom=0;right=0;collapsible=0;dropTarget=0;fillColor=none;points=[[0,0.5],[1,0.5]];portConstraint=eastwest;" parent="BLHZM9JiFqPwn2z5KHV6-28" vertex="1"><mxGeometry y="156" width="468" height="44" as="geometry"/></mxCell><mxCell id="BLHZM9JiFqPwn2z5KHV6-45" value="Whatever else" style="shape=partialRectangle;html=1;whiteSpace=wrap;connectable=0;strokeColor=inherit;overflow=hidden;fillColor=none;top=0;left=0;bottom=0;right=0;pointerEvents=1;" parent="BLHZM9JiFqPwn2z5KHV6-44" vertex="1"><mxGeometry width="118" height="44" as="geometry"><mxRectangle width="118" height="44" as="alternateBounds"/></mxGeometry></mxCell><mxCell id="BLHZM9JiFqPwn2z5KHV6-46" value="Am I in a good mood" style="shape=partialRectangle;html=1;whiteSpace=wrap;connectable=0;strokeColor=inherit;overflow=hidden;fillColor=none;top=0;left=0;bottom=0;right=0;pointerEvents=1;" parent="BLHZM9JiFqPwn2z5KHV6-44" vertex="1"><mxGeometry x="118" width="114" height="44" as="geometry"><mxRectangle width="114" height="44" as="alternateBounds"/></mxGeometry></mxCell><mxCell id="BLHZM9JiFqPwn2z5KHV6-47" value="0.3" style="shape=partialRectangle;html=1;whiteSpace=wrap;connectable=0;strokeColor=#b85450;overflow=hidden;fillColor=#f8cecc;top=0;left=0;bottom=0;right=0;pointerEvents=1;" parent="BLHZM9JiFqPwn2z5KHV6-44" vertex="1"><mxGeometry x="232" width="118" height="44" as="geometry"><mxRectangle width="118" height="44" as="alternateBounds"/></mxGeometry></mxCell><mxCell id="BLHZM9JiFqPwn2z5KHV6-48" value="Error" style="shape=partialRectangle;html=1;whiteSpace=wrap;connectable=0;strokeColor=#b85450;overflow=hidden;fillColor=#f8cecc;top=0;left=0;bottom=0;right=0;pointerEvents=1;" parent="BLHZM9JiFqPwn2z5KHV6-44" vertex="1"><mxGeometry x="350" width="118" height="44" as="geometry"><mxRectangle width="118" height="44" as="alternateBounds"/></mxGeometry></mxCell><mxCell id="BLHZM9JiFqPwn2z5KHV6-49" value="Question Text" style="shape=table;startSize=20;container=1;collapsible=0;childLayout=tableLayout;" parent="1" vertex="1"><mxGeometry x="2750" y="870" width="380" height="200" as="geometry"/></mxCell><mxCell id="BLHZM9JiFqPwn2z5KHV6-50" value="" style="shape=tableRow;horizontal=0;startSize=0;swimlaneHead=0;swimlaneBody=0;strokeColor=inherit;top=0;left=0;bottom=0;right=0;collapsible=0;dropTarget=0;fillColor=none;points=[[0,0.5],[1,0.5]];portConstraint=eastwest;" parent="BLHZM9JiFqPwn2z5KHV6-49" vertex="1"><mxGeometry y="20" width="380" height="180" as="geometry"/></mxCell><mxCell id="BLHZM9JiFqPwn2z5KHV6-51" value="What is 1+1?" style="shape=partialRectangle;html=1;whiteSpace=wrap;connectable=0;strokeColor=inherit;overflow=hidden;fillColor=none;top=0;left=0;bottom=0;right=0;pointerEvents=1;" parent="BLHZM9JiFqPwn2z5KHV6-50" vertex="1"><mxGeometry width="380" height="180" as="geometry"><mxRectangle width="380" height="180" as="alternateBounds"/></mxGeometry></mxCell><mxCell id="BLHZM9JiFqPwn2z5KHV6-52" value="add" style="rounded=0;whiteSpace=wrap;html=1;" parent="1" vertex="1"><mxGeometry x="2600" y="780" width="60" height="30" as="geometry"/></mxCell><mxCell id="BLHZM9JiFqPwn2z5KHV6-53" value="remove" style="rounded=0;whiteSpace=wrap;html=1;" parent="1" vertex="1"><mxGeometry x="2670" y="780" width="60" height="30" as="geometry"/></mxCell><mxCell id="BLHZM9JiFqPwn2z5KHV6-54" value="" style="triangle;whiteSpace=wrap;html=1;rotation=90;" parent="1" vertex="1"><mxGeometry x="2560.5" y="784" width="16" height="23" as="geometry"/></mxCell><mxCell id="BLHZM9JiFqPwn2z5KHV6-55" value="Professor" style="rounded=0;whiteSpace=wrap;html=1;" parent="1" vertex="1"><mxGeometry x="3330" y="779.25" width="210" height="61.5" as="geometry"/></mxCell><mxCell id="BLHZM9JiFqPwn2z5KHV6-56" value="logout" style="rounded=0;whiteSpace=wrap;html=1;" parent="1" vertex="1"><mxGeometry x="3550" y="778.5" width="70" height="61.5" as="geometry"/></mxCell><mxCell id="BLHZM9JiFqPwn2z5KHV6-57" value="" style="rounded=0;whiteSpace=wrap;html=1;fillColor=#d5e8d4;strokeColor=#82b366;" parent="1" vertex="1"><mxGeometry x="3316" y="530" width="120" height="30" as="geometry"/></mxCell><mxCell id="BLHZM9JiFqPwn2z5KHV6-58" value="" style="rounded=0;whiteSpace=wrap;html=1;fillColor=#f8cecc;strokeColor=#b85450;" parent="1" vertex="1"><mxGeometry x="3316" y="570" width="120" height="30" as="geometry"/></mxCell><mxCell id="BLHZM9JiFqPwn2z5KHV6-59" value="Selected from Table (clicked)" style="text;html=1;strokeColor=none;fillColor=none;align=center;verticalAlign=middle;whiteSpace=wrap;rounded=0;" parent="1" vertex="1"><mxGeometry x="3446" y="530" width="172" height="30" as="geometry"/></mxCell><mxCell id="BLHZM9JiFqPwn2z5KHV6-60" value="Should notify error and disable saving" style="text;html=1;strokeColor=none;fillColor=none;align=center;verticalAlign=middle;whiteSpace=wrap;rounded=0;" parent="1" vertex="1"><mxGeometry x="3446" y="570" width="172" height="30" as="geometry"/></mxCell><mxCell id="BLHZM9JiFqPwn2z5KHV6-61" value="Maybe a separate UI to handle Subjects and Topics" style="shape=callout;whiteSpace=wrap;html=1;perimeter=calloutPerimeter;position2=0.33;" parent="1" vertex="1"><mxGeometry x="2650" y="590" width="210" height="175" as="geometry"/></mxCell><mxCell id="VlXipdVHENBWRYJrT8tq-1" value="It might also make sense to just save the topics as a simple varchar in the questions table and provide an autofill column in the UI questions table" style="shape=callout;whiteSpace=wrap;html=1;perimeter=calloutPerimeter;position2=0.95;" parent="1" vertex="1"><mxGeometry x="2160" y="590" width="210" height="175" as="geometry"/></mxCell><mxCell id="VlXipdVHENBWRYJrT8tq-2" value="" style="rounded=0;whiteSpace=wrap;html=1;fillColor=#e1d5e7;strokeColor=#9673a6;" parent="1" vertex="1"><mxGeometry x="3316" y="620" width="120" height="30" as="geometry"/></mxCell><mxCell id="VlXipdVHENBWRYJrT8tq-3" value="Could be added or removed. Not sure yet." style="text;html=1;strokeColor=none;fillColor=none;align=center;verticalAlign=middle;whiteSpace=wrap;rounded=0;" parent="1" vertex="1"><mxGeometry x="3448" y="620" width="172" height="30" as="geometry"/></mxCell></root></mxGraphModel></diagram><diagram id="D2yh81YAm7_dSZtewF7W" name="pretty2"><mxGraphModel dx="-1044" dy="628" grid="1" gridSize="10" guides="1" tooltips="1" connect="1" arrows="1" fold="1" page="1" pageScale="1" pageWidth="827" pageHeight="1169" math="0" shadow="0"><root><mxCell id="0"/><mxCell id="1" parent="0"/><mxCell id="WbIzngpiIjyWAqJz2QKn-1" value="Photo" style="ellipse;whiteSpace=wrap;html=1;aspect=fixed;" parent="1" vertex="1"><mxGeometry x="3260" y="780" width="60" height="60" as="geometry"/></mxCell><mxCell id="WbIzngpiIjyWAqJz2QKn-2" value="Subject" style="rounded=0;whiteSpace=wrap;html=1;" parent="1" vertex="1"><mxGeometry x="2380" y="780" width="210" height="30" as="geometry"/></mxCell><mxCell id="WbIzngpiIjyWAqJz2QKn-3" value="add" style="rounded=0;whiteSpace=wrap;html=1;fillColor=#e1d5e7;strokeColor=#9673a6;" parent="1" vertex="1"><mxGeometry x="2600" y="820" width="60" height="30" as="geometry"/></mxCell><mxCell id="WbIzngpiIjyWAqJz2QKn-4" value="remove" style="rounded=0;whiteSpace=wrap;html=1;fillColor=#e1d5e7;strokeColor=#9673a6;" parent="1" vertex="1"><mxGeometry x="2670" y="820" width="60" height="30" as="geometry"/></mxCell><mxCell id="WbIzngpiIjyWAqJz2QKn-5" value="" style="group" parent="1" vertex="1" connectable="0"><mxGeometry x="2380" y="820" width="210" height="30" as="geometry"/></mxCell><mxCell id="WbIzngpiIjyWAqJz2QKn-6" value="Topics" style="rounded=0;whiteSpace=wrap;html=1;" parent="WbIzngpiIjyWAqJz2QKn-5" vertex="1"><mxGeometry width="210" height="30" as="geometry"/></mxCell><mxCell id="WbIzngpiIjyWAqJz2QKn-7" value="" style="triangle;whiteSpace=wrap;html=1;rotation=90;" parent="WbIzngpiIjyWAqJz2QKn-5" vertex="1"><mxGeometry x="180.5" y="5.5" width="16" height="23" as="geometry"/></mxCell><mxCell id="WbIzngpiIjyWAqJz2QKn-8" style="edgeStyle=orthogonalEdgeStyle;rounded=0;orthogonalLoop=1;jettySize=auto;html=1;exitX=0.5;exitY=1;exitDx=0;exitDy=0;" parent="WbIzngpiIjyWAqJz2QKn-5" source="WbIzngpiIjyWAqJz2QKn-6" target="WbIzngpiIjyWAqJz2QKn-6" edge="1"><mxGeometry relative="1" as="geometry"/></mxCell><mxCell id="WbIzngpiIjyWAqJz2QKn-9" value="Questions" style="shape=table;startSize=20;container=1;collapsible=0;childLayout=tableLayout;" parent="1" vertex="1"><mxGeometry x="2387.5" y="870" width="332.5" height="200" as="geometry"/></mxCell><mxCell id="WbIzngpiIjyWAqJz2QKn-10" value="" style="shape=tableRow;horizontal=0;startSize=0;swimlaneHead=0;swimlaneBody=0;strokeColor=inherit;top=0;left=0;bottom=0;right=0;collapsible=0;dropTarget=0;fillColor=none;points=[[0,0.5],[1,0.5]];portConstraint=eastwest;" parent="WbIzngpiIjyWAqJz2QKn-9" vertex="1"><mxGeometry y="20" width="332.5" height="30" as="geometry"/></mxCell><mxCell id="yFhCi1F7-TVTzixulOKe-1" value="Selected" style="shape=partialRectangle;html=1;whiteSpace=wrap;connectable=0;strokeColor=inherit;overflow=hidden;fillColor=none;top=0;left=0;bottom=0;right=0;pointerEvents=1;" parent="WbIzngpiIjyWAqJz2QKn-10" vertex="1"><mxGeometry width="52" height="30" as="geometry"><mxRectangle width="52" height="30" as="alternateBounds"/></mxGeometry></mxCell><mxCell id="WbIzngpiIjyWAqJz2QKn-11" value="Question" style="shape=partialRectangle;html=1;whiteSpace=wrap;connectable=0;strokeColor=inherit;overflow=hidden;fillColor=none;top=0;left=0;bottom=0;right=0;pointerEvents=1;" parent="WbIzngpiIjyWAqJz2QKn-10" vertex="1"><mxGeometry x="52" width="170" height="30" as="geometry"><mxRectangle width="170" height="30" as="alternateBounds"/></mxGeometry></mxCell><mxCell id="WbIzngpiIjyWAqJz2QKn-12" value="points" style="shape=partialRectangle;html=1;whiteSpace=wrap;connectable=0;strokeColor=inherit;overflow=hidden;fillColor=none;top=0;left=0;bottom=0;right=0;pointerEvents=1;" parent="WbIzngpiIjyWAqJz2QKn-10" vertex="1"><mxGeometry x="222" width="111" height="30" as="geometry"><mxRectangle width="111" height="30" as="alternateBounds"/></mxGeometry></mxCell><mxCell id="WbIzngpiIjyWAqJz2QKn-13" style="shape=tableRow;horizontal=0;startSize=0;swimlaneHead=0;swimlaneBody=0;strokeColor=inherit;top=0;left=0;bottom=0;right=0;collapsible=0;dropTarget=0;fillColor=none;points=[[0,0.5],[1,0.5]];portConstraint=eastwest;" parent="WbIzngpiIjyWAqJz2QKn-9" vertex="1"><mxGeometry y="50" width="332.5" height="30" as="geometry"/></mxCell><mxCell id="yFhCi1F7-TVTzixulOKe-2" style="shape=partialRectangle;html=1;whiteSpace=wrap;connectable=0;strokeColor=#82b366;overflow=hidden;fillColor=#d5e8d4;top=0;left=0;bottom=0;right=0;pointerEvents=1;" parent="WbIzngpiIjyWAqJz2QKn-13" vertex="1"><mxGeometry width="52" height="30" as="geometry"><mxRectangle width="52" height="30" as="alternateBounds"/></mxGeometry></mxCell><mxCell id="WbIzngpiIjyWAqJz2QKn-14" value="Addition" style="shape=partialRectangle;html=1;whiteSpace=wrap;connectable=0;strokeColor=#82b366;overflow=hidden;fillColor=#d5e8d4;top=0;left=0;bottom=0;right=0;pointerEvents=1;" parent="WbIzngpiIjyWAqJz2QKn-13" vertex="1"><mxGeometry x="52" width="170" height="30" as="geometry"><mxRectangle width="170" height="30" as="alternateBounds"/></mxGeometry></mxCell><mxCell id="WbIzngpiIjyWAqJz2QKn-15" value="10" style="shape=partialRectangle;html=1;whiteSpace=wrap;connectable=0;strokeColor=#82b366;overflow=hidden;fillColor=#d5e8d4;top=0;left=0;bottom=0;right=0;pointerEvents=1;" parent="WbIzngpiIjyWAqJz2QKn-13" vertex="1"><mxGeometry x="222" width="111" height="30" as="geometry"><mxRectangle width="111" height="30" as="alternateBounds"/></mxGeometry></mxCell><mxCell id="WbIzngpiIjyWAqJz2QKn-16" style="shape=tableRow;horizontal=0;startSize=0;swimlaneHead=0;swimlaneBody=0;strokeColor=inherit;top=0;left=0;bottom=0;right=0;collapsible=0;dropTarget=0;fillColor=none;points=[[0,0.5],[1,0.5]];portConstraint=eastwest;" parent="WbIzngpiIjyWAqJz2QKn-9" vertex="1"><mxGeometry y="80" width="332.5" height="30" as="geometry"/></mxCell><mxCell id="yFhCi1F7-TVTzixulOKe-3" style="shape=partialRectangle;html=1;whiteSpace=wrap;connectable=0;strokeColor=inherit;overflow=hidden;fillColor=none;top=0;left=0;bottom=0;right=0;pointerEvents=1;" parent="WbIzngpiIjyWAqJz2QKn-16" vertex="1"><mxGeometry width="52" height="30" as="geometry"><mxRectangle width="52" height="30" as="alternateBounds"/></mxGeometry></mxCell><mxCell id="WbIzngpiIjyWAqJz2QKn-17" value="Substraction" style="shape=partialRectangle;html=1;whiteSpace=wrap;connectable=0;strokeColor=inherit;overflow=hidden;fillColor=none;top=0;left=0;bottom=0;right=0;pointerEvents=1;" parent="WbIzngpiIjyWAqJz2QKn-16" vertex="1"><mxGeometry x="52" width="170" height="30" as="geometry"><mxRectangle width="170" height="30" as="alternateBounds"/></mxGeometry></mxCell><mxCell id="WbIzngpiIjyWAqJz2QKn-18" value="20" style="shape=partialRectangle;html=1;whiteSpace=wrap;connectable=0;strokeColor=inherit;overflow=hidden;fillColor=none;top=0;left=0;bottom=0;right=0;pointerEvents=1;" parent="WbIzngpiIjyWAqJz2QKn-16" vertex="1"><mxGeometry x="222" width="111" height="30" as="geometry"><mxRectangle width="111" height="30" as="alternateBounds"/></mxGeometry></mxCell><mxCell id="WbIzngpiIjyWAqJz2QKn-19" style="shape=tableRow;horizontal=0;startSize=0;swimlaneHead=0;swimlaneBody=0;strokeColor=inherit;top=0;left=0;bottom=0;right=0;collapsible=0;dropTarget=0;fillColor=none;points=[[0,0.5],[1,0.5]];portConstraint=eastwest;" parent="WbIzngpiIjyWAqJz2QKn-9" vertex="1"><mxGeometry y="110" width="332.5" height="30" as="geometry"/></mxCell><mxCell id="yFhCi1F7-TVTzixulOKe-4" style="shape=partialRectangle;html=1;whiteSpace=wrap;connectable=0;strokeColor=inherit;overflow=hidden;fillColor=none;top=0;left=0;bottom=0;right=0;pointerEvents=1;" parent="WbIzngpiIjyWAqJz2QKn-19" vertex="1"><mxGeometry width="52" height="30" as="geometry"><mxRectangle width="52" height="30" as="alternateBounds"/></mxGeometry></mxCell><mxCell id="WbIzngpiIjyWAqJz2QKn-20" value="Area of a Triangle" style="shape=partialRectangle;html=1;whiteSpace=wrap;connectable=0;strokeColor=inherit;overflow=hidden;fillColor=none;top=0;left=0;bottom=0;right=0;pointerEvents=1;" parent="WbIzngpiIjyWAqJz2QKn-19" vertex="1"><mxGeometry x="52" width="170" height="30" as="geometry"><mxRectangle width="170" height="30" as="alternateBounds"/></mxGeometry></mxCell><mxCell id="WbIzngpiIjyWAqJz2QKn-21" value="error" style="shape=partialRectangle;html=1;whiteSpace=wrap;connectable=0;strokeColor=#b85450;overflow=hidden;fillColor=#f8cecc;top=0;left=0;bottom=0;right=0;pointerEvents=1;" parent="WbIzngpiIjyWAqJz2QKn-19" vertex="1"><mxGeometry x="222" width="111" height="30" as="geometry"><mxRectangle width="111" height="30" as="alternateBounds"/></mxGeometry></mxCell><mxCell id="WbIzngpiIjyWAqJz2QKn-22" style="shape=tableRow;horizontal=0;startSize=0;swimlaneHead=0;swimlaneBody=0;strokeColor=inherit;top=0;left=0;bottom=0;right=0;collapsible=0;dropTarget=0;fillColor=none;points=[[0,0.5],[1,0.5]];portConstraint=eastwest;" parent="WbIzngpiIjyWAqJz2QKn-9" vertex="1"><mxGeometry y="140" width="332.5" height="30" as="geometry"/></mxCell><mxCell id="yFhCi1F7-TVTzixulOKe-5" style="shape=partialRectangle;html=1;whiteSpace=wrap;connectable=0;strokeColor=inherit;overflow=hidden;fillColor=none;top=0;left=0;bottom=0;right=0;pointerEvents=1;" parent="WbIzngpiIjyWAqJz2QKn-22" vertex="1"><mxGeometry width="52" height="30" as="geometry"><mxRectangle width="52" height="30" as="alternateBounds"/></mxGeometry></mxCell><mxCell id="WbIzngpiIjyWAqJz2QKn-23" style="shape=partialRectangle;html=1;whiteSpace=wrap;connectable=0;strokeColor=inherit;overflow=hidden;fillColor=none;top=0;left=0;bottom=0;right=0;pointerEvents=1;" parent="WbIzngpiIjyWAqJz2QKn-22" vertex="1"><mxGeometry x="52" width="170" height="30" as="geometry"><mxRectangle width="170" height="30" as="alternateBounds"/></mxGeometry></mxCell><mxCell id="WbIzngpiIjyWAqJz2QKn-24" style="shape=partialRectangle;html=1;whiteSpace=wrap;connectable=0;strokeColor=inherit;overflow=hidden;fillColor=none;top=0;left=0;bottom=0;right=0;pointerEvents=1;" parent="WbIzngpiIjyWAqJz2QKn-22" vertex="1"><mxGeometry x="222" width="111" height="30" as="geometry"><mxRectangle width="111" height="30" as="alternateBounds"/></mxGeometry></mxCell><mxCell id="WbIzngpiIjyWAqJz2QKn-25" style="shape=tableRow;horizontal=0;startSize=0;swimlaneHead=0;swimlaneBody=0;strokeColor=inherit;top=0;left=0;bottom=0;right=0;collapsible=0;dropTarget=0;fillColor=none;points=[[0,0.5],[1,0.5]];portConstraint=eastwest;" parent="WbIzngpiIjyWAqJz2QKn-9" vertex="1"><mxGeometry y="170" width="332.5" height="30" as="geometry"/></mxCell><mxCell id="yFhCi1F7-TVTzixulOKe-6" style="shape=partialRectangle;html=1;whiteSpace=wrap;connectable=0;strokeColor=inherit;overflow=hidden;fillColor=none;top=0;left=0;bottom=0;right=0;pointerEvents=1;" parent="WbIzngpiIjyWAqJz2QKn-25" vertex="1"><mxGeometry width="52" height="30" as="geometry"><mxRectangle width="52" height="30" as="alternateBounds"/></mxGeometry></mxCell><mxCell id="WbIzngpiIjyWAqJz2QKn-26" style="shape=partialRectangle;html=1;whiteSpace=wrap;connectable=0;strokeColor=inherit;overflow=hidden;fillColor=none;top=0;left=0;bottom=0;right=0;pointerEvents=1;" parent="WbIzngpiIjyWAqJz2QKn-25" vertex="1"><mxGeometry x="52" width="170" height="30" as="geometry"><mxRectangle width="170" height="30" as="alternateBounds"/></mxGeometry></mxCell><mxCell id="WbIzngpiIjyWAqJz2QKn-27" style="shape=partialRectangle;html=1;whiteSpace=wrap;connectable=0;strokeColor=inherit;overflow=hidden;fillColor=none;top=0;left=0;bottom=0;right=0;pointerEvents=1;" parent="WbIzngpiIjyWAqJz2QKn-25" vertex="1"><mxGeometry x="222" width="111" height="30" as="geometry"><mxRectangle width="111" height="30" as="alternateBounds"/></mxGeometry></mxCell><mxCell id="WbIzngpiIjyWAqJz2QKn-28" value="Criterias" style="shape=table;startSize=20;container=1;collapsible=0;childLayout=tableLayout;" parent="1" vertex="1"><mxGeometry x="3150" y="870" width="490" height="200" as="geometry"/></mxCell><mxCell id="WbIzngpiIjyWAqJz2QKn-29" value="" style="shape=tableRow;horizontal=0;startSize=0;swimlaneHead=0;swimlaneBody=0;strokeColor=inherit;top=0;left=0;bottom=0;right=0;collapsible=0;dropTarget=0;fillColor=none;points=[[0,0.5],[1,0.5]];portConstraint=eastwest;" parent="WbIzngpiIjyWAqJz2QKn-28" vertex="1"><mxGeometry y="20" width="490" height="44" as="geometry"/></mxCell><mxCell id="WbIzngpiIjyWAqJz2QKn-30" value="Criteria" style="shape=partialRectangle;html=1;whiteSpace=wrap;connectable=0;strokeColor=inherit;overflow=hidden;fillColor=none;top=0;left=0;bottom=0;right=0;pointerEvents=1;" parent="WbIzngpiIjyWAqJz2QKn-29" vertex="1"><mxGeometry width="120" height="44" as="geometry"><mxRectangle width="120" height="44" as="alternateBounds"/></mxGeometry></mxCell><mxCell id="WbIzngpiIjyWAqJz2QKn-31" value="Description" style="shape=partialRectangle;html=1;whiteSpace=wrap;connectable=0;strokeColor=inherit;overflow=hidden;fillColor=none;top=0;left=0;bottom=0;right=0;pointerEvents=1;" parent="WbIzngpiIjyWAqJz2QKn-29" vertex="1"><mxGeometry x="120" width="117" height="44" as="geometry"><mxRectangle width="117" height="44" as="alternateBounds"/></mxGeometry></mxCell><mxCell id="WbIzngpiIjyWAqJz2QKn-32" value="Weight/Priority" style="shape=partialRectangle;html=1;whiteSpace=wrap;connectable=0;strokeColor=inherit;overflow=hidden;fillColor=none;top=0;left=0;bottom=0;right=0;pointerEvents=1;" parent="WbIzngpiIjyWAqJz2QKn-29" vertex="1"><mxGeometry x="237" width="120" height="44" as="geometry"><mxRectangle width="120" height="44" as="alternateBounds"/></mxGeometry></mxCell><mxCell id="WbIzngpiIjyWAqJz2QKn-33" value="Points" style="shape=partialRectangle;html=1;whiteSpace=wrap;connectable=0;strokeColor=inherit;overflow=hidden;fillColor=none;top=0;left=0;bottom=0;right=0;pointerEvents=1;" parent="WbIzngpiIjyWAqJz2QKn-29" vertex="1"><mxGeometry x="357" width="133" height="44" as="geometry"><mxRectangle width="133" height="44" as="alternateBounds"/></mxGeometry></mxCell><mxCell id="WbIzngpiIjyWAqJz2QKn-34" value="" style="shape=tableRow;horizontal=0;startSize=0;swimlaneHead=0;swimlaneBody=0;strokeColor=inherit;top=0;left=0;bottom=0;right=0;collapsible=0;dropTarget=0;fillColor=none;points=[[0,0.5],[1,0.5]];portConstraint=eastwest;" parent="WbIzngpiIjyWAqJz2QKn-28" vertex="1"><mxGeometry y="64" width="490" height="47" as="geometry"/></mxCell><mxCell id="WbIzngpiIjyWAqJz2QKn-35" value="Time" style="shape=partialRectangle;html=1;whiteSpace=wrap;connectable=0;strokeColor=inherit;overflow=hidden;fillColor=none;top=0;left=0;bottom=0;right=0;pointerEvents=1;" parent="WbIzngpiIjyWAqJz2QKn-34" vertex="1"><mxGeometry width="120" height="47" as="geometry"><mxRectangle width="120" height="47" as="alternateBounds"/></mxGeometry></mxCell><mxCell id="WbIzngpiIjyWAqJz2QKn-36" value="How long the student took to answer" style="shape=partialRectangle;html=1;whiteSpace=wrap;connectable=0;strokeColor=inherit;overflow=hidden;fillColor=none;top=0;left=0;bottom=0;right=0;pointerEvents=1;" parent="WbIzngpiIjyWAqJz2QKn-34" vertex="1"><mxGeometry x="120" width="117" height="47" as="geometry"><mxRectangle width="117" height="47" as="alternateBounds"/></mxGeometry></mxCell><mxCell id="WbIzngpiIjyWAqJz2QKn-37" value="0,5" style="shape=partialRectangle;html=1;whiteSpace=wrap;connectable=0;strokeColor=inherit;overflow=hidden;fillColor=none;top=0;left=0;bottom=0;right=0;pointerEvents=1;" parent="WbIzngpiIjyWAqJz2QKn-34" vertex="1"><mxGeometry x="237" width="120" height="47" as="geometry"><mxRectangle width="120" height="47" as="alternateBounds"/></mxGeometry></mxCell><mxCell id="WbIzngpiIjyWAqJz2QKn-38" value="5" style="shape=partialRectangle;html=1;whiteSpace=wrap;connectable=0;strokeColor=inherit;overflow=hidden;fillColor=none;top=0;left=0;bottom=0;right=0;pointerEvents=1;" parent="WbIzngpiIjyWAqJz2QKn-34" vertex="1"><mxGeometry x="357" width="133" height="47" as="geometry"><mxRectangle width="133" height="47" as="alternateBounds"/></mxGeometry></mxCell><mxCell id="WbIzngpiIjyWAqJz2QKn-39" style="shape=tableRow;horizontal=0;startSize=0;swimlaneHead=0;swimlaneBody=0;strokeColor=inherit;top=0;left=0;bottom=0;right=0;collapsible=0;dropTarget=0;fillColor=none;points=[[0,0.5],[1,0.5]];portConstraint=eastwest;" parent="WbIzngpiIjyWAqJz2QKn-28" vertex="1"><mxGeometry y="111" width="490" height="45" as="geometry"/></mxCell><mxCell id="WbIzngpiIjyWAqJz2QKn-40" value="Correctness" style="shape=partialRectangle;html=1;whiteSpace=wrap;connectable=0;strokeColor=inherit;overflow=hidden;fillColor=none;top=0;left=0;bottom=0;right=0;pointerEvents=1;" parent="WbIzngpiIjyWAqJz2QKn-39" vertex="1"><mxGeometry width="120" height="45" as="geometry"><mxRectangle width="120" height="45" as="alternateBounds"/></mxGeometry></mxCell><mxCell id="WbIzngpiIjyWAqJz2QKn-41" value="Was it correct" style="shape=partialRectangle;html=1;whiteSpace=wrap;connectable=0;strokeColor=inherit;overflow=hidden;fillColor=none;top=0;left=0;bottom=0;right=0;pointerEvents=1;" parent="WbIzngpiIjyWAqJz2QKn-39" vertex="1"><mxGeometry x="120" width="117" height="45" as="geometry"><mxRectangle width="117" height="45" as="alternateBounds"/></mxGeometry></mxCell><mxCell id="WbIzngpiIjyWAqJz2QKn-42" value="0.25" style="shape=partialRectangle;html=1;whiteSpace=wrap;connectable=0;strokeColor=inherit;overflow=hidden;fillColor=none;top=0;left=0;bottom=0;right=0;pointerEvents=1;" parent="WbIzngpiIjyWAqJz2QKn-39" vertex="1"><mxGeometry x="237" width="120" height="45" as="geometry"><mxRectangle width="120" height="45" as="alternateBounds"/></mxGeometry></mxCell><mxCell id="WbIzngpiIjyWAqJz2QKn-43" value="2.5" style="shape=partialRectangle;html=1;whiteSpace=wrap;connectable=0;strokeColor=inherit;overflow=hidden;fillColor=none;top=0;left=0;bottom=0;right=0;pointerEvents=1;" parent="WbIzngpiIjyWAqJz2QKn-39" vertex="1"><mxGeometry x="357" width="133" height="45" as="geometry"><mxRectangle width="133" height="45" as="alternateBounds"/></mxGeometry></mxCell><mxCell id="WbIzngpiIjyWAqJz2QKn-44" style="shape=tableRow;horizontal=0;startSize=0;swimlaneHead=0;swimlaneBody=0;strokeColor=inherit;top=0;left=0;bottom=0;right=0;collapsible=0;dropTarget=0;fillColor=none;points=[[0,0.5],[1,0.5]];portConstraint=eastwest;" parent="WbIzngpiIjyWAqJz2QKn-28" vertex="1"><mxGeometry y="156" width="490" height="44" as="geometry"/></mxCell><mxCell id="WbIzngpiIjyWAqJz2QKn-45" value="Whatever else" style="shape=partialRectangle;html=1;whiteSpace=wrap;connectable=0;strokeColor=inherit;overflow=hidden;fillColor=none;top=0;left=0;bottom=0;right=0;pointerEvents=1;" parent="WbIzngpiIjyWAqJz2QKn-44" vertex="1"><mxGeometry width="120" height="44" as="geometry"><mxRectangle width="120" height="44" as="alternateBounds"/></mxGeometry></mxCell><mxCell id="WbIzngpiIjyWAqJz2QKn-46" value="Am I in a good mood" style="shape=partialRectangle;html=1;whiteSpace=wrap;connectable=0;strokeColor=inherit;overflow=hidden;fillColor=none;top=0;left=0;bottom=0;right=0;pointerEvents=1;" parent="WbIzngpiIjyWAqJz2QKn-44" vertex="1"><mxGeometry x="120" width="117" height="44" as="geometry"><mxRectangle width="117" height="44" as="alternateBounds"/></mxGeometry></mxCell><mxCell id="WbIzngpiIjyWAqJz2QKn-47" value="0.3" style="shape=partialRectangle;html=1;whiteSpace=wrap;connectable=0;strokeColor=#b85450;overflow=hidden;fillColor=#f8cecc;top=0;left=0;bottom=0;right=0;pointerEvents=1;" parent="WbIzngpiIjyWAqJz2QKn-44" vertex="1"><mxGeometry x="237" width="120" height="44" as="geometry"><mxRectangle width="120" height="44" as="alternateBounds"/></mxGeometry></mxCell><mxCell id="WbIzngpiIjyWAqJz2QKn-48" value="Error" style="shape=partialRectangle;html=1;whiteSpace=wrap;connectable=0;strokeColor=#b85450;overflow=hidden;fillColor=#f8cecc;top=0;left=0;bottom=0;right=0;pointerEvents=1;" parent="WbIzngpiIjyWAqJz2QKn-44" vertex="1"><mxGeometry x="357" width="133" height="44" as="geometry"><mxRectangle width="133" height="44" as="alternateBounds"/></mxGeometry></mxCell><mxCell id="WbIzngpiIjyWAqJz2QKn-49" value="Question Text" style="shape=table;startSize=20;container=1;collapsible=0;childLayout=tableLayout;" parent="1" vertex="1"><mxGeometry x="2750" y="870" width="380" height="200" as="geometry"/></mxCell><mxCell id="WbIzngpiIjyWAqJz2QKn-50" value="" style="shape=tableRow;horizontal=0;startSize=0;swimlaneHead=0;swimlaneBody=0;strokeColor=inherit;top=0;left=0;bottom=0;right=0;collapsible=0;dropTarget=0;fillColor=none;points=[[0,0.5],[1,0.5]];portConstraint=eastwest;" parent="WbIzngpiIjyWAqJz2QKn-49" vertex="1"><mxGeometry y="20" width="380" height="180" as="geometry"/></mxCell><mxCell id="WbIzngpiIjyWAqJz2QKn-51" value="What is 1+1?" style="shape=partialRectangle;html=1;whiteSpace=wrap;connectable=0;strokeColor=inherit;overflow=hidden;fillColor=none;top=0;left=0;bottom=0;right=0;pointerEvents=1;" parent="WbIzngpiIjyWAqJz2QKn-50" vertex="1"><mxGeometry width="380" height="180" as="geometry"><mxRectangle width="380" height="180" as="alternateBounds"/></mxGeometry></mxCell><mxCell id="WbIzngpiIjyWAqJz2QKn-52" value="add" style="rounded=0;whiteSpace=wrap;html=1;fillColor=#e1d5e7;strokeColor=#9673a6;" parent="1" vertex="1"><mxGeometry x="2600" y="780" width="60" height="30" as="geometry"/></mxCell><mxCell id="WbIzngpiIjyWAqJz2QKn-53" value="remove" style="rounded=0;whiteSpace=wrap;html=1;fillColor=#e1d5e7;strokeColor=#9673a6;" parent="1" vertex="1"><mxGeometry x="2670" y="780" width="60" height="30" as="geometry"/></mxCell><mxCell id="WbIzngpiIjyWAqJz2QKn-54" value="" style="triangle;whiteSpace=wrap;html=1;rotation=90;" parent="1" vertex="1"><mxGeometry x="2560.5" y="784" width="16" height="23" as="geometry"/></mxCell><mxCell id="WbIzngpiIjyWAqJz2QKn-55" value="Professor" style="rounded=0;whiteSpace=wrap;html=1;" parent="1" vertex="1"><mxGeometry x="3340" y="779.25" width="210" height="61.5" as="geometry"/></mxCell><mxCell id="WbIzngpiIjyWAqJz2QKn-56" value="logout" style="rounded=0;whiteSpace=wrap;html=1;" parent="1" vertex="1"><mxGeometry x="3570" y="780" width="70" height="61.5" as="geometry"/></mxCell><mxCell id="WbIzngpiIjyWAqJz2QKn-57" value="" style="rounded=0;whiteSpace=wrap;html=1;fillColor=#d5e8d4;strokeColor=#82b366;" parent="1" vertex="1"><mxGeometry x="3316" y="530" width="120" height="30" as="geometry"/></mxCell><mxCell id="WbIzngpiIjyWAqJz2QKn-58" value="" style="rounded=0;whiteSpace=wrap;html=1;fillColor=#f8cecc;strokeColor=#b85450;" parent="1" vertex="1"><mxGeometry x="3316" y="570" width="120" height="30" as="geometry"/></mxCell><mxCell id="WbIzngpiIjyWAqJz2QKn-59" value="Selected from Table (clicked)" style="text;html=1;strokeColor=none;fillColor=none;align=center;verticalAlign=middle;whiteSpace=wrap;rounded=0;" parent="1" vertex="1"><mxGeometry x="3446" y="530" width="172" height="30" as="geometry"/></mxCell><mxCell id="WbIzngpiIjyWAqJz2QKn-60" value="Should notify error and disable saving" style="text;html=1;strokeColor=none;fillColor=none;align=center;verticalAlign=middle;whiteSpace=wrap;rounded=0;" parent="1" vertex="1"><mxGeometry x="3446" y="570" width="172" height="30" as="geometry"/></mxCell><mxCell id="WbIzngpiIjyWAqJz2QKn-61" value="Should Subjects Be editable from here" style="shape=callout;whiteSpace=wrap;html=1;perimeter=calloutPerimeter;position2=0.33;fillColor=#e1d5e7;strokeColor=#9673a6;" parent="1" vertex="1"><mxGeometry x="2650" y="590" width="210" height="175" as="geometry"/></mxCell><mxCell id="WbIzngpiIjyWAqJz2QKn-62" value="Questions" style="shape=table;startSize=20;container=1;collapsible=0;childLayout=tableLayout;" parent="1" vertex="1"><mxGeometry x="2380" y="1160" width="340" height="200" as="geometry"/></mxCell><mxCell id="WbIzngpiIjyWAqJz2QKn-63" value="" style="shape=tableRow;horizontal=0;startSize=0;swimlaneHead=0;swimlaneBody=0;strokeColor=inherit;top=0;left=0;bottom=0;right=0;collapsible=0;dropTarget=0;fillColor=none;points=[[0,0.5],[1,0.5]];portConstraint=eastwest;" parent="WbIzngpiIjyWAqJz2QKn-62" vertex="1"><mxGeometry y="20" width="340" height="30" as="geometry"/></mxCell><mxCell id="WbIzngpiIjyWAqJz2QKn-64" value="Question" style="shape=partialRectangle;html=1;whiteSpace=wrap;connectable=0;strokeColor=inherit;overflow=hidden;fillColor=none;top=0;left=0;bottom=0;right=0;pointerEvents=1;" parent="WbIzngpiIjyWAqJz2QKn-63" vertex="1"><mxGeometry width="114" height="30" as="geometry"><mxRectangle width="114" height="30" as="alternateBounds"/></mxGeometry></mxCell><mxCell id="WbIzngpiIjyWAqJz2QKn-65" value="points" style="shape=partialRectangle;html=1;whiteSpace=wrap;connectable=0;strokeColor=inherit;overflow=hidden;fillColor=none;top=0;left=0;bottom=0;right=0;pointerEvents=1;" parent="WbIzngpiIjyWAqJz2QKn-63" vertex="1"><mxGeometry x="114" width="112" height="30" as="geometry"><mxRectangle width="112" height="30" as="alternateBounds"/></mxGeometry></mxCell><mxCell id="WbIzngpiIjyWAqJz2QKn-66" value="achieved" style="shape=partialRectangle;html=1;whiteSpace=wrap;connectable=0;strokeColor=inherit;overflow=hidden;fillColor=none;top=0;left=0;bottom=0;right=0;pointerEvents=1;" parent="WbIzngpiIjyWAqJz2QKn-63" vertex="1"><mxGeometry x="226" width="114" height="30" as="geometry"><mxRectangle width="114" height="30" as="alternateBounds"/></mxGeometry></mxCell><mxCell id="WbIzngpiIjyWAqJz2QKn-67" style="shape=tableRow;horizontal=0;startSize=0;swimlaneHead=0;swimlaneBody=0;strokeColor=inherit;top=0;left=0;bottom=0;right=0;collapsible=0;dropTarget=0;fillColor=none;points=[[0,0.5],[1,0.5]];portConstraint=eastwest;" parent="WbIzngpiIjyWAqJz2QKn-62" vertex="1"><mxGeometry y="50" width="340" height="30" as="geometry"/></mxCell><mxCell id="WbIzngpiIjyWAqJz2QKn-68" value="Addition" style="shape=partialRectangle;html=1;whiteSpace=wrap;connectable=0;strokeColor=#82b366;overflow=hidden;fillColor=#d5e8d4;top=0;left=0;bottom=0;right=0;pointerEvents=1;" parent="WbIzngpiIjyWAqJz2QKn-67" vertex="1"><mxGeometry width="114" height="30" as="geometry"><mxRectangle width="114" height="30" as="alternateBounds"/></mxGeometry></mxCell><mxCell id="WbIzngpiIjyWAqJz2QKn-69" value="10" style="shape=partialRectangle;html=1;whiteSpace=wrap;connectable=0;strokeColor=#82b366;overflow=hidden;fillColor=#d5e8d4;top=0;left=0;bottom=0;right=0;pointerEvents=1;" parent="WbIzngpiIjyWAqJz2QKn-67" vertex="1"><mxGeometry x="114" width="112" height="30" as="geometry"><mxRectangle width="112" height="30" as="alternateBounds"/></mxGeometry></mxCell><mxCell id="WbIzngpiIjyWAqJz2QKn-70" value="7.5" style="shape=partialRectangle;html=1;whiteSpace=wrap;connectable=0;strokeColor=#82b366;overflow=hidden;fillColor=#d5e8d4;top=0;left=0;bottom=0;right=0;pointerEvents=1;" parent="WbIzngpiIjyWAqJz2QKn-67" vertex="1"><mxGeometry x="226" width="114" height="30" as="geometry"><mxRectangle width="114" height="30" as="alternateBounds"/></mxGeometry></mxCell><mxCell id="WbIzngpiIjyWAqJz2QKn-71" style="shape=tableRow;horizontal=0;startSize=0;swimlaneHead=0;swimlaneBody=0;strokeColor=inherit;top=0;left=0;bottom=0;right=0;collapsible=0;dropTarget=0;fillColor=none;points=[[0,0.5],[1,0.5]];portConstraint=eastwest;" parent="WbIzngpiIjyWAqJz2QKn-62" vertex="1"><mxGeometry y="80" width="340" height="30" as="geometry"/></mxCell><mxCell id="WbIzngpiIjyWAqJz2QKn-72" value="" style="shape=partialRectangle;html=1;whiteSpace=wrap;connectable=0;strokeColor=inherit;overflow=hidden;fillColor=none;top=0;left=0;bottom=0;right=0;pointerEvents=1;" parent="WbIzngpiIjyWAqJz2QKn-71" vertex="1"><mxGeometry width="114" height="30" as="geometry"><mxRectangle width="114" height="30" as="alternateBounds"/></mxGeometry></mxCell><mxCell id="WbIzngpiIjyWAqJz2QKn-73" value="" style="shape=partialRectangle;html=1;whiteSpace=wrap;connectable=0;strokeColor=inherit;overflow=hidden;fillColor=none;top=0;left=0;bottom=0;right=0;pointerEvents=1;" parent="WbIzngpiIjyWAqJz2QKn-71" vertex="1"><mxGeometry x="114" width="112" height="30" as="geometry"><mxRectangle width="112" height="30" as="alternateBounds"/></mxGeometry></mxCell><mxCell id="WbIzngpiIjyWAqJz2QKn-74" style="shape=partialRectangle;html=1;whiteSpace=wrap;connectable=0;strokeColor=inherit;overflow=hidden;fillColor=none;top=0;left=0;bottom=0;right=0;pointerEvents=1;" parent="WbIzngpiIjyWAqJz2QKn-71" vertex="1"><mxGeometry x="226" width="114" height="30" as="geometry"><mxRectangle width="114" height="30" as="alternateBounds"/></mxGeometry></mxCell><mxCell id="WbIzngpiIjyWAqJz2QKn-75" style="shape=tableRow;horizontal=0;startSize=0;swimlaneHead=0;swimlaneBody=0;strokeColor=inherit;top=0;left=0;bottom=0;right=0;collapsible=0;dropTarget=0;fillColor=none;points=[[0,0.5],[1,0.5]];portConstraint=eastwest;" parent="WbIzngpiIjyWAqJz2QKn-62" vertex="1"><mxGeometry y="110" width="340" height="30" as="geometry"/></mxCell><mxCell id="WbIzngpiIjyWAqJz2QKn-76" value="" style="shape=partialRectangle;html=1;whiteSpace=wrap;connectable=0;strokeColor=inherit;overflow=hidden;fillColor=none;top=0;left=0;bottom=0;right=0;pointerEvents=1;" parent="WbIzngpiIjyWAqJz2QKn-75" vertex="1"><mxGeometry width="114" height="30" as="geometry"><mxRectangle width="114" height="30" as="alternateBounds"/></mxGeometry></mxCell><mxCell id="WbIzngpiIjyWAqJz2QKn-77" value="" style="shape=partialRectangle;html=1;whiteSpace=wrap;connectable=0;overflow=hidden;top=0;left=0;bottom=0;right=0;pointerEvents=1;" parent="WbIzngpiIjyWAqJz2QKn-75" vertex="1"><mxGeometry x="114" width="112" height="30" as="geometry"><mxRectangle width="112" height="30" as="alternateBounds"/></mxGeometry></mxCell><mxCell id="WbIzngpiIjyWAqJz2QKn-78" style="shape=partialRectangle;html=1;whiteSpace=wrap;connectable=0;overflow=hidden;top=0;left=0;bottom=0;right=0;pointerEvents=1;" parent="WbIzngpiIjyWAqJz2QKn-75" vertex="1"><mxGeometry x="226" width="114" height="30" as="geometry"><mxRectangle width="114" height="30" as="alternateBounds"/></mxGeometry></mxCell><mxCell id="WbIzngpiIjyWAqJz2QKn-79" style="shape=tableRow;horizontal=0;startSize=0;swimlaneHead=0;swimlaneBody=0;strokeColor=inherit;top=0;left=0;bottom=0;right=0;collapsible=0;dropTarget=0;fillColor=none;points=[[0,0.5],[1,0.5]];portConstraint=eastwest;" parent="WbIzngpiIjyWAqJz2QKn-62" vertex="1"><mxGeometry y="140" width="340" height="30" as="geometry"/></mxCell><mxCell id="WbIzngpiIjyWAqJz2QKn-80" style="shape=partialRectangle;html=1;whiteSpace=wrap;connectable=0;strokeColor=inherit;overflow=hidden;fillColor=none;top=0;left=0;bottom=0;right=0;pointerEvents=1;" parent="WbIzngpiIjyWAqJz2QKn-79" vertex="1"><mxGeometry width="114" height="30" as="geometry"><mxRectangle width="114" height="30" as="alternateBounds"/></mxGeometry></mxCell><mxCell id="WbIzngpiIjyWAqJz2QKn-81" style="shape=partialRectangle;html=1;whiteSpace=wrap;connectable=0;strokeColor=inherit;overflow=hidden;fillColor=none;top=0;left=0;bottom=0;right=0;pointerEvents=1;" parent="WbIzngpiIjyWAqJz2QKn-79" vertex="1"><mxGeometry x="114" width="112" height="30" as="geometry"><mxRectangle width="112" height="30" as="alternateBounds"/></mxGeometry></mxCell><mxCell id="WbIzngpiIjyWAqJz2QKn-82" style="shape=partialRectangle;html=1;whiteSpace=wrap;connectable=0;strokeColor=inherit;overflow=hidden;fillColor=none;top=0;left=0;bottom=0;right=0;pointerEvents=1;" parent="WbIzngpiIjyWAqJz2QKn-79" vertex="1"><mxGeometry x="226" width="114" height="30" as="geometry"><mxRectangle width="114" height="30" as="alternateBounds"/></mxGeometry></mxCell><mxCell id="WbIzngpiIjyWAqJz2QKn-83" style="shape=tableRow;horizontal=0;startSize=0;swimlaneHead=0;swimlaneBody=0;strokeColor=inherit;top=0;left=0;bottom=0;right=0;collapsible=0;dropTarget=0;fillColor=none;points=[[0,0.5],[1,0.5]];portConstraint=eastwest;" parent="WbIzngpiIjyWAqJz2QKn-62" vertex="1"><mxGeometry y="170" width="340" height="30" as="geometry"/></mxCell><mxCell id="WbIzngpiIjyWAqJz2QKn-84" style="shape=partialRectangle;html=1;whiteSpace=wrap;connectable=0;strokeColor=inherit;overflow=hidden;fillColor=none;top=0;left=0;bottom=0;right=0;pointerEvents=1;" parent="WbIzngpiIjyWAqJz2QKn-83" vertex="1"><mxGeometry width="114" height="30" as="geometry"><mxRectangle width="114" height="30" as="alternateBounds"/></mxGeometry></mxCell><mxCell id="WbIzngpiIjyWAqJz2QKn-85" style="shape=partialRectangle;html=1;whiteSpace=wrap;connectable=0;strokeColor=inherit;overflow=hidden;fillColor=none;top=0;left=0;bottom=0;right=0;pointerEvents=1;" parent="WbIzngpiIjyWAqJz2QKn-83" vertex="1"><mxGeometry x="114" width="112" height="30" as="geometry"><mxRectangle width="112" height="30" as="alternateBounds"/></mxGeometry></mxCell><mxCell id="WbIzngpiIjyWAqJz2QKn-86" style="shape=partialRectangle;html=1;whiteSpace=wrap;connectable=0;strokeColor=inherit;overflow=hidden;fillColor=none;top=0;left=0;bottom=0;right=0;pointerEvents=1;" parent="WbIzngpiIjyWAqJz2QKn-83" vertex="1"><mxGeometry x="226" width="114" height="30" as="geometry"><mxRectangle width="114" height="30" as="alternateBounds"/></mxGeometry></mxCell><mxCell id="WbIzngpiIjyWAqJz2QKn-87" value="Criterias" style="shape=table;startSize=20;container=1;collapsible=0;childLayout=tableLayout;" parent="1" vertex="1"><mxGeometry x="3150" y="1160" width="490" height="250" as="geometry"/></mxCell><mxCell id="WbIzngpiIjyWAqJz2QKn-88" value="" style="shape=tableRow;horizontal=0;startSize=0;swimlaneHead=0;swimlaneBody=0;strokeColor=inherit;top=0;left=0;bottom=0;right=0;collapsible=0;dropTarget=0;fillColor=none;points=[[0,0.5],[1,0.5]];portConstraint=eastwest;" parent="WbIzngpiIjyWAqJz2QKn-87" vertex="1"><mxGeometry y="20" width="490" height="56" as="geometry"/></mxCell><mxCell id="WbIzngpiIjyWAqJz2QKn-89" value="Achieved" style="shape=partialRectangle;html=1;whiteSpace=wrap;connectable=0;strokeColor=inherit;overflow=hidden;fillColor=none;top=0;left=0;bottom=0;right=0;pointerEvents=1;" parent="WbIzngpiIjyWAqJz2QKn-88" vertex="1"><mxGeometry width="99" height="56" as="geometry"><mxRectangle width="99" height="56" as="alternateBounds"/></mxGeometry></mxCell><mxCell id="WbIzngpiIjyWAqJz2QKn-90" value="Criteria" style="shape=partialRectangle;html=1;whiteSpace=wrap;connectable=0;strokeColor=inherit;overflow=hidden;fillColor=none;top=0;left=0;bottom=0;right=0;pointerEvents=1;" parent="WbIzngpiIjyWAqJz2QKn-88" vertex="1"><mxGeometry x="99" width="98" height="56" as="geometry"><mxRectangle width="98" height="56" as="alternateBounds"/></mxGeometry></mxCell><mxCell id="WbIzngpiIjyWAqJz2QKn-91" value="Description" style="shape=partialRectangle;html=1;whiteSpace=wrap;connectable=0;strokeColor=inherit;overflow=hidden;fillColor=none;top=0;left=0;bottom=0;right=0;pointerEvents=1;" parent="WbIzngpiIjyWAqJz2QKn-88" vertex="1"><mxGeometry x="197" width="96" height="56" as="geometry"><mxRectangle width="96" height="56" as="alternateBounds"/></mxGeometry></mxCell><mxCell id="WbIzngpiIjyWAqJz2QKn-92" value="Weight/Priority" style="shape=partialRectangle;html=1;whiteSpace=wrap;connectable=0;strokeColor=inherit;overflow=hidden;fillColor=none;top=0;left=0;bottom=0;right=0;pointerEvents=1;" parent="WbIzngpiIjyWAqJz2QKn-88" vertex="1"><mxGeometry x="293" width="98" height="56" as="geometry"><mxRectangle width="98" height="56" as="alternateBounds"/></mxGeometry></mxCell><mxCell id="WbIzngpiIjyWAqJz2QKn-93" value="Points" style="shape=partialRectangle;html=1;whiteSpace=wrap;connectable=0;strokeColor=inherit;overflow=hidden;fillColor=none;top=0;left=0;bottom=0;right=0;pointerEvents=1;" parent="WbIzngpiIjyWAqJz2QKn-88" vertex="1"><mxGeometry x="391" width="99" height="56" as="geometry"><mxRectangle width="99" height="56" as="alternateBounds"/></mxGeometry></mxCell><mxCell id="WbIzngpiIjyWAqJz2QKn-94" value="" style="shape=tableRow;horizontal=0;startSize=0;swimlaneHead=0;swimlaneBody=0;strokeColor=inherit;top=0;left=0;bottom=0;right=0;collapsible=0;dropTarget=0;fillColor=none;points=[[0,0.5],[1,0.5]];portConstraint=eastwest;" parent="WbIzngpiIjyWAqJz2QKn-87" vertex="1"><mxGeometry y="76" width="490" height="60" as="geometry"/></mxCell><mxCell id="WbIzngpiIjyWAqJz2QKn-95" style="shape=partialRectangle;html=1;whiteSpace=wrap;connectable=0;strokeColor=inherit;overflow=hidden;fillColor=none;top=0;left=0;bottom=0;right=0;pointerEvents=1;" parent="WbIzngpiIjyWAqJz2QKn-94" vertex="1"><mxGeometry width="99" height="60" as="geometry"><mxRectangle width="99" height="60" as="alternateBounds"/></mxGeometry></mxCell><mxCell id="WbIzngpiIjyWAqJz2QKn-96" value="Time" style="shape=partialRectangle;html=1;whiteSpace=wrap;connectable=0;strokeColor=inherit;overflow=hidden;fillColor=none;top=0;left=0;bottom=0;right=0;pointerEvents=1;" parent="WbIzngpiIjyWAqJz2QKn-94" vertex="1"><mxGeometry x="99" width="98" height="60" as="geometry"><mxRectangle width="98" height="60" as="alternateBounds"/></mxGeometry></mxCell><mxCell id="WbIzngpiIjyWAqJz2QKn-97" value="How long the student took to answer" style="shape=partialRectangle;html=1;whiteSpace=wrap;connectable=0;strokeColor=inherit;overflow=hidden;fillColor=none;top=0;left=0;bottom=0;right=0;pointerEvents=1;" parent="WbIzngpiIjyWAqJz2QKn-94" vertex="1"><mxGeometry x="197" width="96" height="60" as="geometry"><mxRectangle width="96" height="60" as="alternateBounds"/></mxGeometry></mxCell><mxCell id="WbIzngpiIjyWAqJz2QKn-98" value="0,5" style="shape=partialRectangle;html=1;whiteSpace=wrap;connectable=0;strokeColor=inherit;overflow=hidden;fillColor=none;top=0;left=0;bottom=0;right=0;pointerEvents=1;" parent="WbIzngpiIjyWAqJz2QKn-94" vertex="1"><mxGeometry x="293" width="98" height="60" as="geometry"><mxRectangle width="98" height="60" as="alternateBounds"/></mxGeometry></mxCell><mxCell id="WbIzngpiIjyWAqJz2QKn-99" value="5" style="shape=partialRectangle;html=1;whiteSpace=wrap;connectable=0;strokeColor=inherit;overflow=hidden;fillColor=none;top=0;left=0;bottom=0;right=0;pointerEvents=1;" parent="WbIzngpiIjyWAqJz2QKn-94" vertex="1"><mxGeometry x="391" width="99" height="60" as="geometry"><mxRectangle width="99" height="60" as="alternateBounds"/></mxGeometry></mxCell><mxCell id="WbIzngpiIjyWAqJz2QKn-100" style="shape=tableRow;horizontal=0;startSize=0;swimlaneHead=0;swimlaneBody=0;strokeColor=inherit;top=0;left=0;bottom=0;right=0;collapsible=0;dropTarget=0;fillColor=none;points=[[0,0.5],[1,0.5]];portConstraint=eastwest;" parent="WbIzngpiIjyWAqJz2QKn-87" vertex="1"><mxGeometry y="136" width="490" height="58" as="geometry"/></mxCell><mxCell id="WbIzngpiIjyWAqJz2QKn-101" style="shape=partialRectangle;html=1;whiteSpace=wrap;connectable=0;strokeColor=inherit;overflow=hidden;fillColor=none;top=0;left=0;bottom=0;right=0;pointerEvents=1;" parent="WbIzngpiIjyWAqJz2QKn-100" vertex="1"><mxGeometry width="99" height="58" as="geometry"><mxRectangle width="99" height="58" as="alternateBounds"/></mxGeometry></mxCell><mxCell id="WbIzngpiIjyWAqJz2QKn-102" value="Correctness" style="shape=partialRectangle;html=1;whiteSpace=wrap;connectable=0;strokeColor=inherit;overflow=hidden;fillColor=none;top=0;left=0;bottom=0;right=0;pointerEvents=1;" parent="WbIzngpiIjyWAqJz2QKn-100" vertex="1"><mxGeometry x="99" width="98" height="58" as="geometry"><mxRectangle width="98" height="58" as="alternateBounds"/></mxGeometry></mxCell><mxCell id="WbIzngpiIjyWAqJz2QKn-103" value="Was it correct" style="shape=partialRectangle;html=1;whiteSpace=wrap;connectable=0;strokeColor=inherit;overflow=hidden;fillColor=none;top=0;left=0;bottom=0;right=0;pointerEvents=1;" parent="WbIzngpiIjyWAqJz2QKn-100" vertex="1"><mxGeometry x="197" width="96" height="58" as="geometry"><mxRectangle width="96" height="58" as="alternateBounds"/></mxGeometry></mxCell><mxCell id="WbIzngpiIjyWAqJz2QKn-104" value="0.25" style="shape=partialRectangle;html=1;whiteSpace=wrap;connectable=0;strokeColor=inherit;overflow=hidden;fillColor=none;top=0;left=0;bottom=0;right=0;pointerEvents=1;" parent="WbIzngpiIjyWAqJz2QKn-100" vertex="1"><mxGeometry x="293" width="98" height="58" as="geometry"><mxRectangle width="98" height="58" as="alternateBounds"/></mxGeometry></mxCell><mxCell id="WbIzngpiIjyWAqJz2QKn-105" value="2.5" style="shape=partialRectangle;html=1;whiteSpace=wrap;connectable=0;strokeColor=inherit;overflow=hidden;fillColor=none;top=0;left=0;bottom=0;right=0;pointerEvents=1;" parent="WbIzngpiIjyWAqJz2QKn-100" vertex="1"><mxGeometry x="391" width="99" height="58" as="geometry"><mxRectangle width="99" height="58" as="alternateBounds"/></mxGeometry></mxCell><mxCell id="WbIzngpiIjyWAqJz2QKn-106" style="shape=tableRow;horizontal=0;startSize=0;swimlaneHead=0;swimlaneBody=0;strokeColor=inherit;top=0;left=0;bottom=0;right=0;collapsible=0;dropTarget=0;fillColor=none;points=[[0,0.5],[1,0.5]];portConstraint=eastwest;" parent="WbIzngpiIjyWAqJz2QKn-87" vertex="1"><mxGeometry y="194" width="490" height="56" as="geometry"/></mxCell><mxCell id="WbIzngpiIjyWAqJz2QKn-107" style="shape=partialRectangle;html=1;whiteSpace=wrap;connectable=0;strokeColor=inherit;overflow=hidden;fillColor=none;top=0;left=0;bottom=0;right=0;pointerEvents=1;" parent="WbIzngpiIjyWAqJz2QKn-106" vertex="1"><mxGeometry width="99" height="56" as="geometry"><mxRectangle width="99" height="56" as="alternateBounds"/></mxGeometry></mxCell><mxCell id="WbIzngpiIjyWAqJz2QKn-108" value="Whatever else" style="shape=partialRectangle;html=1;whiteSpace=wrap;connectable=0;strokeColor=inherit;overflow=hidden;fillColor=none;top=0;left=0;bottom=0;right=0;pointerEvents=1;" parent="WbIzngpiIjyWAqJz2QKn-106" vertex="1"><mxGeometry x="99" width="98" height="56" as="geometry"><mxRectangle width="98" height="56" as="alternateBounds"/></mxGeometry></mxCell><mxCell id="WbIzngpiIjyWAqJz2QKn-109" value="Am I in a good mood" style="shape=partialRectangle;html=1;whiteSpace=wrap;connectable=0;strokeColor=inherit;overflow=hidden;fillColor=none;top=0;left=0;bottom=0;right=0;pointerEvents=1;" parent="WbIzngpiIjyWAqJz2QKn-106" vertex="1"><mxGeometry x="197" width="96" height="56" as="geometry"><mxRectangle width="96" height="56" as="alternateBounds"/></mxGeometry></mxCell><mxCell id="WbIzngpiIjyWAqJz2QKn-110" value="0.25" style="shape=partialRectangle;html=1;whiteSpace=wrap;connectable=0;overflow=hidden;top=0;left=0;bottom=0;right=0;pointerEvents=1;" parent="WbIzngpiIjyWAqJz2QKn-106" vertex="1"><mxGeometry x="293" width="98" height="56" as="geometry"><mxRectangle width="98" height="56" as="alternateBounds"/></mxGeometry></mxCell><mxCell id="WbIzngpiIjyWAqJz2QKn-111" value="2.5" style="shape=partialRectangle;html=1;whiteSpace=wrap;connectable=0;overflow=hidden;top=0;left=0;bottom=0;right=0;pointerEvents=1;" parent="WbIzngpiIjyWAqJz2QKn-106" vertex="1"><mxGeometry x="391" width="99" height="56" as="geometry"><mxRectangle width="99" height="56" as="alternateBounds"/></mxGeometry></mxCell><mxCell id="WbIzngpiIjyWAqJz2QKn-112" value="" style="dashed=0;labelPosition=right;align=left;shape=mxgraph.gmdl.checkbox;strokeColor=none;fillColor=#B0B0B0;strokeWidth=2;aspect=fixed;sketch=0;html=1;" parent="1" vertex="1"><mxGeometry x="3192" y="1252" width="16" height="16" as="geometry"/></mxCell><mxCell id="WbIzngpiIjyWAqJz2QKn-113" value="" style="dashed=0;labelPosition=right;align=left;shape=mxgraph.gmdl.checkbox;strokeColor=none;fillColor=#B0B0B0;strokeWidth=2;aspect=fixed;sketch=0;html=1;" parent="1" vertex="1"><mxGeometry x="3192" y="1314" width="16" height="16" as="geometry"/></mxCell><mxCell id="WbIzngpiIjyWAqJz2QKn-114" value="" style="dashed=0;labelPosition=right;align=left;shape=mxgraph.gmdl.checkbox;strokeColor=#666666;fillColor=none;strokeWidth=2;aspect=fixed;sketch=0;html=1;" parent="1" vertex="1"><mxGeometry x="3192" y="1370" width="16" height="16" as="geometry"/></mxCell><mxCell id="WbIzngpiIjyWAqJz2QKn-115" value="total points 10/70" style="rounded=0;whiteSpace=wrap;html=1;" parent="1" vertex="1"><mxGeometry x="2380" y="1380" width="100" height="30" as="geometry"/></mxCell><mxCell id="WbIzngpiIjyWAqJz2QKn-116" value="achieved 7.5/10" style="rounded=0;whiteSpace=wrap;html=1;" parent="1" vertex="1"><mxGeometry x="2497" y="1380" width="103" height="30" as="geometry"/></mxCell><mxCell id="WbIzngpiIjyWAqJz2QKn-117" value="grade xxx" style="rounded=0;whiteSpace=wrap;html=1;" parent="1" vertex="1"><mxGeometry x="2617" y="1380" width="103" height="30" as="geometry"/></mxCell><mxCell id="WbIzngpiIjyWAqJz2QKn-118" value="Professor Notes" style="shape=table;startSize=20;container=1;collapsible=0;childLayout=tableLayout;" parent="1" vertex="1"><mxGeometry x="2750" y="1160" width="380" height="250" as="geometry"/></mxCell><mxCell id="WbIzngpiIjyWAqJz2QKn-119" value="" style="shape=tableRow;horizontal=0;startSize=0;swimlaneHead=0;swimlaneBody=0;strokeColor=inherit;top=0;left=0;bottom=0;right=0;collapsible=0;dropTarget=0;fillColor=none;points=[[0,0.5],[1,0.5]];portConstraint=eastwest;" parent="WbIzngpiIjyWAqJz2QKn-118" vertex="1"><mxGeometry y="20" width="380" height="230" as="geometry"/></mxCell><mxCell id="WbIzngpiIjyWAqJz2QKn-120" value="I am in a bad mood" style="shape=partialRectangle;html=1;whiteSpace=wrap;connectable=0;strokeColor=inherit;overflow=hidden;fillColor=none;top=0;left=0;bottom=0;right=0;pointerEvents=1;" parent="WbIzngpiIjyWAqJz2QKn-119" vertex="1"><mxGeometry width="380" height="230" as="geometry"><mxRectangle width="380" height="230" as="alternateBounds"/></mxGeometry></mxCell><mxCell id="yFhCi1F7-TVTzixulOKe-7" value="" style="dashed=0;labelPosition=right;align=left;shape=mxgraph.gmdl.checkbox;strokeColor=none;fillColor=#009587;strokeWidth=2;aspect=fixed;sketch=0;html=1;" parent="1" vertex="1"><mxGeometry x="2406" y="927" width="16" height="16" as="geometry"/></mxCell><mxCell id="yFhCi1F7-TVTzixulOKe-8" value="" style="dashed=0;labelPosition=right;align=left;shape=mxgraph.gmdl.checkbox;strokeColor=#666666;fillColor=none;strokeWidth=2;aspect=fixed;sketch=0;html=1;" parent="1" vertex="1"><mxGeometry x="2406" y="957" width="16" height="16" as="geometry"/></mxCell><mxCell id="yFhCi1F7-TVTzixulOKe-9" value="" style="dashed=0;labelPosition=right;align=left;shape=mxgraph.gmdl.checkbox;strokeColor=#666666;fillColor=none;strokeWidth=2;aspect=fixed;sketch=0;html=1;" parent="1" vertex="1"><mxGeometry x="2406" y="990" width="16" height="16" as="geometry"/></mxCell><mxCell id="yFhCi1F7-TVTzixulOKe-10" value="" style="dashed=0;labelPosition=right;align=left;shape=mxgraph.gmdl.checkbox;strokeColor=#666666;fillColor=none;strokeWidth=2;aspect=fixed;sketch=0;html=1;" parent="1" vertex="1"><mxGeometry x="2406" y="1020" width="16" height="16" as="geometry"/></mxCell><mxCell id="yFhCi1F7-TVTzixulOKe-11" value="" style="dashed=0;labelPosition=right;align=left;shape=mxgraph.gmdl.checkbox;strokeColor=#666666;fillColor=none;strokeWidth=2;aspect=fixed;sketch=0;html=1;" parent="1" vertex="1"><mxGeometry x="2406" y="1050" width="16" height="16" as="geometry"/></mxCell><mxCell id="yFhCi1F7-TVTzixulOKe-12" value="Student" style="rounded=0;whiteSpace=wrap;html=1;" parent="1" vertex="1"><mxGeometry x="2750" y="793.12" width="80" height="36" as="geometry"/></mxCell><mxCell id="yFhCi1F7-TVTzixulOKe-13" value="Date" style="rounded=0;whiteSpace=wrap;html=1;" parent="1" vertex="1"><mxGeometry x="2835" y="793.12" width="75" height="36" as="geometry"/></mxCell><mxCell id="yFhCi1F7-TVTzixulOKe-14" value="Should Questions be editable from here?" style="shape=callout;whiteSpace=wrap;html=1;perimeter=calloutPerimeter;position2=0.14;fillColor=#e1d5e7;strokeColor=#9673a6;" parent="1" vertex="1"><mxGeometry x="3680" y="798" width="210" height="175" as="geometry"/></mxCell><mxCell id="h3OzsWP0mb3B9o1nqBtl-1" value="" style="rounded=0;whiteSpace=wrap;html=1;fillColor=#e1d5e7;strokeColor=#9673a6;" parent="1" vertex="1"><mxGeometry x="3316" y="620" width="120" height="30" as="geometry"/></mxCell><mxCell id="h3OzsWP0mb3B9o1nqBtl-2" value="Could be added or removed. Not sure yet." style="text;html=1;strokeColor=none;fillColor=none;align=center;verticalAlign=middle;whiteSpace=wrap;rounded=0;" parent="1" vertex="1"><mxGeometry x="3448" y="620" width="172" height="30" as="geometry"/></mxCell><mxCell id="h3OzsWP0mb3B9o1nqBtl-4" value="Time&lt;br&gt;25/60 (minutes)" style="rounded=0;whiteSpace=wrap;html=1;" parent="1" vertex="1"><mxGeometry x="2920" y="793.12" width="90" height="36" as="geometry"/></mxCell><mxCell id="h3OzsWP0mb3B9o1nqBtl-5" value="Start" style="rounded=0;whiteSpace=wrap;html=1;" parent="1" vertex="1"><mxGeometry x="3020" y="792" width="50" height="36" as="geometry"/></mxCell><mxCell id="h3OzsWP0mb3B9o1nqBtl-6" value="Stop" style="rounded=0;whiteSpace=wrap;html=1;" parent="1" vertex="1"><mxGeometry x="3080" y="792" width="60" height="36" as="geometry"/></mxCell><mxCell id="h3OzsWP0mb3B9o1nqBtl-8" value="Finish" style="rounded=0;whiteSpace=wrap;html=1;" parent="1" vertex="1"><mxGeometry x="3150" y="792" width="70" height="36" as="geometry"/></mxCell></root></mxGraphModel></diagram></mxfile>